<?xml version="1.0"?>
<!DOCTYPE svg PUBLIC "-//W3C//DTD SVG 1.1//EN" "http://www.w3.org/Graphics/SVG/1.1/DTD/svg11.dtd">
<svg width="71.4mm" height="152.39999999999998mm" viewBox="0 0 71.4 152.39999999999998" xmlns="http://www.w3.org/2000/svg" version="1.1">
<g id="Sketch" transform="translate(0.700000,151.700000) scale(1,-1)">
<path id="Sketch_w0000"  d="M 1.5 151.0 A 1.5 1.5 0 0 1 0 149.5L 0.0 1.4999999999999996 A 1.5 1.5 0 0 1 1.5 0L 68.5 0.0 A 1.5 1.5 0 0 1 70 1.5L 70.0 149.5 A 1.5 1.5 0 0 1 68.5 151L 1.4999999999999998 151.0 " stroke="#000000" stroke-width="0.35 px" style="stroke-width:0.35;stroke-miterlimit:4;stroke-dasharray:none;stroke-linecap:square;fill:none;fill-opacity:1;fill-rule: evenodd"/>
<path id="Sketch_w0001"  d="M 4.000000000000008 140.95 A 1 1 0 0 1 3 139.95L 3.000000000000008 105.33 A 1 1 0 0 1 4 104.33L 66.00000000000001 104.33 A 1 1 0 0 1 67 105.33L 67.00000000000001 139.95 A 1 1 0 0 1 66 140.95L 4.000000000000008 140.95 " stroke="#000000" stroke-width="0.35 px" style="stroke-width:0.35;stroke-miterlimit:4;stroke-dasharray:none;stroke-linecap:square;fill:none;fill-opacity:1;fill-rule: evenodd"/>
<title>b'Sketch'</title>
</g>
</svg>