%TF.GenerationSoftware,KiCad,Pcbnew,8.0.4*%
%TF.CreationDate,2024-12-16T18:50:41+01:00*%
%TF.ProjectId,DM50,444d3530-2e6b-4696-9361-645f70636258,rev?*%
%TF.SameCoordinates,Original*%
%TF.FileFunction,Soldermask,Top*%
%TF.FilePolarity,Negative*%
%FSLAX46Y46*%
G04 Gerber Fmt 4.6, Leading zero omitted, Abs format (unit mm)*
G04 Created by KiCad (PCBNEW 8.0.4) date 2024-12-16 18:50:41*
%MOMM*%
%LPD*%
G01*
G04 APERTURE LIST*
G04 Aperture macros list*
%AMRoundRect*
0 Rectangle with rounded corners*
0 $1 Rounding radius*
0 $2 $3 $4 $5 $6 $7 $8 $9 X,Y pos of 4 corners*
0 Add a 4 corners polygon primitive as box body*
4,1,4,$2,$3,$4,$5,$6,$7,$8,$9,$2,$3,0*
0 Add four circle primitives for the rounded corners*
1,1,$1+$1,$2,$3*
1,1,$1+$1,$4,$5*
1,1,$1+$1,$6,$7*
1,1,$1+$1,$8,$9*
0 Add four rect primitives between the rounded corners*
20,1,$1+$1,$2,$3,$4,$5,0*
20,1,$1+$1,$4,$5,$6,$7,0*
20,1,$1+$1,$6,$7,$8,$9,0*
20,1,$1+$1,$8,$9,$2,$3,0*%
%AMFreePoly0*
4,1,39,-0.648508,1.451192,-0.414662,1.370913,-0.197219,1.253238,-0.002109,1.101379,0.165343,0.919476,0.300572,0.712493,0.399888,0.486075,0.460583,0.246398,0.481000,0.000000,0.460583,-0.246398,0.399888,-0.486075,0.300572,-0.712493,0.165343,-0.919476,-0.002109,-1.101379,-0.197219,-1.253238,-0.414662,-1.370913,-0.648508,-1.451192,-0.892379,-1.491887,-1.139621,-1.491887,-1.383492,-1.451192,
-1.617338,-1.370913,-1.834781,-1.253238,-2.029891,-1.101379,-2.197343,-0.919476,-2.332572,-0.712493,-2.431888,-0.486075,-2.492583,-0.246398,-2.513000,0.000000,-2.492583,0.246398,-2.431888,0.486075,-2.332572,0.712493,-2.197343,0.919476,-2.029891,1.101379,-1.834781,1.253238,-1.617338,1.370913,-1.383492,1.451192,-1.139621,1.491887,-0.892379,1.491887,-0.648508,1.451192,-0.648508,1.451192,
$1*%
%AMFreePoly1*
4,1,113,0.604838,8.006741,1.001975,7.930199,1.390039,7.816253,1.765514,7.665936,2.125000,7.480608,2.465242,7.261948,2.783158,7.011936,3.075870,6.732836,3.340726,6.427176,3.575328,6.097723,3.777551,5.747463,3.945564,5.379565,4.077845,4.997363,4.173197,4.604318,4.230756,4.203988,4.250000,3.800000,4.230756,3.396012,4.173197,2.995682,4.077845,2.602637,3.945564,2.220435,
3.777551,1.852537,3.575328,1.502277,3.340726,1.172824,3.075870,0.867164,2.783158,0.588064,2.465242,0.338052,2.125000,0.119392,1.765514,-0.065936,1.390039,-0.216253,1.001975,-0.330199,0.604838,-0.406741,0.202223,-0.445186,-0.202223,-0.445186,-0.604838,-0.406741,-1.001975,-0.330199,-1.390039,-0.216253,-1.765514,-0.065936,-2.125000,0.119392,-2.465242,0.338052,-2.783158,0.588064,
-3.075870,0.867164,-3.340726,1.172824,-3.575328,1.502277,-3.777551,1.852537,-3.945564,2.220435,-4.077845,2.602637,-4.173197,2.995682,-4.230756,3.396012,-4.250000,3.800000,-1.954981,3.800000,-1.935082,3.521777,-1.875791,3.249218,-1.778313,2.987872,-1.644635,2.743057,-1.477476,2.519760,-1.280240,2.322524,-1.056943,2.155365,-0.812128,2.021687,-0.550782,1.924209,-0.278223,1.864918,
0.000000,1.845019,0.278223,1.864918,0.550782,1.924209,0.812128,2.021687,1.056943,2.155365,1.280240,2.322524,1.477476,2.519760,1.644635,2.743057,1.778313,2.987872,1.875791,3.249218,1.935082,3.521777,1.954981,3.800000,1.935082,4.078223,1.875791,4.350782,1.778313,4.612128,1.644635,4.856943,1.477476,5.080240,1.280240,5.277476,1.056943,5.444635,0.812128,5.578313,
0.550782,5.675791,0.278223,5.735082,0.000000,5.754981,-0.278223,5.735082,-0.550782,5.675791,-0.812128,5.578313,-1.056943,5.444635,-1.280240,5.277476,-1.477476,5.080240,-1.644635,4.856943,-1.778313,4.612128,-1.875791,4.350782,-1.935082,4.078223,-1.954981,3.800000,-4.250000,3.800000,-4.230756,4.203988,-4.173197,4.604318,-4.077845,4.997363,-3.945564,5.379565,-3.777551,5.747463,
-3.575328,6.097723,-3.340726,6.427176,-3.075870,6.732836,-2.783158,7.011936,-2.465242,7.261948,-2.125000,7.480608,-1.765514,7.665936,-1.390039,7.816253,-1.001975,7.930199,-0.604838,8.006741,-0.202223,8.045186,0.202223,8.045186,0.604838,8.006741,0.604838,8.006741,$1*%
%AMFreePoly2*
4,1,19,0.500000,-0.750000,0.000000,-0.750000,0.000000,-0.744911,-0.071157,-0.744911,-0.207708,-0.704816,-0.327430,-0.627875,-0.420627,-0.520320,-0.479746,-0.390866,-0.500000,-0.250000,-0.500000,0.250000,-0.479746,0.390866,-0.420627,0.520320,-0.327430,0.627875,-0.207708,0.704816,-0.071157,0.744911,0.000000,0.744911,0.000000,0.750000,0.500000,0.750000,0.500000,-0.750000,0.500000,-0.750000,
$1*%
%AMFreePoly3*
4,1,19,0.000000,0.744911,0.071157,0.744911,0.207708,0.704816,0.327430,0.627875,0.420627,0.520320,0.479746,0.390866,0.500000,0.250000,0.500000,-0.250000,0.479746,-0.390866,0.420627,-0.520320,0.327430,-0.627875,0.207708,-0.704816,0.071157,-0.744911,0.000000,-0.744911,0.000000,-0.750000,-0.500000,-0.750000,-0.500000,0.750000,0.000000,0.750000,0.000000,0.744911,0.000000,0.744911,
$1*%
G04 Aperture macros list end*
%ADD10FreePoly0,90.000000*%
%ADD11FreePoly1,0.000000*%
%ADD12RoundRect,0.200000X0.275000X-0.200000X0.275000X0.200000X-0.275000X0.200000X-0.275000X-0.200000X0*%
%ADD13RoundRect,0.225000X0.335876X0.017678X0.017678X0.335876X-0.335876X-0.017678X-0.017678X-0.335876X0*%
%ADD14RoundRect,0.225000X0.225000X0.250000X-0.225000X0.250000X-0.225000X-0.250000X0.225000X-0.250000X0*%
%ADD15RoundRect,0.200000X-0.275000X0.200000X-0.275000X-0.200000X0.275000X-0.200000X0.275000X0.200000X0*%
%ADD16RoundRect,0.200000X-0.200000X-0.275000X0.200000X-0.275000X0.200000X0.275000X-0.200000X0.275000X0*%
%ADD17RoundRect,0.225000X-0.250000X0.225000X-0.250000X-0.225000X0.250000X-0.225000X0.250000X0.225000X0*%
%ADD18RoundRect,0.200000X0.200000X0.275000X-0.200000X0.275000X-0.200000X-0.275000X0.200000X-0.275000X0*%
%ADD19RoundRect,0.135000X0.365000X-0.315000X0.365000X0.315000X-0.365000X0.315000X-0.365000X-0.315000X0*%
%ADD20RoundRect,0.082500X0.192500X-0.767500X0.192500X0.767500X-0.192500X0.767500X-0.192500X-0.767500X0*%
%ADD21C,1.701800*%
%ADD22R,2.209800X2.794000*%
%ADD23R,2.794000X2.794000*%
%ADD24R,2.590800X2.794000*%
%ADD25RoundRect,0.225000X0.250000X-0.225000X0.250000X0.225000X-0.250000X0.225000X-0.250000X-0.225000X0*%
%ADD26RoundRect,0.112500X-0.112500X0.187500X-0.112500X-0.187500X0.112500X-0.187500X0.112500X0.187500X0*%
%ADD27RoundRect,0.150000X-0.150000X0.825000X-0.150000X-0.825000X0.150000X-0.825000X0.150000X0.825000X0*%
%ADD28R,3.810000X2.410000*%
%ADD29RoundRect,0.250000X0.325000X1.100000X-0.325000X1.100000X-0.325000X-1.100000X0.325000X-1.100000X0*%
%ADD30RoundRect,0.218750X0.218750X0.256250X-0.218750X0.256250X-0.218750X-0.256250X0.218750X-0.256250X0*%
%ADD31RoundRect,0.150000X0.512500X0.150000X-0.512500X0.150000X-0.512500X-0.150000X0.512500X-0.150000X0*%
%ADD32RoundRect,0.225000X-0.225000X-0.250000X0.225000X-0.250000X0.225000X0.250000X-0.225000X0.250000X0*%
%ADD33R,1.498600X0.812800*%
%ADD34R,1.498600X1.143000*%
%ADD35R,1.143000X1.498600*%
%ADD36R,1.701800X1.397000*%
%ADD37RoundRect,0.218750X-0.218750X-0.256250X0.218750X-0.256250X0.218750X0.256250X-0.218750X0.256250X0*%
%ADD38RoundRect,0.500000X0.500000X-0.500000X0.500000X0.500000X-0.500000X0.500000X-0.500000X-0.500000X0*%
%ADD39C,2.000000*%
%ADD40C,1.400000*%
%ADD41RoundRect,0.102000X1.250000X-0.400000X1.250000X0.400000X-1.250000X0.400000X-1.250000X-0.400000X0*%
%ADD42RoundRect,0.102000X1.050000X-0.400000X1.050000X0.400000X-1.050000X0.400000X-1.050000X-0.400000X0*%
%ADD43R,1.524000X1.524000*%
%ADD44C,1.524000*%
%ADD45C,0.650000*%
%ADD46RoundRect,0.150000X0.425000X-0.150000X0.425000X0.150000X-0.425000X0.150000X-0.425000X-0.150000X0*%
%ADD47RoundRect,0.075000X0.500000X-0.075000X0.500000X0.075000X-0.500000X0.075000X-0.500000X-0.075000X0*%
%ADD48O,2.100000X1.000000*%
%ADD49O,1.800000X1.000000*%
%ADD50RoundRect,0.150000X-0.512500X-0.150000X0.512500X-0.150000X0.512500X0.150000X-0.512500X0.150000X0*%
%ADD51RoundRect,0.250000X0.450000X-0.325000X0.450000X0.325000X-0.450000X0.325000X-0.450000X-0.325000X0*%
%ADD52RoundRect,0.102000X0.176777X-0.530330X0.530330X-0.176777X-0.176777X0.530330X-0.530330X0.176777X0*%
%ADD53FreePoly2,0.000000*%
%ADD54FreePoly3,0.000000*%
%ADD55C,1.320800*%
%ADD56RoundRect,0.250000X1.100000X-0.325000X1.100000X0.325000X-1.100000X0.325000X-1.100000X-0.325000X0*%
%ADD57RoundRect,0.135000X-0.365000X0.315000X-0.365000X-0.315000X0.365000X-0.315000X0.365000X0.315000X0*%
%ADD58RoundRect,0.082500X-0.192500X0.767500X-0.192500X-0.767500X0.192500X-0.767500X0.192500X0.767500X0*%
%ADD59RoundRect,0.075000X-0.548008X0.441942X0.441942X-0.548008X0.548008X-0.441942X-0.441942X0.548008X0*%
%ADD60RoundRect,0.075000X-0.548008X-0.441942X-0.441942X-0.548008X0.548008X0.441942X0.441942X0.548008X0*%
%ADD61RoundRect,0.150000X-0.587500X-0.150000X0.587500X-0.150000X0.587500X0.150000X-0.587500X0.150000X0*%
%ADD62RoundRect,0.150000X0.150000X-0.512500X0.150000X0.512500X-0.150000X0.512500X-0.150000X-0.512500X0*%
%ADD63RoundRect,0.250000X1.750000X-2.250000X1.750000X2.250000X-1.750000X2.250000X-1.750000X-2.250000X0*%
G04 APERTURE END LIST*
D10*
%TO.C,SW38*%
X93850000Y-184750000D03*
D11*
X93850000Y-189550000D03*
%TD*%
D12*
%TO.C,R15*%
X108325000Y-93725000D03*
X108325000Y-92075000D03*
%TD*%
D10*
%TO.C,SW47*%
X132850000Y-194750000D03*
D11*
X132850000Y-199550000D03*
%TD*%
D10*
%TO.C,SW28*%
X100850000Y-161750000D03*
D11*
X100850000Y-166550000D03*
%TD*%
D13*
%TO.C,C11*%
X106073008Y-72798008D03*
X104976992Y-71701992D03*
%TD*%
D10*
%TO.C,SW46*%
X119850000Y-194750000D03*
D11*
X119850000Y-199550000D03*
%TD*%
D10*
%TO.C,SW30*%
X122850000Y-161750000D03*
D11*
X122850000Y-166550000D03*
%TD*%
D14*
%TO.C,C16*%
X112325000Y-91550000D03*
X110775000Y-91550000D03*
%TD*%
D15*
%TO.C,R9*%
X131850000Y-103925000D03*
X131850000Y-105575000D03*
%TD*%
D10*
%TO.C,SW31*%
X133850000Y-161750000D03*
D11*
X133850000Y-166550000D03*
%TD*%
D16*
%TO.C,R18*%
X89025000Y-84250000D03*
X90675000Y-84250000D03*
%TD*%
D17*
%TO.C,C26*%
X109350000Y-99725000D03*
X109350000Y-101275000D03*
%TD*%
D10*
%TO.C,SW35*%
X119850000Y-174750000D03*
D11*
X119850000Y-179550000D03*
%TD*%
D18*
%TO.C,R11*%
X122575000Y-98950000D03*
X120925000Y-98950000D03*
%TD*%
D12*
%TO.C,R13*%
X134600000Y-111325000D03*
X134600000Y-109675000D03*
%TD*%
D17*
%TO.C,C19*%
X107100000Y-99725000D03*
X107100000Y-101275000D03*
%TD*%
D10*
%TO.C,SW29*%
X111850000Y-161750000D03*
D11*
X111850000Y-166550000D03*
%TD*%
D10*
%TO.C,SW21*%
X89850000Y-151750000D03*
D11*
X89850000Y-156550000D03*
%TD*%
D19*
%TO.C,SW42*%
X138350000Y-72850000D03*
X138350000Y-68750000D03*
X139950000Y-72850000D03*
X139950000Y-68750000D03*
D20*
X137725000Y-70800000D03*
%TD*%
D10*
%TO.C,SW36*%
X132850000Y-174750000D03*
D11*
X132850000Y-179550000D03*
%TD*%
D21*
%TO.C,J7*%
X77652700Y-105250000D03*
X84663100Y-105250000D03*
D22*
X73766500Y-108950780D03*
D23*
X85958500Y-108950780D03*
D22*
X78465500Y-101549220D03*
X76560500Y-108950780D03*
D24*
X89946300Y-104500700D03*
D22*
X75646100Y-101549220D03*
%TD*%
D16*
%TO.C,R20*%
X95025000Y-77750000D03*
X96675000Y-77750000D03*
%TD*%
D10*
%TO.C,SW10*%
X100850000Y-131750000D03*
D11*
X100850000Y-136550000D03*
%TD*%
D25*
%TO.C,C20*%
X118050000Y-104625000D03*
X118050000Y-103075000D03*
%TD*%
%TO.C,C8*%
X102550000Y-67325000D03*
X102550000Y-65775000D03*
%TD*%
D10*
%TO.C,SW44*%
X93850000Y-194750000D03*
D11*
X93850000Y-199550000D03*
%TD*%
D10*
%TO.C,SW41*%
X132850000Y-184750000D03*
D11*
X132850000Y-189550000D03*
%TD*%
D26*
%TO.C,D4*%
X121850000Y-101050000D03*
X121850000Y-103150000D03*
%TD*%
D10*
%TO.C,SW12*%
X122850000Y-131750000D03*
D11*
X122850000Y-136550000D03*
%TD*%
D10*
%TO.C,SW33*%
X93850000Y-174750000D03*
D11*
X93850000Y-179550000D03*
%TD*%
D14*
%TO.C,C4*%
X109625000Y-65750000D03*
X108075000Y-65750000D03*
%TD*%
D10*
%TO.C,SW40*%
X119850000Y-184750000D03*
D11*
X119850000Y-189550000D03*
%TD*%
D13*
%TO.C,C13*%
X104973008Y-73898008D03*
X103876992Y-72801992D03*
%TD*%
D27*
%TO.C,U7*%
X97455000Y-101175000D03*
X96185000Y-101175000D03*
X94915000Y-101175000D03*
X93645000Y-101175000D03*
X93645000Y-106125000D03*
X94915000Y-106125000D03*
X96185000Y-106125000D03*
X97455000Y-106125000D03*
D28*
X95550000Y-103650000D03*
%TD*%
D10*
%TO.C,SW4*%
X100850000Y-121750000D03*
D11*
X100850000Y-126550000D03*
%TD*%
D16*
%TO.C,R26*%
X120225000Y-87250000D03*
X121875000Y-87250000D03*
%TD*%
D18*
%TO.C,R22*%
X96375000Y-108550000D03*
X94725000Y-108550000D03*
%TD*%
D29*
%TO.C,C28*%
X102025000Y-108500000D03*
X99075000Y-108500000D03*
%TD*%
D16*
%TO.C,R12*%
X124525000Y-103250000D03*
X126175000Y-103250000D03*
%TD*%
D18*
%TO.C,R7*%
X98575000Y-97150000D03*
X96925000Y-97150000D03*
%TD*%
D14*
%TO.C,C10*%
X136125000Y-68850000D03*
X134575000Y-68850000D03*
%TD*%
D12*
%TO.C,R5*%
X112100000Y-104075000D03*
X112100000Y-102425000D03*
%TD*%
D10*
%TO.C,SW20*%
X78850000Y-151750000D03*
D11*
X78850000Y-156550000D03*
%TD*%
D16*
%TO.C,R14*%
X124525000Y-101500000D03*
X126175000Y-101500000D03*
%TD*%
%TO.C,R21*%
X96925000Y-98750000D03*
X98575000Y-98750000D03*
%TD*%
D14*
%TO.C,C22*%
X131875000Y-107000000D03*
X130325000Y-107000000D03*
%TD*%
D10*
%TO.C,SW6*%
X122850000Y-121750000D03*
D11*
X122850000Y-126550000D03*
%TD*%
D17*
%TO.C,C6*%
X120350000Y-65775000D03*
X120350000Y-67325000D03*
%TD*%
D10*
%TO.C,SW24*%
X122850000Y-151750000D03*
D11*
X122850000Y-156550000D03*
%TD*%
D14*
%TO.C,C9*%
X114825000Y-65750000D03*
X113275000Y-65750000D03*
%TD*%
D10*
%TO.C,SW13*%
X133850000Y-131750000D03*
D11*
X133850000Y-136550000D03*
%TD*%
D17*
%TO.C,C1*%
X130550000Y-65775000D03*
X130550000Y-67325000D03*
%TD*%
D12*
%TO.C,R10*%
X131850000Y-100825000D03*
X131850000Y-99175000D03*
%TD*%
D30*
%TO.C,D6*%
X112637500Y-117000000D03*
X111062500Y-117000000D03*
%TD*%
D16*
%TO.C,R2*%
X134500000Y-72850000D03*
X136150000Y-72850000D03*
%TD*%
D10*
%TO.C,SW25*%
X133850000Y-151750000D03*
D11*
X133850000Y-156550000D03*
%TD*%
D10*
%TO.C,SW5*%
X111850000Y-121750000D03*
D11*
X111850000Y-126550000D03*
%TD*%
D31*
%TO.C,U5*%
X119287500Y-101100000D03*
X119287500Y-100150000D03*
X119287500Y-99200000D03*
X117012500Y-99200000D03*
X117012500Y-101100000D03*
%TD*%
D17*
%TO.C,C2*%
X127950000Y-65775000D03*
X127950000Y-67325000D03*
%TD*%
%TO.C,C3*%
X125450000Y-65775000D03*
X125450000Y-67325000D03*
%TD*%
%TO.C,C7*%
X105050000Y-67325000D03*
X105050000Y-65775000D03*
%TD*%
D16*
%TO.C,R17*%
X89025000Y-86250000D03*
X90675000Y-86250000D03*
%TD*%
D29*
%TO.C,C30*%
X111025000Y-96150000D03*
X108075000Y-96150000D03*
%TD*%
D17*
%TO.C,C15*%
X105350000Y-99725000D03*
X105350000Y-101275000D03*
%TD*%
D10*
%TO.C,SW23*%
X111850000Y-151750000D03*
D11*
X111850000Y-156550000D03*
%TD*%
D10*
%TO.C,SW26*%
X78850000Y-161750000D03*
D11*
X78850000Y-166550000D03*
%TD*%
D12*
%TO.C,R3*%
X132850000Y-111325000D03*
X132850000Y-109675000D03*
%TD*%
D17*
%TO.C,C5*%
X122850000Y-65775000D03*
X122850000Y-67325000D03*
%TD*%
D10*
%TO.C,SW27*%
X89850000Y-161750000D03*
D11*
X89850000Y-166550000D03*
%TD*%
D10*
%TO.C,SW34*%
X106850000Y-174750000D03*
D11*
X106850000Y-179550000D03*
%TD*%
D10*
%TO.C,SW32*%
X78850000Y-174750000D03*
D11*
X78850000Y-179550000D03*
%TD*%
D32*
%TO.C,C17*%
X109800000Y-73400000D03*
X111350000Y-73400000D03*
%TD*%
D14*
%TO.C,C29*%
X94525000Y-97950000D03*
X92975000Y-97950000D03*
%TD*%
D10*
%TO.C,SW18*%
X122850000Y-141750000D03*
D11*
X122850000Y-146550000D03*
%TD*%
D32*
%TO.C,C23*%
X122937500Y-108470000D03*
X124487500Y-108470000D03*
%TD*%
D10*
%TO.C,SW15*%
X89850000Y-141750000D03*
D11*
X89850000Y-146550000D03*
%TD*%
D33*
%TO.C,J5*%
X75500001Y-84825001D03*
X75500001Y-83725000D03*
X75500001Y-82625000D03*
X75500001Y-81525002D03*
X75500001Y-80425002D03*
X75500001Y-79325002D03*
X75500001Y-78225001D03*
X75500001Y-77125001D03*
D34*
X82350000Y-75550000D03*
D35*
X87075002Y-82725002D03*
D36*
X72600002Y-88575001D03*
X72600002Y-75675001D03*
D35*
X87075002Y-85025000D03*
X87075003Y-76125000D03*
%TD*%
D10*
%TO.C,SW14*%
X78850000Y-141750000D03*
D11*
X78850000Y-146550000D03*
%TD*%
D15*
%TO.C,R24*%
X106100000Y-103425000D03*
X106100000Y-105075000D03*
%TD*%
D16*
%TO.C,R8*%
X94725000Y-110150000D03*
X96375000Y-110150000D03*
%TD*%
D10*
%TO.C,SW19*%
X133850000Y-141750000D03*
D11*
X133850000Y-146550000D03*
%TD*%
D15*
%TO.C,R4*%
X116450000Y-103025000D03*
X116450000Y-104675000D03*
%TD*%
D37*
%TO.C,D1*%
X122062500Y-117000000D03*
X123637500Y-117000000D03*
%TD*%
D16*
%TO.C,R25*%
X120225000Y-88750000D03*
X121875000Y-88750000D03*
%TD*%
D10*
%TO.C,SW43*%
X78850000Y-194750000D03*
D11*
X78850000Y-199550000D03*
%TD*%
D10*
%TO.C,SW17*%
X111850000Y-141750000D03*
D11*
X111850000Y-146550000D03*
%TD*%
D38*
%TO.C,J3*%
X90850000Y-99900000D03*
D39*
X90850000Y-96650000D03*
%TD*%
D10*
%TO.C,SW37*%
X78850000Y-184750000D03*
D11*
X78850000Y-189550000D03*
%TD*%
D40*
%TO.C,J6*%
X133600000Y-85960000D03*
X133600000Y-78340000D03*
D41*
X129590000Y-87230000D03*
D42*
X126460000Y-87230000D03*
D41*
X129590000Y-84690000D03*
D42*
X126460000Y-84690000D03*
D41*
X129590000Y-82150000D03*
D42*
X126460000Y-82150000D03*
D41*
X129590000Y-79610000D03*
D42*
X126460000Y-79610000D03*
D41*
X129590000Y-77070000D03*
D42*
X126460000Y-77070000D03*
%TD*%
D10*
%TO.C,SW8*%
X78850000Y-131750000D03*
D11*
X78850000Y-136550000D03*
%TD*%
D14*
%TO.C,C12*%
X102850000Y-87650000D03*
X101300000Y-87650000D03*
%TD*%
%TO.C,C25*%
X93125000Y-81750000D03*
X91575000Y-81750000D03*
%TD*%
D10*
%TO.C,SW51*%
X119850000Y-204750000D03*
D11*
X119850000Y-209550000D03*
%TD*%
D43*
%TO.C,U1*%
X82217500Y-112210000D03*
D44*
X84757500Y-112210000D03*
X87297500Y-112210000D03*
X125397500Y-112210000D03*
X127937500Y-112210000D03*
X130477500Y-112210000D03*
X130477500Y-63950000D03*
X127937500Y-63950000D03*
X125397500Y-63950000D03*
X122857500Y-63950000D03*
X120317500Y-63950000D03*
X117777500Y-63950000D03*
X115237500Y-63950000D03*
X112697500Y-63950000D03*
X110157500Y-63950000D03*
X107617500Y-63950000D03*
X105077500Y-63950000D03*
X102537500Y-63950000D03*
X99997500Y-63950000D03*
X97457500Y-63950000D03*
X94917500Y-63950000D03*
X92377500Y-63950000D03*
X89837500Y-63950000D03*
X87297500Y-63950000D03*
X84757500Y-63950000D03*
X82217500Y-63950000D03*
%TD*%
D10*
%TO.C,SW49*%
X93850000Y-204750000D03*
D11*
X93850000Y-209550000D03*
%TD*%
D45*
%TO.C,J2*%
X134795000Y-105240000D03*
X134795000Y-99460000D03*
D46*
X133720000Y-105550000D03*
X133720000Y-104750000D03*
D47*
X133720000Y-103600000D03*
X133720000Y-102600000D03*
X133720000Y-102100000D03*
X133720000Y-101100000D03*
D46*
X133720000Y-99950000D03*
X133720000Y-99150000D03*
X133720000Y-99150000D03*
X133720000Y-99950000D03*
D47*
X133720000Y-100600000D03*
X133720000Y-101600000D03*
X133720000Y-103100000D03*
X133720000Y-104100000D03*
D46*
X133720000Y-104750000D03*
X133720000Y-105550000D03*
D48*
X134295000Y-106670000D03*
D49*
X138475000Y-106670000D03*
D48*
X134295000Y-98030000D03*
D49*
X138475000Y-98030000D03*
%TD*%
D17*
%TO.C,C14*%
X119575000Y-82625000D03*
X119575000Y-84175000D03*
%TD*%
D10*
%TO.C,SW45*%
X106850000Y-194750000D03*
D11*
X106850000Y-199550000D03*
%TD*%
D16*
%TO.C,R19*%
X95025000Y-79250000D03*
X96675000Y-79250000D03*
%TD*%
D50*
%TO.C,U6*%
X124325000Y-104850000D03*
X124325000Y-105800000D03*
X124325000Y-106750000D03*
X126600000Y-106750000D03*
X126600000Y-104850000D03*
%TD*%
D16*
%TO.C,R1*%
X76525000Y-72750000D03*
X78175000Y-72750000D03*
%TD*%
D10*
%TO.C,SW50*%
X106850000Y-204750000D03*
D11*
X106850000Y-209550000D03*
%TD*%
D10*
%TO.C,SW39*%
X106850000Y-184750000D03*
D11*
X106850000Y-189550000D03*
%TD*%
D27*
%TO.C,U3*%
X105230000Y-91375000D03*
X103960000Y-91375000D03*
X102690000Y-91375000D03*
X101420000Y-91375000D03*
X101420000Y-96325000D03*
X102690000Y-96325000D03*
X103960000Y-96325000D03*
X105230000Y-96325000D03*
%TD*%
D51*
%TO.C,L1*%
X114600000Y-101025000D03*
X114600000Y-98975000D03*
%TD*%
D10*
%TO.C,SW11*%
X111850000Y-131750000D03*
D11*
X111850000Y-136550000D03*
%TD*%
D52*
%TO.C,Y1*%
X106186091Y-74788909D03*
X106963909Y-74011091D03*
%TD*%
D10*
%TO.C,SW3*%
X89850000Y-121750000D03*
D11*
X89850000Y-126550000D03*
%TD*%
D10*
%TO.C,SW22*%
X100850000Y-151750000D03*
D11*
X100850000Y-156550000D03*
%TD*%
D15*
%TO.C,R23*%
X104350000Y-103425000D03*
X104350000Y-105075000D03*
%TD*%
D10*
%TO.C,SW2*%
X78850000Y-121750000D03*
D11*
X78850000Y-126550000D03*
%TD*%
D10*
%TO.C,SW16*%
X100850000Y-141750000D03*
D11*
X100850000Y-146550000D03*
%TD*%
D16*
%TO.C,R6*%
X101250000Y-89150000D03*
X102900000Y-89150000D03*
%TD*%
D32*
%TO.C,C18*%
X109775000Y-71750000D03*
X111325000Y-71750000D03*
%TD*%
D10*
%TO.C,SW52*%
X132850000Y-204750000D03*
D11*
X132850000Y-209550000D03*
%TD*%
D53*
%TO.C,JP1*%
X126700000Y-108750000D03*
D54*
X128000000Y-108750000D03*
%TD*%
D55*
%TO.C,J4*%
X120197300Y-108000000D03*
X120197300Y-110000001D03*
%TD*%
D56*
%TO.C,C27*%
X100550000Y-105225000D03*
X100550000Y-102275000D03*
%TD*%
D10*
%TO.C,SW9*%
X89850000Y-131750000D03*
D11*
X89850000Y-136550000D03*
%TD*%
D37*
%TO.C,D3*%
X133062500Y-117000000D03*
X134637500Y-117000000D03*
%TD*%
D30*
%TO.C,D5*%
X101637500Y-117000000D03*
X100062500Y-117000000D03*
%TD*%
D57*
%TO.C,SW1*%
X74325000Y-68700000D03*
X74325000Y-72800000D03*
X72725000Y-68700000D03*
X72725000Y-72800000D03*
D58*
X74950000Y-70750000D03*
%TD*%
D59*
%TO.C,U2*%
X109188819Y-75485519D03*
X108835266Y-75839072D03*
X108481713Y-76192625D03*
X108128159Y-76546179D03*
X107774606Y-76899732D03*
X107421052Y-77253286D03*
X107067499Y-77606839D03*
X106713946Y-77960392D03*
X106360392Y-78313946D03*
X106006839Y-78667499D03*
X105653286Y-79021052D03*
X105299732Y-79374606D03*
X104946179Y-79728159D03*
X104592625Y-80081713D03*
X104239072Y-80435266D03*
X103885519Y-80788819D03*
D60*
X103885519Y-83511181D03*
X104239072Y-83864734D03*
X104592625Y-84218287D03*
X104946179Y-84571841D03*
X105299732Y-84925394D03*
X105653286Y-85278948D03*
X106006839Y-85632501D03*
X106360392Y-85986054D03*
X106713946Y-86339608D03*
X107067499Y-86693161D03*
X107421052Y-87046714D03*
X107774606Y-87400268D03*
X108128159Y-87753821D03*
X108481713Y-88107375D03*
X108835266Y-88460928D03*
X109188819Y-88814481D03*
D59*
X111911181Y-88814481D03*
X112264734Y-88460928D03*
X112618287Y-88107375D03*
X112971841Y-87753821D03*
X113325394Y-87400268D03*
X113678948Y-87046714D03*
X114032501Y-86693161D03*
X114386054Y-86339608D03*
X114739608Y-85986054D03*
X115093161Y-85632501D03*
X115446714Y-85278948D03*
X115800268Y-84925394D03*
X116153821Y-84571841D03*
X116507375Y-84218287D03*
X116860928Y-83864734D03*
X117214481Y-83511181D03*
D60*
X117214481Y-80788819D03*
X116860928Y-80435266D03*
X116507375Y-80081713D03*
X116153821Y-79728159D03*
X115800268Y-79374606D03*
X115446714Y-79021052D03*
X115093161Y-78667499D03*
X114739608Y-78313946D03*
X114386054Y-77960392D03*
X114032501Y-77606839D03*
X113678948Y-77253286D03*
X113325394Y-76899732D03*
X112971841Y-76546179D03*
X112618287Y-76192625D03*
X112264734Y-75839072D03*
X111911181Y-75485519D03*
%TD*%
D17*
%TO.C,C24*%
X106825000Y-92125000D03*
X106825000Y-93675000D03*
%TD*%
D10*
%TO.C,SW7*%
X133850000Y-121750000D03*
D11*
X133850000Y-126550000D03*
%TD*%
D61*
%TO.C,D2*%
X124412500Y-97950000D03*
X124412500Y-99850000D03*
X126287500Y-98900000D03*
%TD*%
D10*
%TO.C,SW48*%
X78850000Y-204750000D03*
D11*
X78850000Y-209550000D03*
%TD*%
D62*
%TO.C,U4*%
X128400000Y-101137500D03*
X129350000Y-101137500D03*
X130300000Y-101137500D03*
X130300000Y-98862500D03*
X129350000Y-98862500D03*
X128400000Y-98862500D03*
%TD*%
D16*
%TO.C,R16*%
X89025000Y-88000000D03*
X90675000Y-88000000D03*
%TD*%
D63*
%TO.C,BT1*%
X120330000Y-92350000D03*
X127950000Y-92350000D03*
X85280000Y-92350000D03*
X92900000Y-92350000D03*
%TD*%
%TO.C,BT2*%
X120350000Y-72150000D03*
X127970000Y-72150000D03*
X85300000Y-72150000D03*
X92920000Y-72150000D03*
%TD*%
M02*
