%TF.GenerationSoftware,KiCad,Pcbnew,8.0.1*%
%TF.CreationDate,2024-05-18T23:09:03+02:00*%
%TF.ProjectId,DM50,444d3530-2e6b-4696-9361-645f70636258,rev?*%
%TF.SameCoordinates,Original*%
%TF.FileFunction,Paste,Top*%
%TF.FilePolarity,Positive*%
%FSLAX46Y46*%
G04 Gerber Fmt 4.6, Leading zero omitted, Abs format (unit mm)*
G04 Created by KiCad (PCBNEW 8.0.1) date 2024-05-18 23:09:03*
%MOMM*%
%LPD*%
G01*
G04 APERTURE LIST*
G04 Aperture macros list*
%AMRoundRect*
0 Rectangle with rounded corners*
0 $1 Rounding radius*
0 $2 $3 $4 $5 $6 $7 $8 $9 X,Y pos of 4 corners*
0 Add a 4 corners polygon primitive as box body*
4,1,4,$2,$3,$4,$5,$6,$7,$8,$9,$2,$3,0*
0 Add four circle primitives for the rounded corners*
1,1,$1+$1,$2,$3*
1,1,$1+$1,$4,$5*
1,1,$1+$1,$6,$7*
1,1,$1+$1,$8,$9*
0 Add four rect primitives between the rounded corners*
20,1,$1+$1,$2,$3,$4,$5,0*
20,1,$1+$1,$4,$5,$6,$7,0*
20,1,$1+$1,$6,$7,$8,$9,0*
20,1,$1+$1,$8,$9,$2,$3,0*%
G04 Aperture macros list end*
%ADD10RoundRect,0.225000X0.225000X0.250000X-0.225000X0.250000X-0.225000X-0.250000X0.225000X-0.250000X0*%
%ADD11RoundRect,0.200000X-0.275000X0.200000X-0.275000X-0.200000X0.275000X-0.200000X0.275000X0.200000X0*%
%ADD12RoundRect,0.225000X0.250000X-0.225000X0.250000X0.225000X-0.250000X0.225000X-0.250000X-0.225000X0*%
%ADD13RoundRect,0.225000X-0.250000X0.225000X-0.250000X-0.225000X0.250000X-0.225000X0.250000X0.225000X0*%
%ADD14RoundRect,0.225000X-0.225000X-0.250000X0.225000X-0.250000X0.225000X0.250000X-0.225000X0.250000X0*%
%ADD15RoundRect,0.200000X-0.200000X-0.275000X0.200000X-0.275000X0.200000X0.275000X-0.200000X0.275000X0*%
%ADD16RoundRect,0.200000X0.275000X-0.200000X0.275000X0.200000X-0.275000X0.200000X-0.275000X-0.200000X0*%
%ADD17RoundRect,0.150000X0.150000X-0.587500X0.150000X0.587500X-0.150000X0.587500X-0.150000X-0.587500X0*%
%ADD18RoundRect,0.150000X-0.512500X-0.150000X0.512500X-0.150000X0.512500X0.150000X-0.512500X0.150000X0*%
%ADD19RoundRect,0.218750X0.218750X0.256250X-0.218750X0.256250X-0.218750X-0.256250X0.218750X-0.256250X0*%
%ADD20RoundRect,0.150000X0.425000X-0.150000X0.425000X0.150000X-0.425000X0.150000X-0.425000X-0.150000X0*%
%ADD21RoundRect,0.075000X0.500000X-0.075000X0.500000X0.075000X-0.500000X0.075000X-0.500000X-0.075000X0*%
%ADD22O,2.100000X1.000000*%
%ADD23O,1.800000X1.000000*%
%ADD24RoundRect,0.150000X0.825000X0.150000X-0.825000X0.150000X-0.825000X-0.150000X0.825000X-0.150000X0*%
%ADD25RoundRect,0.250000X-0.450000X0.325000X-0.450000X-0.325000X0.450000X-0.325000X0.450000X0.325000X0*%
%ADD26R,1.200000X0.600000*%
%ADD27RoundRect,0.200000X0.200000X0.275000X-0.200000X0.275000X-0.200000X-0.275000X0.200000X-0.275000X0*%
%ADD28RoundRect,0.075000X-0.662500X-0.075000X0.662500X-0.075000X0.662500X0.075000X-0.662500X0.075000X0*%
%ADD29RoundRect,0.075000X-0.075000X-0.662500X0.075000X-0.662500X0.075000X0.662500X-0.075000X0.662500X0*%
%ADD30RoundRect,0.150000X0.587500X0.150000X-0.587500X0.150000X-0.587500X-0.150000X0.587500X-0.150000X0*%
%ADD31RoundRect,0.150000X0.512500X0.150000X-0.512500X0.150000X-0.512500X-0.150000X0.512500X-0.150000X0*%
G04 APERTURE END LIST*
D10*
%TO.C,C11*%
X97075000Y-83750000D03*
X95525000Y-83750000D03*
%TD*%
%TO.C,C16*%
X99625000Y-90450000D03*
X98075000Y-90450000D03*
%TD*%
D11*
%TO.C,R9*%
X131850000Y-86325000D03*
X131850000Y-87975000D03*
%TD*%
%TO.C,R11*%
X112450000Y-97900000D03*
X112450000Y-99550000D03*
%TD*%
D12*
%TO.C,C19*%
X121487500Y-99625000D03*
X121487500Y-98075000D03*
%TD*%
D13*
%TO.C,C20*%
X110950000Y-97975000D03*
X110950000Y-99525000D03*
%TD*%
D14*
%TO.C,C8*%
X100675000Y-67150000D03*
X102225000Y-67150000D03*
%TD*%
D10*
%TO.C,C4*%
X110325000Y-67150000D03*
X108775000Y-67150000D03*
%TD*%
%TO.C,C13*%
X97075000Y-85550000D03*
X95525000Y-85550000D03*
%TD*%
D15*
%TO.C,R7*%
X110087500Y-77750000D03*
X111737500Y-77750000D03*
%TD*%
D14*
%TO.C,C10*%
X97275000Y-67150000D03*
X98825000Y-67150000D03*
%TD*%
D16*
%TO.C,R5*%
X124600000Y-99675000D03*
X124600000Y-98025000D03*
%TD*%
D13*
%TO.C,C6*%
X120450000Y-67150000D03*
X120450000Y-68700000D03*
%TD*%
D10*
%TO.C,C9*%
X114925000Y-67150000D03*
X113375000Y-67150000D03*
%TD*%
D13*
%TO.C,C1*%
X130650000Y-67150000D03*
X130650000Y-68700000D03*
%TD*%
D16*
%TO.C,R10*%
X131850000Y-83275000D03*
X131850000Y-81625000D03*
%TD*%
D17*
%TO.C,Q1*%
X113400000Y-79187500D03*
X115300000Y-79187500D03*
X114350000Y-77312500D03*
%TD*%
D15*
%TO.C,R2*%
X93825000Y-67150000D03*
X95475000Y-67150000D03*
%TD*%
D18*
%TO.C,U5*%
X114262500Y-97800000D03*
X114262500Y-98750000D03*
X114262500Y-99700000D03*
X116537500Y-99700000D03*
X116537500Y-97800000D03*
%TD*%
D13*
%TO.C,C2*%
X128050000Y-67150000D03*
X128050000Y-68700000D03*
%TD*%
%TO.C,C3*%
X125550000Y-67150000D03*
X125550000Y-68700000D03*
%TD*%
D14*
%TO.C,C7*%
X105275000Y-67150000D03*
X106825000Y-67150000D03*
%TD*%
D10*
%TO.C,C15*%
X112569000Y-91512500D03*
X111019000Y-91512500D03*
%TD*%
D11*
%TO.C,R3*%
X123750000Y-103125000D03*
X123750000Y-104775000D03*
%TD*%
D13*
%TO.C,C5*%
X123050000Y-67150000D03*
X123050000Y-68700000D03*
%TD*%
D14*
%TO.C,C17*%
X98375000Y-81350000D03*
X99925000Y-81350000D03*
%TD*%
D15*
%TO.C,R8*%
X110087500Y-79450000D03*
X111737500Y-79450000D03*
%TD*%
%TO.C,R4*%
X115125000Y-91150000D03*
X116775000Y-91150000D03*
%TD*%
D19*
%TO.C,D1*%
X128937500Y-116350000D03*
X127362500Y-116350000D03*
%TD*%
D14*
%TO.C,C12*%
X115175000Y-93150000D03*
X116725000Y-93150000D03*
%TD*%
D12*
%TO.C,C21*%
X109550000Y-93025000D03*
X109550000Y-91475000D03*
%TD*%
D20*
%TO.C,J2*%
X133960000Y-88140000D03*
X133960000Y-87340000D03*
D21*
X133960000Y-86190000D03*
X133960000Y-85190000D03*
X133960000Y-84690000D03*
X133960000Y-83690000D03*
D20*
X133960000Y-82540000D03*
X133960000Y-81740000D03*
X133960000Y-81740000D03*
X133960000Y-82540000D03*
D21*
X133960000Y-83190000D03*
X133960000Y-84190000D03*
X133960000Y-85690000D03*
X133960000Y-86690000D03*
D20*
X133960000Y-87340000D03*
X133960000Y-88140000D03*
D22*
X134535000Y-89260000D03*
D23*
X138715000Y-89260000D03*
D22*
X134535000Y-80620000D03*
D23*
X138715000Y-80620000D03*
%TD*%
D14*
%TO.C,C14*%
X110925000Y-81000000D03*
X112475000Y-81000000D03*
%TD*%
D15*
%TO.C,R1*%
X98925000Y-68750000D03*
X100575000Y-68750000D03*
%TD*%
D24*
%TO.C,U3*%
X107825000Y-98455000D03*
X107825000Y-97185000D03*
X107825000Y-95915000D03*
X107825000Y-94645000D03*
X102875000Y-94645000D03*
X102875000Y-95915000D03*
X102875000Y-97185000D03*
X102875000Y-98455000D03*
%TD*%
D25*
%TO.C,L1*%
X119387500Y-97725000D03*
X119387500Y-99775000D03*
%TD*%
D26*
%TO.C,Y1*%
X98650000Y-85250000D03*
X98650000Y-84050000D03*
%TD*%
D27*
%TO.C,R6*%
X116775000Y-95050000D03*
X115125000Y-95050000D03*
%TD*%
D14*
%TO.C,C18*%
X104575000Y-100250000D03*
X106125000Y-100250000D03*
%TD*%
D28*
%TO.C,U2*%
X101387500Y-83400000D03*
X101387500Y-83900000D03*
X101387500Y-84400000D03*
X101387500Y-84900000D03*
X101387500Y-85400000D03*
X101387500Y-85900000D03*
X101387500Y-86400000D03*
X101387500Y-86900000D03*
X101387500Y-87400000D03*
X101387500Y-87900000D03*
X101387500Y-88400000D03*
X101387500Y-88900000D03*
D29*
X102800000Y-90312500D03*
X103300000Y-90312500D03*
X103800000Y-90312500D03*
X104300000Y-90312500D03*
X104800000Y-90312500D03*
X105300000Y-90312500D03*
X105800000Y-90312500D03*
X106300000Y-90312500D03*
X106800000Y-90312500D03*
X107300000Y-90312500D03*
X107800000Y-90312500D03*
X108300000Y-90312500D03*
D28*
X109712500Y-88900000D03*
X109712500Y-88400000D03*
X109712500Y-87900000D03*
X109712500Y-87400000D03*
X109712500Y-86900000D03*
X109712500Y-86400000D03*
X109712500Y-85900000D03*
X109712500Y-85400000D03*
X109712500Y-84900000D03*
X109712500Y-84400000D03*
X109712500Y-83900000D03*
X109712500Y-83400000D03*
D29*
X108300000Y-81987500D03*
X107800000Y-81987500D03*
X107300000Y-81987500D03*
X106800000Y-81987500D03*
X106300000Y-81987500D03*
X105800000Y-81987500D03*
X105300000Y-81987500D03*
X104800000Y-81987500D03*
X104300000Y-81987500D03*
X103800000Y-81987500D03*
X103300000Y-81987500D03*
X102800000Y-81987500D03*
%TD*%
D30*
%TO.C,D2*%
X127987500Y-88700000D03*
X127987500Y-86800000D03*
X126112500Y-87750000D03*
%TD*%
D31*
%TO.C,U4*%
X127687500Y-84875000D03*
X127687500Y-83925000D03*
X127687500Y-82975000D03*
X125412500Y-82975000D03*
X125412500Y-83925000D03*
X125412500Y-84875000D03*
%TD*%
M02*
