%TF.GenerationSoftware,KiCad,Pcbnew,8.0.4*%
%TF.CreationDate,2024-12-16T18:50:41+01:00*%
%TF.ProjectId,DM50,444d3530-2e6b-4696-9361-645f70636258,rev?*%
%TF.SameCoordinates,Original*%
%TF.FileFunction,Profile,NP*%
%FSLAX46Y46*%
G04 Gerber Fmt 4.6, Leading zero omitted, Abs format (unit mm)*
G04 Created by KiCad (PCBNEW 8.0.4) date 2024-12-16 18:50:41*
%MOMM*%
%LPD*%
G01*
G04 APERTURE LIST*
%TA.AperFunction,Profile*%
%ADD10C,0.150000*%
%TD*%
%TA.AperFunction,Profile*%
%ADD11C,0.100000*%
%TD*%
G04 APERTURE END LIST*
D10*
X75600000Y-65000000D02*
X75600000Y-61750000D01*
D11*
X85400000Y-157750000D02*
G75*
G02*
X83400000Y-157750000I-1000000J0D01*
G01*
X83400000Y-157750000D02*
G75*
G02*
X85400000Y-157750000I1000000J0D01*
G01*
D10*
X77600000Y-65000000D02*
G75*
G02*
X75600000Y-65000000I-1000000J0D01*
G01*
X77600000Y-65000000D02*
X77600000Y-61750000D01*
X139300000Y-116250000D02*
G75*
G02*
X137300000Y-116250000I-1000000J0D01*
G01*
X137300000Y-116250000D02*
G75*
G02*
X139300000Y-116250000I1000000J0D01*
G01*
D11*
X127450000Y-190750000D02*
G75*
G02*
X125450000Y-190750000I-1000000J0D01*
G01*
X125450000Y-190750000D02*
G75*
G02*
X127450000Y-190750000I1000000J0D01*
G01*
D10*
X135100000Y-64950000D02*
X135100000Y-61750000D01*
D11*
X96400000Y-137750000D02*
G75*
G02*
X94400000Y-137750000I-1000000J0D01*
G01*
X94400000Y-137750000D02*
G75*
G02*
X96400000Y-137750000I1000000J0D01*
G01*
X96400000Y-157750000D02*
G75*
G02*
X94400000Y-157750000I-1000000J0D01*
G01*
X94400000Y-157750000D02*
G75*
G02*
X96400000Y-157750000I1000000J0D01*
G01*
X107400000Y-137750000D02*
G75*
G02*
X105400000Y-137750000I-1000000J0D01*
G01*
X105400000Y-137750000D02*
G75*
G02*
X107400000Y-137750000I1000000J0D01*
G01*
X101400000Y-169500000D02*
G75*
G02*
X99400000Y-169500000I-1000000J0D01*
G01*
X99400000Y-169500000D02*
G75*
G02*
X101400000Y-169500000I1000000J0D01*
G01*
D10*
X87600000Y-212750000D02*
X72850000Y-212750000D01*
D11*
X118400000Y-157750000D02*
G75*
G02*
X116400000Y-157750000I-1000000J0D01*
G01*
X116400000Y-157750000D02*
G75*
G02*
X118400000Y-157750000I1000000J0D01*
G01*
D10*
X72850000Y-212750000D02*
G75*
G02*
X71350000Y-211250000I0J1500000D01*
G01*
D11*
X85400000Y-147750000D02*
G75*
G02*
X83400000Y-147750000I-1000000J0D01*
G01*
X83400000Y-147750000D02*
G75*
G02*
X85400000Y-147750000I1000000J0D01*
G01*
D10*
X72850000Y-61750000D02*
X75600000Y-61750000D01*
D11*
X85400000Y-137750000D02*
G75*
G02*
X83400000Y-137750000I-1000000J0D01*
G01*
X83400000Y-137750000D02*
G75*
G02*
X85400000Y-137750000I1000000J0D01*
G01*
X101400000Y-180750000D02*
G75*
G02*
X99400000Y-180750000I-1000000J0D01*
G01*
X99400000Y-180750000D02*
G75*
G02*
X101400000Y-180750000I1000000J0D01*
G01*
X114450000Y-169500000D02*
G75*
G02*
X112450000Y-169500000I-1000000J0D01*
G01*
X112450000Y-169500000D02*
G75*
G02*
X114450000Y-169500000I1000000J0D01*
G01*
D10*
X71350000Y-115250000D02*
X71350000Y-63250000D01*
X75300000Y-116250000D02*
G75*
G02*
X73300000Y-116250000I-1000000J0D01*
G01*
X73300000Y-116250000D02*
G75*
G02*
X75300000Y-116250000I1000000J0D01*
G01*
D11*
X114450000Y-180750000D02*
G75*
G02*
X112450000Y-180750000I-1000000J0D01*
G01*
X112450000Y-180750000D02*
G75*
G02*
X114450000Y-180750000I1000000J0D01*
G01*
X85400000Y-127750000D02*
G75*
G02*
X83400000Y-127750000I-1000000J0D01*
G01*
X83400000Y-127750000D02*
G75*
G02*
X85400000Y-127750000I1000000J0D01*
G01*
X96400000Y-147750000D02*
G75*
G02*
X94400000Y-147750000I-1000000J0D01*
G01*
X94400000Y-147750000D02*
G75*
G02*
X96400000Y-147750000I1000000J0D01*
G01*
X77150000Y-95450000D02*
G75*
G02*
X75150000Y-95450000I-1000000J0D01*
G01*
X75150000Y-95450000D02*
G75*
G02*
X77150000Y-95450000I1000000J0D01*
G01*
X107400000Y-127750000D02*
G75*
G02*
X105400000Y-127750000I-1000000J0D01*
G01*
X105400000Y-127750000D02*
G75*
G02*
X107400000Y-127750000I1000000J0D01*
G01*
D10*
X137100000Y-61750000D02*
X139850000Y-61750000D01*
D11*
X82050000Y-92350000D02*
G75*
G02*
X80050000Y-92350000I-1000000J0D01*
G01*
X80050000Y-92350000D02*
G75*
G02*
X82050000Y-92350000I1000000J0D01*
G01*
X129400000Y-137750000D02*
G75*
G02*
X127400000Y-137750000I-1000000J0D01*
G01*
X127400000Y-137750000D02*
G75*
G02*
X129400000Y-137750000I1000000J0D01*
G01*
X87150000Y-180750000D02*
G75*
G02*
X85150000Y-180750000I-1000000J0D01*
G01*
X85150000Y-180750000D02*
G75*
G02*
X87150000Y-180750000I1000000J0D01*
G01*
D10*
X71350000Y-63250000D02*
G75*
G02*
X72850000Y-61750000I1500000J0D01*
G01*
X87350000Y-210250000D02*
G75*
G02*
X85350000Y-210250000I-1000000J0D01*
G01*
X85350000Y-210250000D02*
G75*
G02*
X87350000Y-210250000I1000000J0D01*
G01*
X77600000Y-61750000D02*
X135100000Y-61750000D01*
D11*
X127450000Y-169500000D02*
G75*
G02*
X125450000Y-169500000I-1000000J0D01*
G01*
X125450000Y-169500000D02*
G75*
G02*
X127450000Y-169500000I1000000J0D01*
G01*
X107400000Y-147750000D02*
G75*
G02*
X105400000Y-147750000I-1000000J0D01*
G01*
X105400000Y-147750000D02*
G75*
G02*
X107400000Y-147750000I1000000J0D01*
G01*
X127450000Y-200750000D02*
G75*
G02*
X125450000Y-200750000I-1000000J0D01*
G01*
X125450000Y-200750000D02*
G75*
G02*
X127450000Y-200750000I1000000J0D01*
G01*
D10*
X141350000Y-211250000D02*
G75*
G02*
X139850000Y-212750000I-1500000J0D01*
G01*
X127450000Y-210250000D02*
G75*
G02*
X125450000Y-210250000I-1000000J0D01*
G01*
X125450000Y-210250000D02*
G75*
G02*
X127450000Y-210250000I1000000J0D01*
G01*
D11*
X118400000Y-127750000D02*
G75*
G02*
X116400000Y-127750000I-1000000J0D01*
G01*
X116400000Y-127750000D02*
G75*
G02*
X118400000Y-127750000I1000000J0D01*
G01*
X87150000Y-200750000D02*
G75*
G02*
X85150000Y-200750000I-1000000J0D01*
G01*
X85150000Y-200750000D02*
G75*
G02*
X87150000Y-200750000I1000000J0D01*
G01*
X107400000Y-157750000D02*
G75*
G02*
X105400000Y-157750000I-1000000J0D01*
G01*
X105400000Y-157750000D02*
G75*
G02*
X107400000Y-157750000I1000000J0D01*
G01*
X114450000Y-200750000D02*
G75*
G02*
X112450000Y-200750000I-1000000J0D01*
G01*
X112450000Y-200750000D02*
G75*
G02*
X114450000Y-200750000I1000000J0D01*
G01*
X87150000Y-169500000D02*
G75*
G02*
X85150000Y-169500000I-1000000J0D01*
G01*
X85150000Y-169500000D02*
G75*
G02*
X87150000Y-169500000I1000000J0D01*
G01*
X129400000Y-147750000D02*
G75*
G02*
X127400000Y-147750000I-1000000J0D01*
G01*
X127400000Y-147750000D02*
G75*
G02*
X129400000Y-147750000I1000000J0D01*
G01*
D10*
X139850000Y-212750000D02*
X127100000Y-212750000D01*
D11*
X101400000Y-200750000D02*
G75*
G02*
X99400000Y-200750000I-1000000J0D01*
G01*
X99400000Y-200750000D02*
G75*
G02*
X101400000Y-200750000I1000000J0D01*
G01*
X127450000Y-180750000D02*
G75*
G02*
X125450000Y-180750000I-1000000J0D01*
G01*
X125450000Y-180750000D02*
G75*
G02*
X127450000Y-180750000I1000000J0D01*
G01*
X129400000Y-127750000D02*
G75*
G02*
X127400000Y-127750000I-1000000J0D01*
G01*
X127400000Y-127750000D02*
G75*
G02*
X129400000Y-127750000I1000000J0D01*
G01*
D10*
X127100000Y-212750000D02*
X87600000Y-212750000D01*
X139350000Y-169250000D02*
G75*
G02*
X137350000Y-169250000I-1000000J0D01*
G01*
X137350000Y-169250000D02*
G75*
G02*
X139350000Y-169250000I1000000J0D01*
G01*
D11*
X129400000Y-157750000D02*
G75*
G02*
X127400000Y-157750000I-1000000J0D01*
G01*
X127400000Y-157750000D02*
G75*
G02*
X129400000Y-157750000I1000000J0D01*
G01*
D10*
X75350000Y-169250000D02*
G75*
G02*
X73350000Y-169250000I-1000000J0D01*
G01*
X73350000Y-169250000D02*
G75*
G02*
X75350000Y-169250000I1000000J0D01*
G01*
D11*
X118400000Y-137750000D02*
G75*
G02*
X116400000Y-137750000I-1000000J0D01*
G01*
X116400000Y-137750000D02*
G75*
G02*
X118400000Y-137750000I1000000J0D01*
G01*
X87150000Y-190750000D02*
G75*
G02*
X85150000Y-190750000I-1000000J0D01*
G01*
X85150000Y-190750000D02*
G75*
G02*
X87150000Y-190750000I1000000J0D01*
G01*
D10*
X141350000Y-63250000D02*
X141350000Y-115250000D01*
X137100000Y-64950000D02*
G75*
G02*
X135100000Y-64950000I-1000000J0D01*
G01*
D11*
X118400000Y-147750000D02*
G75*
G02*
X116400000Y-147750000I-1000000J0D01*
G01*
X116400000Y-147750000D02*
G75*
G02*
X118400000Y-147750000I1000000J0D01*
G01*
X96400000Y-127750000D02*
G75*
G02*
X94400000Y-127750000I-1000000J0D01*
G01*
X94400000Y-127750000D02*
G75*
G02*
X96400000Y-127750000I1000000J0D01*
G01*
X114450000Y-190750000D02*
G75*
G02*
X112450000Y-190750000I-1000000J0D01*
G01*
X112450000Y-190750000D02*
G75*
G02*
X114450000Y-190750000I1000000J0D01*
G01*
D10*
X141350000Y-115250000D02*
X141350000Y-211250000D01*
D11*
X101400000Y-190750000D02*
G75*
G02*
X99400000Y-190750000I-1000000J0D01*
G01*
X99400000Y-190750000D02*
G75*
G02*
X101400000Y-190750000I1000000J0D01*
G01*
X82050000Y-98350000D02*
G75*
G02*
X80050000Y-98350000I-1000000J0D01*
G01*
X80050000Y-98350000D02*
G75*
G02*
X82050000Y-98350000I1000000J0D01*
G01*
D10*
X137100000Y-64950000D02*
X137100000Y-61750000D01*
X71350000Y-115250000D02*
X71350000Y-211250000D01*
X139850000Y-61750000D02*
G75*
G02*
X141350000Y-63250000I0J-1500000D01*
G01*
M02*
