%TF.GenerationSoftware,KiCad,Pcbnew,8.0.1*%
%TF.CreationDate,2024-05-18T23:09:03+02:00*%
%TF.ProjectId,DM50,444d3530-2e6b-4696-9361-645f70636258,rev?*%
%TF.SameCoordinates,Original*%
%TF.FileFunction,Soldermask,Top*%
%TF.FilePolarity,Negative*%
%FSLAX46Y46*%
G04 Gerber Fmt 4.6, Leading zero omitted, Abs format (unit mm)*
G04 Created by KiCad (PCBNEW 8.0.1) date 2024-05-18 23:09:03*
%MOMM*%
%LPD*%
G01*
G04 APERTURE LIST*
G04 Aperture macros list*
%AMRoundRect*
0 Rectangle with rounded corners*
0 $1 Rounding radius*
0 $2 $3 $4 $5 $6 $7 $8 $9 X,Y pos of 4 corners*
0 Add a 4 corners polygon primitive as box body*
4,1,4,$2,$3,$4,$5,$6,$7,$8,$9,$2,$3,0*
0 Add four circle primitives for the rounded corners*
1,1,$1+$1,$2,$3*
1,1,$1+$1,$4,$5*
1,1,$1+$1,$6,$7*
1,1,$1+$1,$8,$9*
0 Add four rect primitives between the rounded corners*
20,1,$1+$1,$2,$3,$4,$5,0*
20,1,$1+$1,$4,$5,$6,$7,0*
20,1,$1+$1,$6,$7,$8,$9,0*
20,1,$1+$1,$8,$9,$2,$3,0*%
%AMFreePoly0*
4,1,39,-0.648508,1.451192,-0.414662,1.370913,-0.197219,1.253238,-0.002109,1.101379,0.165343,0.919476,0.300572,0.712493,0.399888,0.486075,0.460583,0.246398,0.481000,0.000000,0.460583,-0.246398,0.399888,-0.486075,0.300572,-0.712493,0.165343,-0.919476,-0.002109,-1.101379,-0.197219,-1.253238,-0.414662,-1.370913,-0.648508,-1.451192,-0.892379,-1.491887,-1.139621,-1.491887,-1.383492,-1.451192,
-1.617338,-1.370913,-1.834781,-1.253238,-2.029891,-1.101379,-2.197343,-0.919476,-2.332572,-0.712493,-2.431888,-0.486075,-2.492583,-0.246398,-2.513000,0.000000,-2.492583,0.246398,-2.431888,0.486075,-2.332572,0.712493,-2.197343,0.919476,-2.029891,1.101379,-1.834781,1.253238,-1.617338,1.370913,-1.383492,1.451192,-1.139621,1.491887,-0.892379,1.491887,-0.648508,1.451192,-0.648508,1.451192,
$1*%
%AMFreePoly1*
4,1,113,0.604838,8.006741,1.001975,7.930199,1.390039,7.816253,1.765514,7.665936,2.125000,7.480608,2.465242,7.261948,2.783158,7.011936,3.075870,6.732836,3.340726,6.427176,3.575328,6.097723,3.777551,5.747463,3.945564,5.379565,4.077845,4.997363,4.173197,4.604318,4.230756,4.203988,4.250000,3.800000,4.230756,3.396012,4.173197,2.995682,4.077845,2.602637,3.945564,2.220435,
3.777551,1.852537,3.575328,1.502277,3.340726,1.172824,3.075870,0.867164,2.783158,0.588064,2.465242,0.338052,2.125000,0.119392,1.765514,-0.065936,1.390039,-0.216253,1.001975,-0.330199,0.604838,-0.406741,0.202223,-0.445186,-0.202223,-0.445186,-0.604838,-0.406741,-1.001975,-0.330199,-1.390039,-0.216253,-1.765514,-0.065936,-2.125000,0.119392,-2.465242,0.338052,-2.783158,0.588064,
-3.075870,0.867164,-3.340726,1.172824,-3.575328,1.502277,-3.777551,1.852537,-3.945564,2.220435,-4.077845,2.602637,-4.173197,2.995682,-4.230756,3.396012,-4.250000,3.800000,-1.954981,3.800000,-1.935082,3.521777,-1.875791,3.249218,-1.778313,2.987872,-1.644635,2.743057,-1.477476,2.519760,-1.280240,2.322524,-1.056943,2.155365,-0.812128,2.021687,-0.550782,1.924209,-0.278223,1.864918,
0.000000,1.845019,0.278223,1.864918,0.550782,1.924209,0.812128,2.021687,1.056943,2.155365,1.280240,2.322524,1.477476,2.519760,1.644635,2.743057,1.778313,2.987872,1.875791,3.249218,1.935082,3.521777,1.954981,3.800000,1.935082,4.078223,1.875791,4.350782,1.778313,4.612128,1.644635,4.856943,1.477476,5.080240,1.280240,5.277476,1.056943,5.444635,0.812128,5.578313,
0.550782,5.675791,0.278223,5.735082,0.000000,5.754981,-0.278223,5.735082,-0.550782,5.675791,-0.812128,5.578313,-1.056943,5.444635,-1.280240,5.277476,-1.477476,5.080240,-1.644635,4.856943,-1.778313,4.612128,-1.875791,4.350782,-1.935082,4.078223,-1.954981,3.800000,-4.250000,3.800000,-4.230756,4.203988,-4.173197,4.604318,-4.077845,4.997363,-3.945564,5.379565,-3.777551,5.747463,
-3.575328,6.097723,-3.340726,6.427176,-3.075870,6.732836,-2.783158,7.011936,-2.465242,7.261948,-2.125000,7.480608,-1.765514,7.665936,-1.390039,7.816253,-1.001975,7.930199,-0.604838,8.006741,-0.202223,8.045186,0.202223,8.045186,0.604838,8.006741,0.604838,8.006741,$1*%
G04 Aperture macros list end*
%ADD10FreePoly0,90.000000*%
%ADD11FreePoly1,0.000000*%
%ADD12RoundRect,0.225000X0.225000X0.250000X-0.225000X0.250000X-0.225000X-0.250000X0.225000X-0.250000X0*%
%ADD13RoundRect,0.200000X-0.275000X0.200000X-0.275000X-0.200000X0.275000X-0.200000X0.275000X0.200000X0*%
%ADD14RoundRect,0.225000X0.250000X-0.225000X0.250000X0.225000X-0.250000X0.225000X-0.250000X-0.225000X0*%
%ADD15RoundRect,0.225000X-0.250000X0.225000X-0.250000X-0.225000X0.250000X-0.225000X0.250000X0.225000X0*%
%ADD16RoundRect,0.225000X-0.225000X-0.250000X0.225000X-0.250000X0.225000X0.250000X-0.225000X0.250000X0*%
%ADD17RoundRect,0.200000X-0.200000X-0.275000X0.200000X-0.275000X0.200000X0.275000X-0.200000X0.275000X0*%
%ADD18RoundRect,0.200000X0.275000X-0.200000X0.275000X0.200000X-0.275000X0.200000X-0.275000X-0.200000X0*%
%ADD19RoundRect,0.150000X0.150000X-0.587500X0.150000X0.587500X-0.150000X0.587500X-0.150000X-0.587500X0*%
%ADD20RoundRect,0.150000X-0.512500X-0.150000X0.512500X-0.150000X0.512500X0.150000X-0.512500X0.150000X0*%
%ADD21RoundRect,0.750000X-0.750000X-0.750000X0.750000X-0.750000X0.750000X0.750000X-0.750000X0.750000X0*%
%ADD22C,3.000000*%
%ADD23RoundRect,0.218750X0.218750X0.256250X-0.218750X0.256250X-0.218750X-0.256250X0.218750X-0.256250X0*%
%ADD24C,0.650000*%
%ADD25RoundRect,0.150000X0.425000X-0.150000X0.425000X0.150000X-0.425000X0.150000X-0.425000X-0.150000X0*%
%ADD26RoundRect,0.075000X0.500000X-0.075000X0.500000X0.075000X-0.500000X0.075000X-0.500000X-0.075000X0*%
%ADD27O,2.100000X1.000000*%
%ADD28O,1.800000X1.000000*%
%ADD29RoundRect,0.150000X0.825000X0.150000X-0.825000X0.150000X-0.825000X-0.150000X0.825000X-0.150000X0*%
%ADD30RoundRect,0.250000X-0.450000X0.325000X-0.450000X-0.325000X0.450000X-0.325000X0.450000X0.325000X0*%
%ADD31R,1.200000X0.600000*%
%ADD32RoundRect,0.200000X0.200000X0.275000X-0.200000X0.275000X-0.200000X-0.275000X0.200000X-0.275000X0*%
%ADD33R,1.524000X1.524000*%
%ADD34C,1.524000*%
%ADD35RoundRect,0.075000X-0.662500X-0.075000X0.662500X-0.075000X0.662500X0.075000X-0.662500X0.075000X0*%
%ADD36RoundRect,0.075000X-0.075000X-0.662500X0.075000X-0.662500X0.075000X0.662500X-0.075000X0.662500X0*%
%ADD37RoundRect,0.150000X0.587500X0.150000X-0.587500X0.150000X-0.587500X-0.150000X0.587500X-0.150000X0*%
%ADD38RoundRect,0.150000X0.512500X0.150000X-0.512500X0.150000X-0.512500X-0.150000X0.512500X-0.150000X0*%
%ADD39RoundRect,0.250000X1.750000X-2.250000X1.750000X2.250000X-1.750000X2.250000X-1.750000X-2.250000X0*%
G04 APERTURE END LIST*
D10*
%TO.C,SW38*%
X93550000Y-184750000D03*
D11*
X93550000Y-189550000D03*
%TD*%
D10*
%TO.C,SW47*%
X132550000Y-194750000D03*
D11*
X132550000Y-199550000D03*
%TD*%
D10*
%TO.C,SW28*%
X100550000Y-161750000D03*
D11*
X100550000Y-166550000D03*
%TD*%
D12*
%TO.C,C11*%
X97075000Y-83750000D03*
X95525000Y-83750000D03*
%TD*%
D10*
%TO.C,SW46*%
X119550000Y-194750000D03*
D11*
X119550000Y-199550000D03*
%TD*%
D10*
%TO.C,SW30*%
X122550000Y-161750000D03*
D11*
X122550000Y-166550000D03*
%TD*%
D12*
%TO.C,C16*%
X99625000Y-90450000D03*
X98075000Y-90450000D03*
%TD*%
D13*
%TO.C,R9*%
X131850000Y-86325000D03*
X131850000Y-87975000D03*
%TD*%
D10*
%TO.C,SW31*%
X133550000Y-161750000D03*
D11*
X133550000Y-166550000D03*
%TD*%
D10*
%TO.C,SW35*%
X119550000Y-174750000D03*
D11*
X119550000Y-179550000D03*
%TD*%
D13*
%TO.C,R11*%
X112450000Y-97900000D03*
X112450000Y-99550000D03*
%TD*%
D14*
%TO.C,C19*%
X121487500Y-99625000D03*
X121487500Y-98075000D03*
%TD*%
D10*
%TO.C,SW29*%
X111550000Y-161750000D03*
D11*
X111550000Y-166550000D03*
%TD*%
D10*
%TO.C,SW21*%
X89550000Y-151750000D03*
D11*
X89550000Y-156550000D03*
%TD*%
D10*
%TO.C,SW36*%
X132550000Y-174750000D03*
D11*
X132550000Y-179550000D03*
%TD*%
D10*
%TO.C,SW10*%
X100550000Y-131750000D03*
D11*
X100550000Y-136550000D03*
%TD*%
D15*
%TO.C,C20*%
X110950000Y-97975000D03*
X110950000Y-99525000D03*
%TD*%
D16*
%TO.C,C8*%
X100675000Y-67150000D03*
X102225000Y-67150000D03*
%TD*%
D10*
%TO.C,SW44*%
X93550000Y-194750000D03*
D11*
X93550000Y-199550000D03*
%TD*%
D10*
%TO.C,SW41*%
X132550000Y-184750000D03*
D11*
X132550000Y-189550000D03*
%TD*%
D10*
%TO.C,SW12*%
X122550000Y-131750000D03*
D11*
X122550000Y-136550000D03*
%TD*%
D10*
%TO.C,SW33*%
X93550000Y-174750000D03*
D11*
X93550000Y-179550000D03*
%TD*%
D12*
%TO.C,C4*%
X110325000Y-67150000D03*
X108775000Y-67150000D03*
%TD*%
D10*
%TO.C,SW40*%
X119550000Y-184750000D03*
D11*
X119550000Y-189550000D03*
%TD*%
D12*
%TO.C,C13*%
X97075000Y-85550000D03*
X95525000Y-85550000D03*
%TD*%
D10*
%TO.C,SW4*%
X100550000Y-121750000D03*
D11*
X100550000Y-126550000D03*
%TD*%
D17*
%TO.C,R7*%
X110087500Y-77750000D03*
X111737500Y-77750000D03*
%TD*%
D16*
%TO.C,C10*%
X97275000Y-67150000D03*
X98825000Y-67150000D03*
%TD*%
D18*
%TO.C,R5*%
X124600000Y-99675000D03*
X124600000Y-98025000D03*
%TD*%
D10*
%TO.C,SW20*%
X78550000Y-151750000D03*
D11*
X78550000Y-156550000D03*
%TD*%
D10*
%TO.C,SW6*%
X122550000Y-121750000D03*
D11*
X122550000Y-126550000D03*
%TD*%
D15*
%TO.C,C6*%
X120450000Y-67150000D03*
X120450000Y-68700000D03*
%TD*%
D10*
%TO.C,SW24*%
X122550000Y-151750000D03*
D11*
X122550000Y-156550000D03*
%TD*%
D12*
%TO.C,C9*%
X114925000Y-67150000D03*
X113375000Y-67150000D03*
%TD*%
D10*
%TO.C,SW13*%
X133550000Y-131750000D03*
D11*
X133550000Y-136550000D03*
%TD*%
D15*
%TO.C,C1*%
X130650000Y-67150000D03*
X130650000Y-68700000D03*
%TD*%
D18*
%TO.C,R10*%
X131850000Y-83275000D03*
X131850000Y-81625000D03*
%TD*%
D19*
%TO.C,Q1*%
X113400000Y-79187500D03*
X115300000Y-79187500D03*
X114350000Y-77312500D03*
%TD*%
D17*
%TO.C,R2*%
X93825000Y-67150000D03*
X95475000Y-67150000D03*
%TD*%
D10*
%TO.C,SW25*%
X133550000Y-151750000D03*
D11*
X133550000Y-156550000D03*
%TD*%
D10*
%TO.C,SW5*%
X111550000Y-121750000D03*
D11*
X111550000Y-126550000D03*
%TD*%
D20*
%TO.C,U5*%
X114262500Y-97800000D03*
X114262500Y-98750000D03*
X114262500Y-99700000D03*
X116537500Y-99700000D03*
X116537500Y-97800000D03*
%TD*%
D15*
%TO.C,C2*%
X128050000Y-67150000D03*
X128050000Y-68700000D03*
%TD*%
%TO.C,C3*%
X125550000Y-67150000D03*
X125550000Y-68700000D03*
%TD*%
D16*
%TO.C,C7*%
X105275000Y-67150000D03*
X106825000Y-67150000D03*
%TD*%
D12*
%TO.C,C15*%
X112569000Y-91512500D03*
X111019000Y-91512500D03*
%TD*%
D10*
%TO.C,SW23*%
X111550000Y-151750000D03*
D11*
X111550000Y-156550000D03*
%TD*%
D10*
%TO.C,SW26*%
X78550000Y-161750000D03*
D11*
X78550000Y-166550000D03*
%TD*%
D13*
%TO.C,R3*%
X123750000Y-103125000D03*
X123750000Y-104775000D03*
%TD*%
D15*
%TO.C,C5*%
X123050000Y-67150000D03*
X123050000Y-68700000D03*
%TD*%
D10*
%TO.C,SW27*%
X89550000Y-161750000D03*
D11*
X89550000Y-166550000D03*
%TD*%
D10*
%TO.C,SW34*%
X106550000Y-174750000D03*
D11*
X106550000Y-179550000D03*
%TD*%
D10*
%TO.C,SW32*%
X78550000Y-174750000D03*
D11*
X78550000Y-179550000D03*
%TD*%
D16*
%TO.C,C17*%
X98375000Y-81350000D03*
X99925000Y-81350000D03*
%TD*%
D10*
%TO.C,SW18*%
X122550000Y-141750000D03*
D11*
X122550000Y-146550000D03*
%TD*%
D10*
%TO.C,SW15*%
X89550000Y-141750000D03*
D11*
X89550000Y-146550000D03*
%TD*%
D10*
%TO.C,SW14*%
X78550000Y-141750000D03*
D11*
X78550000Y-146550000D03*
%TD*%
D21*
%TO.C,BZ1*%
X109350000Y-73950000D03*
D22*
X114350000Y-73950000D03*
%TD*%
D17*
%TO.C,R8*%
X110087500Y-79450000D03*
X111737500Y-79450000D03*
%TD*%
D10*
%TO.C,SW19*%
X133550000Y-141750000D03*
D11*
X133550000Y-146550000D03*
%TD*%
D17*
%TO.C,R4*%
X115125000Y-91150000D03*
X116775000Y-91150000D03*
%TD*%
D23*
%TO.C,D1*%
X128937500Y-116350000D03*
X127362500Y-116350000D03*
%TD*%
D10*
%TO.C,SW43*%
X78550000Y-194750000D03*
D11*
X78550000Y-199550000D03*
%TD*%
D10*
%TO.C,SW17*%
X111550000Y-141750000D03*
D11*
X111550000Y-146550000D03*
%TD*%
D10*
%TO.C,SW37*%
X78550000Y-184750000D03*
D11*
X78550000Y-189550000D03*
%TD*%
D10*
%TO.C,SW8*%
X78550000Y-131750000D03*
D11*
X78550000Y-136550000D03*
%TD*%
D16*
%TO.C,C12*%
X115175000Y-93150000D03*
X116725000Y-93150000D03*
%TD*%
D14*
%TO.C,C21*%
X109550000Y-93025000D03*
X109550000Y-91475000D03*
%TD*%
D10*
%TO.C,SW51*%
X119550000Y-204750000D03*
D11*
X119550000Y-209550000D03*
%TD*%
D10*
%TO.C,SW49*%
X93550000Y-204750000D03*
D11*
X93550000Y-209550000D03*
%TD*%
D24*
%TO.C,J2*%
X135035000Y-87830000D03*
X135035000Y-82050000D03*
D25*
X133960000Y-88140000D03*
X133960000Y-87340000D03*
D26*
X133960000Y-86190000D03*
X133960000Y-85190000D03*
X133960000Y-84690000D03*
X133960000Y-83690000D03*
D25*
X133960000Y-82540000D03*
X133960000Y-81740000D03*
X133960000Y-81740000D03*
X133960000Y-82540000D03*
D26*
X133960000Y-83190000D03*
X133960000Y-84190000D03*
X133960000Y-85690000D03*
X133960000Y-86690000D03*
D25*
X133960000Y-87340000D03*
X133960000Y-88140000D03*
D27*
X134535000Y-89260000D03*
D28*
X138715000Y-89260000D03*
D27*
X134535000Y-80620000D03*
D28*
X138715000Y-80620000D03*
%TD*%
D16*
%TO.C,C14*%
X110925000Y-81000000D03*
X112475000Y-81000000D03*
%TD*%
D10*
%TO.C,SW45*%
X106550000Y-194750000D03*
D11*
X106550000Y-199550000D03*
%TD*%
D17*
%TO.C,R1*%
X98925000Y-68750000D03*
X100575000Y-68750000D03*
%TD*%
D10*
%TO.C,SW50*%
X106550000Y-204750000D03*
D11*
X106550000Y-209550000D03*
%TD*%
D10*
%TO.C,SW39*%
X106550000Y-184750000D03*
D11*
X106550000Y-189550000D03*
%TD*%
D29*
%TO.C,U3*%
X107825000Y-98455000D03*
X107825000Y-97185000D03*
X107825000Y-95915000D03*
X107825000Y-94645000D03*
X102875000Y-94645000D03*
X102875000Y-95915000D03*
X102875000Y-97185000D03*
X102875000Y-98455000D03*
%TD*%
D30*
%TO.C,L1*%
X119387500Y-97725000D03*
X119387500Y-99775000D03*
%TD*%
D10*
%TO.C,SW11*%
X111550000Y-131750000D03*
D11*
X111550000Y-136550000D03*
%TD*%
D31*
%TO.C,Y1*%
X98650000Y-85250000D03*
X98650000Y-84050000D03*
%TD*%
D10*
%TO.C,SW3*%
X89550000Y-121750000D03*
D11*
X89550000Y-126550000D03*
%TD*%
D10*
%TO.C,SW22*%
X100550000Y-151750000D03*
D11*
X100550000Y-156550000D03*
%TD*%
D10*
%TO.C,SW2*%
X78550000Y-121750000D03*
D11*
X78550000Y-126550000D03*
%TD*%
D10*
%TO.C,SW16*%
X100550000Y-141750000D03*
D11*
X100550000Y-146550000D03*
%TD*%
D32*
%TO.C,R6*%
X116775000Y-95050000D03*
X115125000Y-95050000D03*
%TD*%
D16*
%TO.C,C18*%
X104575000Y-100250000D03*
X106125000Y-100250000D03*
%TD*%
D10*
%TO.C,SW52*%
X132550000Y-204750000D03*
D11*
X132550000Y-209550000D03*
%TD*%
D33*
%TO.C,U1*%
X82370000Y-112610000D03*
D34*
X84910000Y-112610000D03*
X87450000Y-112610000D03*
X125550000Y-112610000D03*
X128090000Y-112610000D03*
X130630000Y-112610000D03*
X130630000Y-64350000D03*
X128090000Y-64350000D03*
X125550000Y-64350000D03*
X123010000Y-64350000D03*
X120470000Y-64350000D03*
X117930000Y-64350000D03*
X115390000Y-64350000D03*
X112850000Y-64350000D03*
X110310000Y-64350000D03*
X107770000Y-64350000D03*
X105230000Y-64350000D03*
X102690000Y-64350000D03*
X100150000Y-64350000D03*
X97610000Y-64350000D03*
X95070000Y-64350000D03*
X92530000Y-64350000D03*
X89990000Y-64350000D03*
X87450000Y-64350000D03*
X84910000Y-64350000D03*
X82370000Y-64350000D03*
%TD*%
D10*
%TO.C,SW9*%
X89550000Y-131750000D03*
D11*
X89550000Y-136550000D03*
%TD*%
D35*
%TO.C,U2*%
X101387500Y-83400000D03*
X101387500Y-83900000D03*
X101387500Y-84400000D03*
X101387500Y-84900000D03*
X101387500Y-85400000D03*
X101387500Y-85900000D03*
X101387500Y-86400000D03*
X101387500Y-86900000D03*
X101387500Y-87400000D03*
X101387500Y-87900000D03*
X101387500Y-88400000D03*
X101387500Y-88900000D03*
D36*
X102800000Y-90312500D03*
X103300000Y-90312500D03*
X103800000Y-90312500D03*
X104300000Y-90312500D03*
X104800000Y-90312500D03*
X105300000Y-90312500D03*
X105800000Y-90312500D03*
X106300000Y-90312500D03*
X106800000Y-90312500D03*
X107300000Y-90312500D03*
X107800000Y-90312500D03*
X108300000Y-90312500D03*
D35*
X109712500Y-88900000D03*
X109712500Y-88400000D03*
X109712500Y-87900000D03*
X109712500Y-87400000D03*
X109712500Y-86900000D03*
X109712500Y-86400000D03*
X109712500Y-85900000D03*
X109712500Y-85400000D03*
X109712500Y-84900000D03*
X109712500Y-84400000D03*
X109712500Y-83900000D03*
X109712500Y-83400000D03*
D36*
X108300000Y-81987500D03*
X107800000Y-81987500D03*
X107300000Y-81987500D03*
X106800000Y-81987500D03*
X106300000Y-81987500D03*
X105800000Y-81987500D03*
X105300000Y-81987500D03*
X104800000Y-81987500D03*
X104300000Y-81987500D03*
X103800000Y-81987500D03*
X103300000Y-81987500D03*
X102800000Y-81987500D03*
%TD*%
D10*
%TO.C,SW7*%
X133550000Y-121750000D03*
D11*
X133550000Y-126550000D03*
%TD*%
D37*
%TO.C,D2*%
X127987500Y-88700000D03*
X127987500Y-86800000D03*
X126112500Y-87750000D03*
%TD*%
D10*
%TO.C,SW48*%
X78550000Y-204750000D03*
D11*
X78550000Y-209550000D03*
%TD*%
D38*
%TO.C,U4*%
X127687500Y-84875000D03*
X127687500Y-83925000D03*
X127687500Y-82975000D03*
X125412500Y-82975000D03*
X125412500Y-83925000D03*
X125412500Y-84875000D03*
%TD*%
D39*
%TO.C,BT1*%
X120230000Y-92750000D03*
X127850000Y-92750000D03*
X85180000Y-92750000D03*
X92800000Y-92750000D03*
%TD*%
%TO.C,BT2*%
X120230000Y-78050000D03*
X127850000Y-78050000D03*
X85180000Y-78050000D03*
X92800000Y-78050000D03*
%TD*%
M02*
