M48
; DRILL file {KiCad 8.0.1} date 2024-05-18T23:10:02+0200
; FORMAT={-:-/ absolute / metric / decimal}
; #@! TF.CreationDate,2024-05-18T23:10:02+02:00
; #@! TF.GenerationSoftware,Kicad,Pcbnew,8.0.1
; #@! TF.FileFunction,Plated,1,2,PTH
FMAT,2
METRIC
; #@! TA.AperFunction,Plated,PTH,ComponentDrill
T1C0.381
; #@! TA.AperFunction,Plated,PTH,ViaDrill
T2C0.400
; #@! TA.AperFunction,Plated,PTH,ComponentDrill
T3C0.600
; #@! TA.AperFunction,Plated,PTH,ComponentDrill
T4C0.762
; #@! TA.AperFunction,Plated,PTH,ComponentDrill
T5C1.780
%
G90
G05
T1
X78.55Y-121.75
X78.55Y-131.75
X78.55Y-141.75
X78.55Y-151.75
X78.55Y-161.75
X78.55Y-174.75
X78.55Y-184.75
X78.55Y-194.75
X78.55Y-204.75
X89.55Y-121.75
X89.55Y-131.75
X89.55Y-141.75
X89.55Y-151.75
X89.55Y-161.75
X93.55Y-174.75
X93.55Y-184.75
X93.55Y-194.75
X93.55Y-204.75
X100.55Y-121.75
X100.55Y-131.75
X100.55Y-141.75
X100.55Y-151.75
X100.55Y-161.75
X106.55Y-174.75
X106.55Y-184.75
X106.55Y-194.75
X106.55Y-204.75
X111.55Y-121.75
X111.55Y-131.75
X111.55Y-141.75
X111.55Y-151.75
X111.55Y-161.75
X119.55Y-174.75
X119.55Y-184.75
X119.55Y-194.75
X119.55Y-204.75
X122.55Y-121.75
X122.55Y-131.75
X122.55Y-141.75
X122.55Y-151.75
X122.55Y-161.75
X132.55Y-174.75
X132.55Y-184.75
X132.55Y-194.75
X132.55Y-204.75
X133.55Y-121.75
X133.55Y-131.75
X133.55Y-141.75
X133.55Y-151.75
X133.55Y-161.75
T2
X73.75Y-210.95
X74.0Y-100.1
X75.25Y-110.25
X75.75Y-85.35
X75.95Y-75.15
X75.95Y-95.25
X77.05Y-169.25
X77.75Y-84.15
X77.75Y-86.85
X78.439Y-67.731
X78.55Y-72.35
X79.25Y-103.0
X79.45Y-64.35
X80.85Y-71.45
X81.65Y-84.95
X81.65Y-137.75
X83.05Y-69.75
X83.45Y-118.65
X83.45Y-130.75
X83.55Y-122.75
X83.6Y-65.5
X83.85Y-145.85
X83.95Y-151.35
X83.95Y-154.35
X83.95Y-161.25
X83.95Y-164.15
X83.95Y-177.25
X83.95Y-182.75
X83.95Y-194.35
X83.95Y-204.15
X84.05Y-141.35
X84.35Y-72.85
X84.35Y-202.35
X84.55Y-132.75
X85.0Y-88.9
X86.05Y-190.55
X88.05Y-204.15
X88.15Y-194.35
X88.25Y-104.45
X88.25Y-177.35
X88.5Y-83.5
X88.65Y-96.55
X88.85Y-71.45
X91.35Y-65.75
X92.55Y-85.15
X92.85Y-137.85
X93.25Y-100.15
X93.25Y-118.75
X93.75Y-90.0
X94.45Y-150.65
X94.6Y-142.7
X95.05Y-164.45
X95.15Y-161.15
X95.6Y-152.7
X96.1Y-77.0
X96.165Y-69.536
X96.45Y-81.45
X96.45Y-93.85
X97.25Y-68.67
X97.55Y-87.15
X98.1Y-74.0
X98.15Y-109.75
X98.85Y-79.95
X99.05Y-194.25
X99.15Y-114.85
X99.35Y-82.75
X99.4Y-178.3
X99.6Y-88.25
X99.75Y-108.35
X99.95Y-174.35
X100.033Y-85.675
X100.35Y-199.55
X100.449Y-77.972
X100.548Y-73.844
X101.25Y-194.25
X101.45Y-76.15
X101.833Y-90.356
X102.436Y-92.56
X102.745Y-86.6
X102.85Y-73.95
X103.05Y-99.85
X103.409Y-93.849
X103.923Y-92.821
X104.15Y-73.95
X104.15Y-115.85
X104.35Y-104.25
X104.498Y-86.15
X104.55Y-137.95
X104.71Y-83.45
X104.73Y-88.969
X104.75Y-109.25
X104.75Y-148.65
X105.55Y-120.85
X105.65Y-131.15
X105.805Y-94.41
X106.55Y-84.95
X106.75Y-88.45
X106.75Y-115.35
X107.35Y-76.65
X107.83Y-68.62
X108.022Y-93.744
X109.1Y-65.75
X109.55Y-90.35
X109.85Y-81.25
X109.95Y-94.15
X110.65Y-95.25
X110.821Y-82.84
X110.95Y-93.05
X111.083Y-89.017
X111.45Y-70.25
X111.75Y-175.75
X111.85Y-108.35
X111.85Y-194.35
X112.05Y-75.85
X112.258Y-83.655
X112.277Y-89.116
X112.717Y-85.9
X112.95Y-111.75
X113.05Y-109.95
X113.1Y-87.5
X113.15Y-209.55
X113.25Y-93.05
X113.25Y-94.35
X113.25Y-198.45
X113.55Y-185.75
X113.589Y-89.239
X113.6Y-86.5
X114.05Y-194.35
X114.1Y-65.75
X114.1Y-93.75
X114.15Y-81.05
X114.45Y-101.75
X114.65Y-69.65
X115.85Y-89.75
X116.05Y-86.25
X116.05Y-104.55
X116.35Y-80.85
X116.55Y-110.75
X117.05Y-121.25
X117.05Y-134.25
X117.05Y-161.55
X117.05Y-164.15
X117.15Y-131.05
X117.35Y-71.35
X117.45Y-83.45
X117.45Y-100.55
X117.55Y-74.35
X118.25Y-104.75
X119.1Y-114.0
X119.45Y-101.95
X120.35Y-87.5
X120.6Y-101.9
X121.55Y-103.55
X122.35Y-109.75
X123.05Y-98.15
X123.175Y-99.675
X123.65Y-101.15
X123.95Y-117.45
X124.65Y-204.25
X124.95Y-195.75
X125.05Y-86.35
X125.65Y-89.35
X125.95Y-205.75
X126.15Y-114.65
X126.95Y-97.95
X127.25Y-103.95
X127.25Y-194.15
X127.35Y-204.15
X127.55Y-162.75
X127.85Y-72.85
X127.95Y-165.15
X128.95Y-129.75
X129.15Y-118.75
X129.3Y-126.1
X129.6Y-85.75
X129.85Y-88.55
X129.85Y-156.85
X130.05Y-81.85
X131.45Y-77.15
X132.35Y-94.85
X132.35Y-100.35
X133.85Y-106.85
X134.75Y-169.25
X136.75Y-68.25
X136.85Y-94.85
X136.85Y-100.35
X137.25Y-148.05
X138.5Y-190.1
X138.55Y-210.25
X138.9Y-110.1
T4
X82.37Y-64.35
X82.37Y-112.61
X84.91Y-64.35
X84.91Y-112.61
X87.45Y-64.35
X87.45Y-112.61
X89.99Y-64.35
X92.53Y-64.35
X95.07Y-64.35
X97.61Y-64.35
X100.15Y-64.35
X102.69Y-64.35
X105.23Y-64.35
X107.77Y-64.35
X110.31Y-64.35
X112.85Y-64.35
X115.39Y-64.35
X117.93Y-64.35
X120.47Y-64.35
X123.01Y-64.35
X125.55Y-64.35
X125.55Y-112.61
X128.09Y-64.35
X128.09Y-112.61
X130.63Y-64.35
X130.63Y-112.61
T5
X85.18Y-78.05
X85.18Y-92.75
X92.8Y-78.05
X92.8Y-92.75
X120.23Y-78.05
X120.23Y-92.75
X127.85Y-78.05
X127.85Y-92.75
T3
X133.985Y-80.62G85X135.085Y-80.62
G05
X133.985Y-89.26G85X135.085Y-89.26
G05
X138.315Y-80.62G85X139.115Y-80.62
G05
X138.315Y-89.26G85X139.115Y-89.26
G05
M30
