%TF.GenerationSoftware,KiCad,Pcbnew,8.0.1*%
%TF.CreationDate,2024-05-18T23:09:03+02:00*%
%TF.ProjectId,DM50,444d3530-2e6b-4696-9361-645f70636258,rev?*%
%TF.SameCoordinates,Original*%
%TF.FileFunction,Profile,NP*%
%FSLAX46Y46*%
G04 Gerber Fmt 4.6, Leading zero omitted, Abs format (unit mm)*
G04 Created by KiCad (PCBNEW 8.0.1) date 2024-05-18 23:09:03*
%MOMM*%
%LPD*%
G01*
G04 APERTURE LIST*
%TA.AperFunction,Profile*%
%ADD10C,0.150000*%
%TD*%
%TA.AperFunction,Profile*%
%ADD11C,0.100000*%
%TD*%
%TA.AperFunction,Profile*%
%ADD12C,0.050000*%
%TD*%
G04 APERTURE END LIST*
D10*
X139600000Y-170250000D02*
G75*
G02*
X139600000Y-168250000I0J1000000D01*
G01*
X74350000Y-64750000D02*
X74350000Y-62850000D01*
X76350000Y-64750000D02*
G75*
G02*
X74350000Y-64750000I-1000000J0D01*
G01*
X71350000Y-202100000D02*
X71350000Y-211250000D01*
X76350000Y-64750000D02*
X76350000Y-62850000D01*
X136350000Y-64750000D02*
X136350000Y-62850000D01*
X85600000Y-212750000D02*
X72850000Y-212750000D01*
X139600000Y-115350000D02*
X141350000Y-115350000D01*
X72850000Y-212750000D02*
G75*
G02*
X71350000Y-211250000I0J1500000D01*
G01*
X73100000Y-168250000D02*
X71350000Y-168250000D01*
X72850000Y-62850000D02*
X74350000Y-62850000D01*
D11*
X85150000Y-137750000D02*
G75*
G02*
X83150000Y-137750000I-1000000J0D01*
G01*
X83150000Y-137750000D02*
G75*
G02*
X85150000Y-137750000I1000000J0D01*
G01*
D10*
X125100000Y-210750000D02*
G75*
G02*
X127100000Y-210750000I1000000J0D01*
G01*
X71350000Y-115350000D02*
X71350000Y-64350000D01*
X71350000Y-170250000D02*
X71350000Y-202100000D01*
X139600000Y-170250000D02*
X141350000Y-170250000D01*
X138350000Y-62850000D02*
X139850000Y-62850000D01*
X141350000Y-170250000D02*
X141350000Y-202100000D01*
X127100000Y-210750000D02*
X127100000Y-212750000D01*
D11*
X86950000Y-180750000D02*
G75*
G02*
X84950000Y-180750000I-1000000J0D01*
G01*
X84950000Y-180750000D02*
G75*
G02*
X86950000Y-180750000I1000000J0D01*
G01*
D10*
X73100000Y-117350000D02*
X71350000Y-117350000D01*
X71350000Y-64350000D02*
G75*
G02*
X72850000Y-62850000I1500000J0D01*
G01*
X139600000Y-117350000D02*
G75*
G02*
X139600000Y-115350000I0J1000000D01*
G01*
X76350000Y-62850000D02*
X136350000Y-62850000D01*
X139600000Y-168250000D02*
X141350000Y-168250000D01*
X73100000Y-115350000D02*
G75*
G02*
X73100000Y-117350000I0J-1000000D01*
G01*
X73100000Y-168250000D02*
G75*
G02*
X73100000Y-170250000I0J-1000000D01*
G01*
X141350000Y-211250000D02*
G75*
G02*
X139850000Y-212750000I-1500000J0D01*
G01*
X141350000Y-202100000D02*
X141350000Y-211250000D01*
X87600000Y-210750000D02*
X87600000Y-212750000D01*
D11*
X114150000Y-200750000D02*
G75*
G02*
X112150000Y-200750000I-1000000J0D01*
G01*
X112150000Y-200750000D02*
G75*
G02*
X114150000Y-200750000I1000000J0D01*
G01*
D10*
X73100000Y-115350000D02*
X71350000Y-115350000D01*
X139850000Y-212750000D02*
X127100000Y-212750000D01*
X125100000Y-212750000D02*
X87600000Y-212750000D01*
D11*
X117950000Y-137750000D02*
G75*
G02*
X115950000Y-137750000I-1000000J0D01*
G01*
X115950000Y-137750000D02*
G75*
G02*
X117950000Y-137750000I1000000J0D01*
G01*
D10*
X141350000Y-64350000D02*
X141350000Y-115350000D01*
X138350000Y-64750000D02*
G75*
G02*
X136350000Y-64750000I-1000000J0D01*
G01*
D12*
X84700000Y-103750000D02*
G75*
G02*
X82300000Y-103750000I-1200000J0D01*
G01*
X82300000Y-103750000D02*
G75*
G02*
X84700000Y-103750000I1200000J0D01*
G01*
D10*
X85600000Y-210750000D02*
G75*
G02*
X87600000Y-210750000I1000000J0D01*
G01*
X85600000Y-210750000D02*
X85600000Y-212750000D01*
X73100000Y-170250000D02*
X71350000Y-170250000D01*
X141350000Y-117350000D02*
X141350000Y-168250000D01*
X139600000Y-117350000D02*
X141350000Y-117350000D01*
X125100000Y-210750000D02*
X125100000Y-212750000D01*
X138350000Y-64750000D02*
X138350000Y-62850000D01*
X71350000Y-117350000D02*
X71350000Y-168250000D01*
X139850000Y-62850000D02*
G75*
G02*
X141350000Y-64350000I0J-1500000D01*
G01*
M02*
