%TF.GenerationSoftware,KiCad,Pcbnew,8.0.1*%
%TF.CreationDate,2024-04-23T17:34:02+02:00*%
%TF.ProjectId,DM50,444d3530-2e6b-4696-9361-645f70636258,rev?*%
%TF.SameCoordinates,Original*%
%TF.FileFunction,Copper,L2,Bot*%
%TF.FilePolarity,Positive*%
%FSLAX46Y46*%
G04 Gerber Fmt 4.6, Leading zero omitted, Abs format (unit mm)*
G04 Created by KiCad (PCBNEW 8.0.1) date 2024-04-23 17:34:02*
%MOMM*%
%LPD*%
G01*
G04 APERTURE LIST*
G04 Aperture macros list*
%AMRoundRect*
0 Rectangle with rounded corners*
0 $1 Rounding radius*
0 $2 $3 $4 $5 $6 $7 $8 $9 X,Y pos of 4 corners*
0 Add a 4 corners polygon primitive as box body*
4,1,4,$2,$3,$4,$5,$6,$7,$8,$9,$2,$3,0*
0 Add four circle primitives for the rounded corners*
1,1,$1+$1,$2,$3*
1,1,$1+$1,$4,$5*
1,1,$1+$1,$6,$7*
1,1,$1+$1,$8,$9*
0 Add four rect primitives between the rounded corners*
20,1,$1+$1,$2,$3,$4,$5,0*
20,1,$1+$1,$4,$5,$6,$7,0*
20,1,$1+$1,$6,$7,$8,$9,0*
20,1,$1+$1,$8,$9,$2,$3,0*%
%AMFreePoly0*
4,1,39,-0.648508,1.451192,-0.414662,1.370913,-0.197219,1.253238,-0.002109,1.101379,0.165343,0.919476,0.300572,0.712493,0.399888,0.486075,0.460583,0.246398,0.481000,0.000000,0.460583,-0.246398,0.399888,-0.486075,0.300572,-0.712493,0.165343,-0.919476,-0.002109,-1.101379,-0.197219,-1.253238,-0.414662,-1.370913,-0.648508,-1.451192,-0.892379,-1.491887,-1.139621,-1.491887,-1.383492,-1.451192,
-1.617338,-1.370913,-1.834781,-1.253238,-2.029891,-1.101379,-2.197343,-0.919476,-2.332572,-0.712493,-2.431888,-0.486075,-2.492583,-0.246398,-2.513000,0.000000,-2.492583,0.246398,-2.431888,0.486075,-2.332572,0.712493,-2.197343,0.919476,-2.029891,1.101379,-1.834781,1.253238,-1.617338,1.370913,-1.383492,1.451192,-1.139621,1.491887,-0.892379,1.491887,-0.648508,1.451192,-0.648508,1.451192,
$1*%
G04 Aperture macros list end*
%ADD10C,0.150000*%
%TA.AperFunction,NonConductor*%
%ADD11C,0.150000*%
%TD*%
%TA.AperFunction,ComponentPad*%
%ADD12FreePoly0,0.000000*%
%TD*%
%TA.AperFunction,ComponentPad*%
%ADD13O,2.100000X1.000000*%
%TD*%
%TA.AperFunction,ComponentPad*%
%ADD14O,1.800000X1.000000*%
%TD*%
%TA.AperFunction,ComponentPad*%
%ADD15R,1.524000X1.524000*%
%TD*%
%TA.AperFunction,ComponentPad*%
%ADD16C,1.524000*%
%TD*%
%TA.AperFunction,ComponentPad*%
%ADD17RoundRect,0.250000X1.750000X-2.250000X1.750000X2.250000X-1.750000X2.250000X-1.750000X-2.250000X0*%
%TD*%
%TA.AperFunction,SMDPad,CuDef*%
%ADD18R,2.032000X2.032000*%
%TD*%
%TA.AperFunction,SMDPad,CuDef*%
%ADD19C,2.032000*%
%TD*%
%TA.AperFunction,SMDPad,CuDef*%
%ADD20R,1.000000X1.700000*%
%TD*%
%TA.AperFunction,ViaPad*%
%ADD21C,0.800000*%
%TD*%
%TA.AperFunction,Conductor*%
%ADD22C,0.250000*%
%TD*%
G04 APERTURE END LIST*
D10*
D11*
X90233334Y-167859875D02*
X90233334Y-166859875D01*
X90233334Y-166859875D02*
X89995239Y-166859875D01*
X89995239Y-166859875D02*
X89852382Y-166907494D01*
X89852382Y-166907494D02*
X89757144Y-167002732D01*
X89757144Y-167002732D02*
X89709525Y-167097970D01*
X89709525Y-167097970D02*
X89661906Y-167288446D01*
X89661906Y-167288446D02*
X89661906Y-167431303D01*
X89661906Y-167431303D02*
X89709525Y-167621779D01*
X89709525Y-167621779D02*
X89757144Y-167717017D01*
X89757144Y-167717017D02*
X89852382Y-167812256D01*
X89852382Y-167812256D02*
X89995239Y-167859875D01*
X89995239Y-167859875D02*
X90233334Y-167859875D01*
X89233334Y-167859875D02*
X89233334Y-166859875D01*
X89233334Y-166859875D02*
X88900001Y-167574160D01*
X88900001Y-167574160D02*
X88566668Y-166859875D01*
X88566668Y-166859875D02*
X88566668Y-167859875D01*
X87614287Y-166859875D02*
X88090477Y-166859875D01*
X88090477Y-166859875D02*
X88138096Y-167336065D01*
X88138096Y-167336065D02*
X88090477Y-167288446D01*
X88090477Y-167288446D02*
X87995239Y-167240827D01*
X87995239Y-167240827D02*
X87757144Y-167240827D01*
X87757144Y-167240827D02*
X87661906Y-167288446D01*
X87661906Y-167288446D02*
X87614287Y-167336065D01*
X87614287Y-167336065D02*
X87566668Y-167431303D01*
X87566668Y-167431303D02*
X87566668Y-167669398D01*
X87566668Y-167669398D02*
X87614287Y-167764636D01*
X87614287Y-167764636D02*
X87661906Y-167812256D01*
X87661906Y-167812256D02*
X87757144Y-167859875D01*
X87757144Y-167859875D02*
X87995239Y-167859875D01*
X87995239Y-167859875D02*
X88090477Y-167812256D01*
X88090477Y-167812256D02*
X88138096Y-167764636D01*
X86947620Y-166859875D02*
X86852382Y-166859875D01*
X86852382Y-166859875D02*
X86757144Y-166907494D01*
X86757144Y-166907494D02*
X86709525Y-166955113D01*
X86709525Y-166955113D02*
X86661906Y-167050351D01*
X86661906Y-167050351D02*
X86614287Y-167240827D01*
X86614287Y-167240827D02*
X86614287Y-167478922D01*
X86614287Y-167478922D02*
X86661906Y-167669398D01*
X86661906Y-167669398D02*
X86709525Y-167764636D01*
X86709525Y-167764636D02*
X86757144Y-167812256D01*
X86757144Y-167812256D02*
X86852382Y-167859875D01*
X86852382Y-167859875D02*
X86947620Y-167859875D01*
X86947620Y-167859875D02*
X87042858Y-167812256D01*
X87042858Y-167812256D02*
X87090477Y-167764636D01*
X87090477Y-167764636D02*
X87138096Y-167669398D01*
X87138096Y-167669398D02*
X87185715Y-167478922D01*
X87185715Y-167478922D02*
X87185715Y-167240827D01*
X87185715Y-167240827D02*
X87138096Y-167050351D01*
X87138096Y-167050351D02*
X87090477Y-166955113D01*
X87090477Y-166955113D02*
X87042858Y-166907494D01*
X87042858Y-166907494D02*
X86947620Y-166859875D01*
X84995239Y-167812256D02*
X85090477Y-167859875D01*
X85090477Y-167859875D02*
X85280953Y-167859875D01*
X85280953Y-167859875D02*
X85376191Y-167812256D01*
X85376191Y-167812256D02*
X85423810Y-167764636D01*
X85423810Y-167764636D02*
X85471429Y-167669398D01*
X85471429Y-167669398D02*
X85471429Y-167383684D01*
X85471429Y-167383684D02*
X85423810Y-167288446D01*
X85423810Y-167288446D02*
X85376191Y-167240827D01*
X85376191Y-167240827D02*
X85280953Y-167193208D01*
X85280953Y-167193208D02*
X85090477Y-167193208D01*
X85090477Y-167193208D02*
X84995239Y-167240827D01*
X84138096Y-167859875D02*
X84138096Y-167336065D01*
X84138096Y-167336065D02*
X84185715Y-167240827D01*
X84185715Y-167240827D02*
X84280953Y-167193208D01*
X84280953Y-167193208D02*
X84471429Y-167193208D01*
X84471429Y-167193208D02*
X84566667Y-167240827D01*
X84138096Y-167812256D02*
X84233334Y-167859875D01*
X84233334Y-167859875D02*
X84471429Y-167859875D01*
X84471429Y-167859875D02*
X84566667Y-167812256D01*
X84566667Y-167812256D02*
X84614286Y-167717017D01*
X84614286Y-167717017D02*
X84614286Y-167621779D01*
X84614286Y-167621779D02*
X84566667Y-167526541D01*
X84566667Y-167526541D02*
X84471429Y-167478922D01*
X84471429Y-167478922D02*
X84233334Y-167478922D01*
X84233334Y-167478922D02*
X84138096Y-167431303D01*
X83519048Y-167859875D02*
X83614286Y-167812256D01*
X83614286Y-167812256D02*
X83661905Y-167717017D01*
X83661905Y-167717017D02*
X83661905Y-166859875D01*
X82709524Y-167812256D02*
X82804762Y-167859875D01*
X82804762Y-167859875D02*
X82995238Y-167859875D01*
X82995238Y-167859875D02*
X83090476Y-167812256D01*
X83090476Y-167812256D02*
X83138095Y-167764636D01*
X83138095Y-167764636D02*
X83185714Y-167669398D01*
X83185714Y-167669398D02*
X83185714Y-167383684D01*
X83185714Y-167383684D02*
X83138095Y-167288446D01*
X83138095Y-167288446D02*
X83090476Y-167240827D01*
X83090476Y-167240827D02*
X82995238Y-167193208D01*
X82995238Y-167193208D02*
X82804762Y-167193208D01*
X82804762Y-167193208D02*
X82709524Y-167240827D01*
X81852381Y-167193208D02*
X81852381Y-167859875D01*
X82280952Y-167193208D02*
X82280952Y-167717017D01*
X82280952Y-167717017D02*
X82233333Y-167812256D01*
X82233333Y-167812256D02*
X82138095Y-167859875D01*
X82138095Y-167859875D02*
X81995238Y-167859875D01*
X81995238Y-167859875D02*
X81900000Y-167812256D01*
X81900000Y-167812256D02*
X81852381Y-167764636D01*
X81233333Y-167859875D02*
X81328571Y-167812256D01*
X81328571Y-167812256D02*
X81376190Y-167717017D01*
X81376190Y-167717017D02*
X81376190Y-166859875D01*
X80423809Y-167859875D02*
X80423809Y-167336065D01*
X80423809Y-167336065D02*
X80471428Y-167240827D01*
X80471428Y-167240827D02*
X80566666Y-167193208D01*
X80566666Y-167193208D02*
X80757142Y-167193208D01*
X80757142Y-167193208D02*
X80852380Y-167240827D01*
X80423809Y-167812256D02*
X80519047Y-167859875D01*
X80519047Y-167859875D02*
X80757142Y-167859875D01*
X80757142Y-167859875D02*
X80852380Y-167812256D01*
X80852380Y-167812256D02*
X80899999Y-167717017D01*
X80899999Y-167717017D02*
X80899999Y-167621779D01*
X80899999Y-167621779D02*
X80852380Y-167526541D01*
X80852380Y-167526541D02*
X80757142Y-167478922D01*
X80757142Y-167478922D02*
X80519047Y-167478922D01*
X80519047Y-167478922D02*
X80423809Y-167431303D01*
X80090475Y-167193208D02*
X79709523Y-167193208D01*
X79947618Y-166859875D02*
X79947618Y-167717017D01*
X79947618Y-167717017D02*
X79899999Y-167812256D01*
X79899999Y-167812256D02*
X79804761Y-167859875D01*
X79804761Y-167859875D02*
X79709523Y-167859875D01*
X79233332Y-167859875D02*
X79328570Y-167812256D01*
X79328570Y-167812256D02*
X79376189Y-167764636D01*
X79376189Y-167764636D02*
X79423808Y-167669398D01*
X79423808Y-167669398D02*
X79423808Y-167383684D01*
X79423808Y-167383684D02*
X79376189Y-167288446D01*
X79376189Y-167288446D02*
X79328570Y-167240827D01*
X79328570Y-167240827D02*
X79233332Y-167193208D01*
X79233332Y-167193208D02*
X79090475Y-167193208D01*
X79090475Y-167193208D02*
X78995237Y-167240827D01*
X78995237Y-167240827D02*
X78947618Y-167288446D01*
X78947618Y-167288446D02*
X78899999Y-167383684D01*
X78899999Y-167383684D02*
X78899999Y-167669398D01*
X78899999Y-167669398D02*
X78947618Y-167764636D01*
X78947618Y-167764636D02*
X78995237Y-167812256D01*
X78995237Y-167812256D02*
X79090475Y-167859875D01*
X79090475Y-167859875D02*
X79233332Y-167859875D01*
X78471427Y-167859875D02*
X78471427Y-167193208D01*
X78471427Y-167383684D02*
X78423808Y-167288446D01*
X78423808Y-167288446D02*
X78376189Y-167240827D01*
X78376189Y-167240827D02*
X78280951Y-167193208D01*
X78280951Y-167193208D02*
X78185713Y-167193208D01*
X77090474Y-167859875D02*
X77090474Y-167193208D01*
X77090474Y-167383684D02*
X77042855Y-167288446D01*
X77042855Y-167288446D02*
X76995236Y-167240827D01*
X76995236Y-167240827D02*
X76899998Y-167193208D01*
X76899998Y-167193208D02*
X76804760Y-167193208D01*
X75947617Y-167859875D02*
X76519045Y-167859875D01*
X76233331Y-167859875D02*
X76233331Y-166859875D01*
X76233331Y-166859875D02*
X76328569Y-167002732D01*
X76328569Y-167002732D02*
X76423807Y-167097970D01*
X76423807Y-167097970D02*
X76519045Y-167145589D01*
X75519045Y-167764636D02*
X75471426Y-167812256D01*
X75471426Y-167812256D02*
X75519045Y-167859875D01*
X75519045Y-167859875D02*
X75566664Y-167812256D01*
X75566664Y-167812256D02*
X75519045Y-167764636D01*
X75519045Y-167764636D02*
X75519045Y-167859875D01*
X74852379Y-166859875D02*
X74757141Y-166859875D01*
X74757141Y-166859875D02*
X74661903Y-166907494D01*
X74661903Y-166907494D02*
X74614284Y-166955113D01*
X74614284Y-166955113D02*
X74566665Y-167050351D01*
X74566665Y-167050351D02*
X74519046Y-167240827D01*
X74519046Y-167240827D02*
X74519046Y-167478922D01*
X74519046Y-167478922D02*
X74566665Y-167669398D01*
X74566665Y-167669398D02*
X74614284Y-167764636D01*
X74614284Y-167764636D02*
X74661903Y-167812256D01*
X74661903Y-167812256D02*
X74757141Y-167859875D01*
X74757141Y-167859875D02*
X74852379Y-167859875D01*
X74852379Y-167859875D02*
X74947617Y-167812256D01*
X74947617Y-167812256D02*
X74995236Y-167764636D01*
X74995236Y-167764636D02*
X75042855Y-167669398D01*
X75042855Y-167669398D02*
X75090474Y-167478922D01*
X75090474Y-167478922D02*
X75090474Y-167240827D01*
X75090474Y-167240827D02*
X75042855Y-167050351D01*
X75042855Y-167050351D02*
X74995236Y-166955113D01*
X74995236Y-166955113D02*
X74947617Y-166907494D01*
X74947617Y-166907494D02*
X74852379Y-166859875D01*
X100923810Y-169469819D02*
X100923810Y-168469819D01*
X100495239Y-169469819D02*
X100495239Y-168946009D01*
X100495239Y-168946009D02*
X100542858Y-168850771D01*
X100542858Y-168850771D02*
X100638096Y-168803152D01*
X100638096Y-168803152D02*
X100780953Y-168803152D01*
X100780953Y-168803152D02*
X100876191Y-168850771D01*
X100876191Y-168850771D02*
X100923810Y-168898390D01*
X100161905Y-168803152D02*
X99780953Y-168803152D01*
X100019048Y-168469819D02*
X100019048Y-169326961D01*
X100019048Y-169326961D02*
X99971429Y-169422200D01*
X99971429Y-169422200D02*
X99876191Y-169469819D01*
X99876191Y-169469819D02*
X99780953Y-169469819D01*
X99590476Y-168803152D02*
X99209524Y-168803152D01*
X99447619Y-168469819D02*
X99447619Y-169326961D01*
X99447619Y-169326961D02*
X99400000Y-169422200D01*
X99400000Y-169422200D02*
X99304762Y-169469819D01*
X99304762Y-169469819D02*
X99209524Y-169469819D01*
X98876190Y-168803152D02*
X98876190Y-169803152D01*
X98876190Y-168850771D02*
X98780952Y-168803152D01*
X98780952Y-168803152D02*
X98590476Y-168803152D01*
X98590476Y-168803152D02*
X98495238Y-168850771D01*
X98495238Y-168850771D02*
X98447619Y-168898390D01*
X98447619Y-168898390D02*
X98400000Y-168993628D01*
X98400000Y-168993628D02*
X98400000Y-169279342D01*
X98400000Y-169279342D02*
X98447619Y-169374580D01*
X98447619Y-169374580D02*
X98495238Y-169422200D01*
X98495238Y-169422200D02*
X98590476Y-169469819D01*
X98590476Y-169469819D02*
X98780952Y-169469819D01*
X98780952Y-169469819D02*
X98876190Y-169422200D01*
X98019047Y-169422200D02*
X97923809Y-169469819D01*
X97923809Y-169469819D02*
X97733333Y-169469819D01*
X97733333Y-169469819D02*
X97638095Y-169422200D01*
X97638095Y-169422200D02*
X97590476Y-169326961D01*
X97590476Y-169326961D02*
X97590476Y-169279342D01*
X97590476Y-169279342D02*
X97638095Y-169184104D01*
X97638095Y-169184104D02*
X97733333Y-169136485D01*
X97733333Y-169136485D02*
X97876190Y-169136485D01*
X97876190Y-169136485D02*
X97971428Y-169088866D01*
X97971428Y-169088866D02*
X98019047Y-168993628D01*
X98019047Y-168993628D02*
X98019047Y-168946009D01*
X98019047Y-168946009D02*
X97971428Y-168850771D01*
X97971428Y-168850771D02*
X97876190Y-168803152D01*
X97876190Y-168803152D02*
X97733333Y-168803152D01*
X97733333Y-168803152D02*
X97638095Y-168850771D01*
X97161904Y-169374580D02*
X97114285Y-169422200D01*
X97114285Y-169422200D02*
X97161904Y-169469819D01*
X97161904Y-169469819D02*
X97209523Y-169422200D01*
X97209523Y-169422200D02*
X97161904Y-169374580D01*
X97161904Y-169374580D02*
X97161904Y-169469819D01*
X97161904Y-168850771D02*
X97114285Y-168898390D01*
X97114285Y-168898390D02*
X97161904Y-168946009D01*
X97161904Y-168946009D02*
X97209523Y-168898390D01*
X97209523Y-168898390D02*
X97161904Y-168850771D01*
X97161904Y-168850771D02*
X97161904Y-168946009D01*
X95971429Y-168422200D02*
X96828571Y-169707914D01*
X94923810Y-168422200D02*
X95780952Y-169707914D01*
X94161905Y-168803152D02*
X94161905Y-169612676D01*
X94161905Y-169612676D02*
X94209524Y-169707914D01*
X94209524Y-169707914D02*
X94257143Y-169755533D01*
X94257143Y-169755533D02*
X94352381Y-169803152D01*
X94352381Y-169803152D02*
X94495238Y-169803152D01*
X94495238Y-169803152D02*
X94590476Y-169755533D01*
X94161905Y-169422200D02*
X94257143Y-169469819D01*
X94257143Y-169469819D02*
X94447619Y-169469819D01*
X94447619Y-169469819D02*
X94542857Y-169422200D01*
X94542857Y-169422200D02*
X94590476Y-169374580D01*
X94590476Y-169374580D02*
X94638095Y-169279342D01*
X94638095Y-169279342D02*
X94638095Y-168993628D01*
X94638095Y-168993628D02*
X94590476Y-168898390D01*
X94590476Y-168898390D02*
X94542857Y-168850771D01*
X94542857Y-168850771D02*
X94447619Y-168803152D01*
X94447619Y-168803152D02*
X94257143Y-168803152D01*
X94257143Y-168803152D02*
X94161905Y-168850771D01*
X93685714Y-169469819D02*
X93685714Y-168803152D01*
X93685714Y-168469819D02*
X93733333Y-168517438D01*
X93733333Y-168517438D02*
X93685714Y-168565057D01*
X93685714Y-168565057D02*
X93638095Y-168517438D01*
X93638095Y-168517438D02*
X93685714Y-168469819D01*
X93685714Y-168469819D02*
X93685714Y-168565057D01*
X93352381Y-168803152D02*
X92971429Y-168803152D01*
X93209524Y-168469819D02*
X93209524Y-169326961D01*
X93209524Y-169326961D02*
X93161905Y-169422200D01*
X93161905Y-169422200D02*
X93066667Y-169469819D01*
X93066667Y-169469819D02*
X92971429Y-169469819D01*
X92638095Y-169469819D02*
X92638095Y-168469819D01*
X92209524Y-169469819D02*
X92209524Y-168946009D01*
X92209524Y-168946009D02*
X92257143Y-168850771D01*
X92257143Y-168850771D02*
X92352381Y-168803152D01*
X92352381Y-168803152D02*
X92495238Y-168803152D01*
X92495238Y-168803152D02*
X92590476Y-168850771D01*
X92590476Y-168850771D02*
X92638095Y-168898390D01*
X91304762Y-168803152D02*
X91304762Y-169469819D01*
X91733333Y-168803152D02*
X91733333Y-169326961D01*
X91733333Y-169326961D02*
X91685714Y-169422200D01*
X91685714Y-169422200D02*
X91590476Y-169469819D01*
X91590476Y-169469819D02*
X91447619Y-169469819D01*
X91447619Y-169469819D02*
X91352381Y-169422200D01*
X91352381Y-169422200D02*
X91304762Y-169374580D01*
X90828571Y-169469819D02*
X90828571Y-168469819D01*
X90828571Y-168850771D02*
X90733333Y-168803152D01*
X90733333Y-168803152D02*
X90542857Y-168803152D01*
X90542857Y-168803152D02*
X90447619Y-168850771D01*
X90447619Y-168850771D02*
X90400000Y-168898390D01*
X90400000Y-168898390D02*
X90352381Y-168993628D01*
X90352381Y-168993628D02*
X90352381Y-169279342D01*
X90352381Y-169279342D02*
X90400000Y-169374580D01*
X90400000Y-169374580D02*
X90447619Y-169422200D01*
X90447619Y-169422200D02*
X90542857Y-169469819D01*
X90542857Y-169469819D02*
X90733333Y-169469819D01*
X90733333Y-169469819D02*
X90828571Y-169422200D01*
X89923809Y-169374580D02*
X89876190Y-169422200D01*
X89876190Y-169422200D02*
X89923809Y-169469819D01*
X89923809Y-169469819D02*
X89971428Y-169422200D01*
X89971428Y-169422200D02*
X89923809Y-169374580D01*
X89923809Y-169374580D02*
X89923809Y-169469819D01*
X89019048Y-169422200D02*
X89114286Y-169469819D01*
X89114286Y-169469819D02*
X89304762Y-169469819D01*
X89304762Y-169469819D02*
X89400000Y-169422200D01*
X89400000Y-169422200D02*
X89447619Y-169374580D01*
X89447619Y-169374580D02*
X89495238Y-169279342D01*
X89495238Y-169279342D02*
X89495238Y-168993628D01*
X89495238Y-168993628D02*
X89447619Y-168898390D01*
X89447619Y-168898390D02*
X89400000Y-168850771D01*
X89400000Y-168850771D02*
X89304762Y-168803152D01*
X89304762Y-168803152D02*
X89114286Y-168803152D01*
X89114286Y-168803152D02*
X89019048Y-168850771D01*
X88447619Y-169469819D02*
X88542857Y-169422200D01*
X88542857Y-169422200D02*
X88590476Y-169374580D01*
X88590476Y-169374580D02*
X88638095Y-169279342D01*
X88638095Y-169279342D02*
X88638095Y-168993628D01*
X88638095Y-168993628D02*
X88590476Y-168898390D01*
X88590476Y-168898390D02*
X88542857Y-168850771D01*
X88542857Y-168850771D02*
X88447619Y-168803152D01*
X88447619Y-168803152D02*
X88304762Y-168803152D01*
X88304762Y-168803152D02*
X88209524Y-168850771D01*
X88209524Y-168850771D02*
X88161905Y-168898390D01*
X88161905Y-168898390D02*
X88114286Y-168993628D01*
X88114286Y-168993628D02*
X88114286Y-169279342D01*
X88114286Y-169279342D02*
X88161905Y-169374580D01*
X88161905Y-169374580D02*
X88209524Y-169422200D01*
X88209524Y-169422200D02*
X88304762Y-169469819D01*
X88304762Y-169469819D02*
X88447619Y-169469819D01*
X87685714Y-169469819D02*
X87685714Y-168803152D01*
X87685714Y-168898390D02*
X87638095Y-168850771D01*
X87638095Y-168850771D02*
X87542857Y-168803152D01*
X87542857Y-168803152D02*
X87400000Y-168803152D01*
X87400000Y-168803152D02*
X87304762Y-168850771D01*
X87304762Y-168850771D02*
X87257143Y-168946009D01*
X87257143Y-168946009D02*
X87257143Y-169469819D01*
X87257143Y-168946009D02*
X87209524Y-168850771D01*
X87209524Y-168850771D02*
X87114286Y-168803152D01*
X87114286Y-168803152D02*
X86971429Y-168803152D01*
X86971429Y-168803152D02*
X86876190Y-168850771D01*
X86876190Y-168850771D02*
X86828571Y-168946009D01*
X86828571Y-168946009D02*
X86828571Y-169469819D01*
X85638096Y-168422200D02*
X86495238Y-169707914D01*
X85400000Y-169469819D02*
X84876191Y-168803152D01*
X85400000Y-168803152D02*
X84876191Y-169469819D01*
X84066667Y-169469819D02*
X84066667Y-168946009D01*
X84066667Y-168946009D02*
X84114286Y-168850771D01*
X84114286Y-168850771D02*
X84209524Y-168803152D01*
X84209524Y-168803152D02*
X84400000Y-168803152D01*
X84400000Y-168803152D02*
X84495238Y-168850771D01*
X84066667Y-169422200D02*
X84161905Y-169469819D01*
X84161905Y-169469819D02*
X84400000Y-169469819D01*
X84400000Y-169469819D02*
X84495238Y-169422200D01*
X84495238Y-169422200D02*
X84542857Y-169326961D01*
X84542857Y-169326961D02*
X84542857Y-169231723D01*
X84542857Y-169231723D02*
X84495238Y-169136485D01*
X84495238Y-169136485D02*
X84400000Y-169088866D01*
X84400000Y-169088866D02*
X84161905Y-169088866D01*
X84161905Y-169088866D02*
X84066667Y-169041247D01*
X83685714Y-168803152D02*
X83447619Y-169469819D01*
X83447619Y-169469819D02*
X83209524Y-168803152D01*
X82828571Y-169469819D02*
X82828571Y-168803152D01*
X82828571Y-168469819D02*
X82876190Y-168517438D01*
X82876190Y-168517438D02*
X82828571Y-168565057D01*
X82828571Y-168565057D02*
X82780952Y-168517438D01*
X82780952Y-168517438D02*
X82828571Y-168469819D01*
X82828571Y-168469819D02*
X82828571Y-168565057D01*
X81971429Y-169422200D02*
X82066667Y-169469819D01*
X82066667Y-169469819D02*
X82257143Y-169469819D01*
X82257143Y-169469819D02*
X82352381Y-169422200D01*
X82352381Y-169422200D02*
X82400000Y-169326961D01*
X82400000Y-169326961D02*
X82400000Y-168946009D01*
X82400000Y-168946009D02*
X82352381Y-168850771D01*
X82352381Y-168850771D02*
X82257143Y-168803152D01*
X82257143Y-168803152D02*
X82066667Y-168803152D01*
X82066667Y-168803152D02*
X81971429Y-168850771D01*
X81971429Y-168850771D02*
X81923810Y-168946009D01*
X81923810Y-168946009D02*
X81923810Y-169041247D01*
X81923810Y-169041247D02*
X82400000Y-169136485D01*
X81495238Y-169469819D02*
X81495238Y-168803152D01*
X81495238Y-168993628D02*
X81447619Y-168898390D01*
X81447619Y-168898390D02*
X81400000Y-168850771D01*
X81400000Y-168850771D02*
X81304762Y-168803152D01*
X81304762Y-168803152D02*
X81209524Y-168803152D01*
X80876190Y-169469819D02*
X80876190Y-168469819D01*
X80876190Y-168850771D02*
X80780952Y-168803152D01*
X80780952Y-168803152D02*
X80590476Y-168803152D01*
X80590476Y-168803152D02*
X80495238Y-168850771D01*
X80495238Y-168850771D02*
X80447619Y-168898390D01*
X80447619Y-168898390D02*
X80400000Y-168993628D01*
X80400000Y-168993628D02*
X80400000Y-169279342D01*
X80400000Y-169279342D02*
X80447619Y-169374580D01*
X80447619Y-169374580D02*
X80495238Y-169422200D01*
X80495238Y-169422200D02*
X80590476Y-169469819D01*
X80590476Y-169469819D02*
X80780952Y-169469819D01*
X80780952Y-169469819D02*
X80876190Y-169422200D01*
X79542857Y-169469819D02*
X79542857Y-168946009D01*
X79542857Y-168946009D02*
X79590476Y-168850771D01*
X79590476Y-168850771D02*
X79685714Y-168803152D01*
X79685714Y-168803152D02*
X79876190Y-168803152D01*
X79876190Y-168803152D02*
X79971428Y-168850771D01*
X79542857Y-169422200D02*
X79638095Y-169469819D01*
X79638095Y-169469819D02*
X79876190Y-169469819D01*
X79876190Y-169469819D02*
X79971428Y-169422200D01*
X79971428Y-169422200D02*
X80019047Y-169326961D01*
X80019047Y-169326961D02*
X80019047Y-169231723D01*
X80019047Y-169231723D02*
X79971428Y-169136485D01*
X79971428Y-169136485D02*
X79876190Y-169088866D01*
X79876190Y-169088866D02*
X79638095Y-169088866D01*
X79638095Y-169088866D02*
X79542857Y-169041247D01*
X79114285Y-169422200D02*
X79019047Y-169469819D01*
X79019047Y-169469819D02*
X78828571Y-169469819D01*
X78828571Y-169469819D02*
X78733333Y-169422200D01*
X78733333Y-169422200D02*
X78685714Y-169326961D01*
X78685714Y-169326961D02*
X78685714Y-169279342D01*
X78685714Y-169279342D02*
X78733333Y-169184104D01*
X78733333Y-169184104D02*
X78828571Y-169136485D01*
X78828571Y-169136485D02*
X78971428Y-169136485D01*
X78971428Y-169136485D02*
X79066666Y-169088866D01*
X79066666Y-169088866D02*
X79114285Y-168993628D01*
X79114285Y-168993628D02*
X79114285Y-168946009D01*
X79114285Y-168946009D02*
X79066666Y-168850771D01*
X79066666Y-168850771D02*
X78971428Y-168803152D01*
X78971428Y-168803152D02*
X78828571Y-168803152D01*
X78828571Y-168803152D02*
X78733333Y-168850771D01*
X77828571Y-169422200D02*
X77923809Y-169469819D01*
X77923809Y-169469819D02*
X78114285Y-169469819D01*
X78114285Y-169469819D02*
X78209523Y-169422200D01*
X78209523Y-169422200D02*
X78257142Y-169374580D01*
X78257142Y-169374580D02*
X78304761Y-169279342D01*
X78304761Y-169279342D02*
X78304761Y-168993628D01*
X78304761Y-168993628D02*
X78257142Y-168898390D01*
X78257142Y-168898390D02*
X78209523Y-168850771D01*
X78209523Y-168850771D02*
X78114285Y-168803152D01*
X78114285Y-168803152D02*
X77923809Y-168803152D01*
X77923809Y-168803152D02*
X77828571Y-168850771D01*
X76685714Y-168422200D02*
X77542856Y-169707914D01*
X75923809Y-169469819D02*
X75923809Y-168469819D01*
X75923809Y-169422200D02*
X76019047Y-169469819D01*
X76019047Y-169469819D02*
X76209523Y-169469819D01*
X76209523Y-169469819D02*
X76304761Y-169422200D01*
X76304761Y-169422200D02*
X76352380Y-169374580D01*
X76352380Y-169374580D02*
X76399999Y-169279342D01*
X76399999Y-169279342D02*
X76399999Y-168993628D01*
X76399999Y-168993628D02*
X76352380Y-168898390D01*
X76352380Y-168898390D02*
X76304761Y-168850771D01*
X76304761Y-168850771D02*
X76209523Y-168803152D01*
X76209523Y-168803152D02*
X76019047Y-168803152D01*
X76019047Y-168803152D02*
X75923809Y-168850771D01*
X75447618Y-169469819D02*
X75447618Y-168803152D01*
X75447618Y-168898390D02*
X75399999Y-168850771D01*
X75399999Y-168850771D02*
X75304761Y-168803152D01*
X75304761Y-168803152D02*
X75161904Y-168803152D01*
X75161904Y-168803152D02*
X75066666Y-168850771D01*
X75066666Y-168850771D02*
X75019047Y-168946009D01*
X75019047Y-168946009D02*
X75019047Y-169469819D01*
X75019047Y-168946009D02*
X74971428Y-168850771D01*
X74971428Y-168850771D02*
X74876190Y-168803152D01*
X74876190Y-168803152D02*
X74733333Y-168803152D01*
X74733333Y-168803152D02*
X74638094Y-168850771D01*
X74638094Y-168850771D02*
X74590475Y-168946009D01*
X74590475Y-168946009D02*
X74590475Y-169469819D01*
X73638095Y-168469819D02*
X74114285Y-168469819D01*
X74114285Y-168469819D02*
X74161904Y-168946009D01*
X74161904Y-168946009D02*
X74114285Y-168898390D01*
X74114285Y-168898390D02*
X74019047Y-168850771D01*
X74019047Y-168850771D02*
X73780952Y-168850771D01*
X73780952Y-168850771D02*
X73685714Y-168898390D01*
X73685714Y-168898390D02*
X73638095Y-168946009D01*
X73638095Y-168946009D02*
X73590476Y-169041247D01*
X73590476Y-169041247D02*
X73590476Y-169279342D01*
X73590476Y-169279342D02*
X73638095Y-169374580D01*
X73638095Y-169374580D02*
X73685714Y-169422200D01*
X73685714Y-169422200D02*
X73780952Y-169469819D01*
X73780952Y-169469819D02*
X74019047Y-169469819D01*
X74019047Y-169469819D02*
X74114285Y-169422200D01*
X74114285Y-169422200D02*
X74161904Y-169374580D01*
X72971428Y-168469819D02*
X72876190Y-168469819D01*
X72876190Y-168469819D02*
X72780952Y-168517438D01*
X72780952Y-168517438D02*
X72733333Y-168565057D01*
X72733333Y-168565057D02*
X72685714Y-168660295D01*
X72685714Y-168660295D02*
X72638095Y-168850771D01*
X72638095Y-168850771D02*
X72638095Y-169088866D01*
X72638095Y-169088866D02*
X72685714Y-169279342D01*
X72685714Y-169279342D02*
X72733333Y-169374580D01*
X72733333Y-169374580D02*
X72780952Y-169422200D01*
X72780952Y-169422200D02*
X72876190Y-169469819D01*
X72876190Y-169469819D02*
X72971428Y-169469819D01*
X72971428Y-169469819D02*
X73066666Y-169422200D01*
X73066666Y-169422200D02*
X73114285Y-169374580D01*
X73114285Y-169374580D02*
X73161904Y-169279342D01*
X73161904Y-169279342D02*
X73209523Y-169088866D01*
X73209523Y-169088866D02*
X73209523Y-168850771D01*
X73209523Y-168850771D02*
X73161904Y-168660295D01*
X73161904Y-168660295D02*
X73114285Y-168565057D01*
X73114285Y-168565057D02*
X73066666Y-168517438D01*
X73066666Y-168517438D02*
X72971428Y-168469819D01*
X72209523Y-169088866D02*
X71447619Y-169088866D01*
X70542857Y-169422200D02*
X70638095Y-169469819D01*
X70638095Y-169469819D02*
X70828571Y-169469819D01*
X70828571Y-169469819D02*
X70923809Y-169422200D01*
X70923809Y-169422200D02*
X70971428Y-169374580D01*
X70971428Y-169374580D02*
X71019047Y-169279342D01*
X71019047Y-169279342D02*
X71019047Y-168993628D01*
X71019047Y-168993628D02*
X70971428Y-168898390D01*
X70971428Y-168898390D02*
X70923809Y-168850771D01*
X70923809Y-168850771D02*
X70828571Y-168803152D01*
X70828571Y-168803152D02*
X70638095Y-168803152D01*
X70638095Y-168803152D02*
X70542857Y-168850771D01*
X69685714Y-169469819D02*
X69685714Y-168946009D01*
X69685714Y-168946009D02*
X69733333Y-168850771D01*
X69733333Y-168850771D02*
X69828571Y-168803152D01*
X69828571Y-168803152D02*
X70019047Y-168803152D01*
X70019047Y-168803152D02*
X70114285Y-168850771D01*
X69685714Y-169422200D02*
X69780952Y-169469819D01*
X69780952Y-169469819D02*
X70019047Y-169469819D01*
X70019047Y-169469819D02*
X70114285Y-169422200D01*
X70114285Y-169422200D02*
X70161904Y-169326961D01*
X70161904Y-169326961D02*
X70161904Y-169231723D01*
X70161904Y-169231723D02*
X70114285Y-169136485D01*
X70114285Y-169136485D02*
X70019047Y-169088866D01*
X70019047Y-169088866D02*
X69780952Y-169088866D01*
X69780952Y-169088866D02*
X69685714Y-169041247D01*
X69066666Y-169469819D02*
X69161904Y-169422200D01*
X69161904Y-169422200D02*
X69209523Y-169326961D01*
X69209523Y-169326961D02*
X69209523Y-168469819D01*
X68257142Y-169422200D02*
X68352380Y-169469819D01*
X68352380Y-169469819D02*
X68542856Y-169469819D01*
X68542856Y-169469819D02*
X68638094Y-169422200D01*
X68638094Y-169422200D02*
X68685713Y-169374580D01*
X68685713Y-169374580D02*
X68733332Y-169279342D01*
X68733332Y-169279342D02*
X68733332Y-168993628D01*
X68733332Y-168993628D02*
X68685713Y-168898390D01*
X68685713Y-168898390D02*
X68638094Y-168850771D01*
X68638094Y-168850771D02*
X68542856Y-168803152D01*
X68542856Y-168803152D02*
X68352380Y-168803152D01*
X68352380Y-168803152D02*
X68257142Y-168850771D01*
X67399999Y-168803152D02*
X67399999Y-169469819D01*
X67828570Y-168803152D02*
X67828570Y-169326961D01*
X67828570Y-169326961D02*
X67780951Y-169422200D01*
X67780951Y-169422200D02*
X67685713Y-169469819D01*
X67685713Y-169469819D02*
X67542856Y-169469819D01*
X67542856Y-169469819D02*
X67447618Y-169422200D01*
X67447618Y-169422200D02*
X67399999Y-169374580D01*
X66780951Y-169469819D02*
X66876189Y-169422200D01*
X66876189Y-169422200D02*
X66923808Y-169326961D01*
X66923808Y-169326961D02*
X66923808Y-168469819D01*
X65971427Y-169469819D02*
X65971427Y-168946009D01*
X65971427Y-168946009D02*
X66019046Y-168850771D01*
X66019046Y-168850771D02*
X66114284Y-168803152D01*
X66114284Y-168803152D02*
X66304760Y-168803152D01*
X66304760Y-168803152D02*
X66399998Y-168850771D01*
X65971427Y-169422200D02*
X66066665Y-169469819D01*
X66066665Y-169469819D02*
X66304760Y-169469819D01*
X66304760Y-169469819D02*
X66399998Y-169422200D01*
X66399998Y-169422200D02*
X66447617Y-169326961D01*
X66447617Y-169326961D02*
X66447617Y-169231723D01*
X66447617Y-169231723D02*
X66399998Y-169136485D01*
X66399998Y-169136485D02*
X66304760Y-169088866D01*
X66304760Y-169088866D02*
X66066665Y-169088866D01*
X66066665Y-169088866D02*
X65971427Y-169041247D01*
X65638093Y-168803152D02*
X65257141Y-168803152D01*
X65495236Y-168469819D02*
X65495236Y-169326961D01*
X65495236Y-169326961D02*
X65447617Y-169422200D01*
X65447617Y-169422200D02*
X65352379Y-169469819D01*
X65352379Y-169469819D02*
X65257141Y-169469819D01*
X64780950Y-169469819D02*
X64876188Y-169422200D01*
X64876188Y-169422200D02*
X64923807Y-169374580D01*
X64923807Y-169374580D02*
X64971426Y-169279342D01*
X64971426Y-169279342D02*
X64971426Y-168993628D01*
X64971426Y-168993628D02*
X64923807Y-168898390D01*
X64923807Y-168898390D02*
X64876188Y-168850771D01*
X64876188Y-168850771D02*
X64780950Y-168803152D01*
X64780950Y-168803152D02*
X64638093Y-168803152D01*
X64638093Y-168803152D02*
X64542855Y-168850771D01*
X64542855Y-168850771D02*
X64495236Y-168898390D01*
X64495236Y-168898390D02*
X64447617Y-168993628D01*
X64447617Y-168993628D02*
X64447617Y-169279342D01*
X64447617Y-169279342D02*
X64495236Y-169374580D01*
X64495236Y-169374580D02*
X64542855Y-169422200D01*
X64542855Y-169422200D02*
X64638093Y-169469819D01*
X64638093Y-169469819D02*
X64780950Y-169469819D01*
X64019045Y-169469819D02*
X64019045Y-168803152D01*
X64019045Y-168993628D02*
X63971426Y-168898390D01*
X63971426Y-168898390D02*
X63923807Y-168850771D01*
X63923807Y-168850771D02*
X63828569Y-168803152D01*
X63828569Y-168803152D02*
X63733331Y-168803152D01*
D12*
%TO.P,SW31,1,1*%
%TO.N,COL02*%
X71516000Y-143000000D03*
%TD*%
%TO.P,SW39,1,1*%
%TO.N,COL05*%
X113016000Y-154000000D03*
%TD*%
%TO.P,SW21,1,1*%
%TO.N,COL03*%
X79516000Y-121000000D03*
%TD*%
%TO.P,SW38,1,1*%
%TO.N,COL04*%
X99516000Y-154000000D03*
%TD*%
%TO.P,SW23,1,1*%
%TO.N,COL05*%
X102516000Y-121000000D03*
%TD*%
%TO.P,SW24,1,1*%
%TO.N,COL06*%
X114016000Y-121000000D03*
%TD*%
%TO.P,SW28,1,1*%
%TO.N,COL04*%
X99516000Y-132000000D03*
%TD*%
%TO.P,SW22,1,1*%
%TO.N,COL04*%
X91016000Y-121000000D03*
%TD*%
%TO.P,SW42,1,1*%
%TO.N,COL03*%
X85516000Y-165000000D03*
%TD*%
%TO.P,SW29,1,1*%
%TO.N,COL05*%
X113016000Y-132000000D03*
%TD*%
%TO.P,SW9,1,1*%
%TO.N,COL03*%
X79516000Y-99000000D03*
%TD*%
%TO.P,SW36,1,1*%
%TO.N,COL02*%
X71516000Y-154000000D03*
%TD*%
%TO.P,SW34,1,1*%
%TO.N,COL05*%
X113016000Y-143000000D03*
%TD*%
%TO.P,SW11,1,1*%
%TO.N,COL05*%
X102516000Y-99000000D03*
%TD*%
%TO.P,SW26,1,1*%
%TO.N,COL02*%
X71516000Y-132000000D03*
%TD*%
%TO.P,SW33,1,1*%
%TO.N,COL04*%
X99516000Y-143000000D03*
%TD*%
%TO.P,SW3,1,1*%
%TO.N,COL03*%
X79516000Y-88000000D03*
%TD*%
%TO.P,SW5,1,1*%
%TO.N,COL05*%
X102516000Y-88000000D03*
%TD*%
%TO.P,SW12,1,1*%
%TO.N,COL06*%
X114016000Y-99000000D03*
%TD*%
%TO.P,SW4,1,1*%
%TO.N,COL04*%
X91016000Y-88000000D03*
%TD*%
%TO.P,SW19,1,1*%
%TO.N,COL01*%
X56516000Y-121000000D03*
%TD*%
%TO.P,SW20,1,1*%
%TO.N,COL02*%
X68016000Y-121000000D03*
%TD*%
%TO.P,SW27,1,1*%
%TO.N,COL03*%
X85516000Y-132000000D03*
%TD*%
%TO.P,SW25,1,1*%
%TO.N,COL01*%
X56516000Y-132000000D03*
%TD*%
%TO.P,SW17,1,1*%
%TO.N,COL05*%
X102516000Y-110000000D03*
%TD*%
%TO.P,SW14,1,1*%
%TO.N,COL02*%
X68016000Y-110000000D03*
%TD*%
%TO.P,SW13,1,1*%
%TO.N,COL01*%
X56516000Y-110000000D03*
%TD*%
%TO.P,SW1,1,1*%
%TO.N,COL01*%
X56516000Y-88000000D03*
%TD*%
%TO.P,SW18,1,1*%
%TO.N,COL06*%
X114016000Y-110000000D03*
%TD*%
%TO.P,SW35,1,1*%
%TO.N,COL01*%
X56516000Y-154000000D03*
%TD*%
%TO.P,SW16,1,1*%
%TO.N,COL04*%
X91016000Y-110000000D03*
%TD*%
%TO.P,SW30,1,1*%
%TO.N,COL01*%
X56516000Y-143000000D03*
%TD*%
%TO.P,SW7,1,1*%
%TO.N,COL01*%
X56516000Y-99000000D03*
%TD*%
%TO.P,SW43,1,1*%
%TO.N,COL04*%
X99516000Y-165000000D03*
%TD*%
%TO.P,SW41,1,1*%
%TO.N,COL02*%
X71516000Y-165000000D03*
%TD*%
D13*
%TO.P,J2,S1,SHIELD*%
%TO.N,GND*%
X112185000Y-58910000D03*
D14*
X116365000Y-58910000D03*
D13*
X112185000Y-50270000D03*
D14*
X116365000Y-50270000D03*
%TD*%
D12*
%TO.P,SW37,1,1*%
%TO.N,COL03*%
X85516000Y-154000000D03*
%TD*%
%TO.P,SW32,1,1*%
%TO.N,COL03*%
X85516000Y-143000000D03*
%TD*%
%TO.P,SW10,1,1*%
%TO.N,COL04*%
X91016000Y-99000000D03*
%TD*%
%TO.P,SW2,1,1*%
%TO.N,COL02*%
X68016000Y-88000000D03*
%TD*%
%TO.P,SW15,1,1*%
%TO.N,COL03*%
X79516000Y-110000000D03*
%TD*%
%TO.P,SW44,1,1*%
%TO.N,COL05*%
X113016000Y-165100000D03*
%TD*%
D15*
%TO.P,U1,1,A1+*%
%TO.N,unconnected-(U1-A1+-Pad1)*%
X60000000Y-82260000D03*
D16*
%TO.P,U1,2,A2+*%
%TO.N,unconnected-(U1-A2+-Pad2)*%
X62540000Y-82260000D03*
%TO.P,U1,3,A3+*%
%TO.N,unconnected-(U1-A3+-Pad3)*%
X65080000Y-82260000D03*
%TO.P,U1,18,C1-*%
%TO.N,unconnected-(U1-C1--Pad18)*%
X103180000Y-82260000D03*
%TO.P,U1,19,C2-*%
%TO.N,unconnected-(U1-C2--Pad19)*%
X105720000Y-82260000D03*
%TO.P,U1,20,C3-*%
%TO.N,unconnected-(U1-C3--Pad20)*%
X108260000Y-82260000D03*
%TO.P,U1,21,V0*%
%TO.N,Net-(U1-V0)*%
X108260000Y-34000000D03*
%TO.P,U1,22,V1*%
%TO.N,Net-(U1-V1)*%
X105720000Y-34000000D03*
%TO.P,U1,23,V2*%
%TO.N,Net-(U1-V2)*%
X103180000Y-34000000D03*
%TO.P,U1,24,V3*%
%TO.N,Net-(U1-V3)*%
X100640000Y-34000000D03*
%TO.P,U1,25,V4*%
%TO.N,Net-(U1-V4)*%
X98100000Y-34000000D03*
%TO.P,U1,26,VSS*%
%TO.N,GND*%
X95560000Y-34000000D03*
%TO.P,U1,27,CAP2N*%
%TO.N,Net-(U1-CAP2N)*%
X93020000Y-34000000D03*
%TO.P,U1,28,CAP2P*%
%TO.N,Net-(U1-CAP2P)*%
X90480000Y-34000000D03*
%TO.P,U1,29,CAP1P*%
%TO.N,Net-(U1-CAP1P)*%
X87940000Y-34000000D03*
%TO.P,U1,30,CAP1N*%
%TO.N,Net-(U1-CAP1N)*%
X85400000Y-34000000D03*
%TO.P,U1,31,CAP3P*%
%TO.N,Net-(U1-CAP3P)*%
X82860000Y-34000000D03*
%TO.P,U1,32,VOUT*%
%TO.N,Net-(U1-VOUT)*%
X80320000Y-34000000D03*
%TO.P,U1,33,VSS*%
%TO.N,GND*%
X77780000Y-34000000D03*
%TO.P,U1,34,VDD2*%
%TO.N,3.3V*%
X75240000Y-34000000D03*
%TO.P,U1,35,VDD*%
X72700000Y-34000000D03*
%TO.P,U1,36,SI*%
%TO.N,DISP_SI*%
X70160000Y-34000000D03*
%TO.P,U1,37,SCL*%
%TO.N,DISP_SCL*%
X67620000Y-34000000D03*
%TO.P,U1,38,A0*%
%TO.N,DISP_A0*%
X65080000Y-34000000D03*
%TO.P,U1,39,~{RST}*%
%TO.N,DISP_RST*%
X62540000Y-34000000D03*
%TO.P,U1,40,~{CS1B}*%
%TO.N,DISP_CS1B*%
X60000000Y-34000000D03*
%TD*%
D12*
%TO.P,SW8,1,1*%
%TO.N,COL02*%
X68016000Y-99000000D03*
%TD*%
%TO.P,SW6,1,1*%
%TO.N,COL06*%
X114016000Y-88000000D03*
%TD*%
%TO.P,SW40,1,1*%
%TO.N,COL01*%
X56516000Y-165000000D03*
%TD*%
D17*
%TO.P,BT1,1,+*%
%TO.N,VBAT*%
X97900000Y-62700000D03*
X103900000Y-62700000D03*
%TO.P,BT1,2,-*%
%TO.N,Net-(BT1--)*%
X61788000Y-62700000D03*
X67800000Y-62700000D03*
%TD*%
D18*
%TO.P,J1,1,Pin_1*%
%TO.N,GND*%
X85480000Y-40100000D03*
D19*
%TO.P,J1,2,Pin_2*%
%TO.N,SWD_SWDIO*%
X82940000Y-40100000D03*
%TO.P,J1,3,Pin_3*%
%TO.N,SWD_SWCLK*%
X80400000Y-40100000D03*
%TO.P,J1,4,Pin_4*%
%TO.N,SWD_SWO*%
X77860000Y-40100000D03*
%TO.P,J1,5,Pin_5*%
%TO.N,NRST*%
X75320000Y-40100000D03*
%TD*%
D17*
%TO.P,BT2,1,+*%
%TO.N,Net-(BT1--)*%
X97900000Y-48000000D03*
X103900000Y-48000000D03*
%TO.P,BT2,2,-*%
%TO.N,GND*%
X61788000Y-48000000D03*
X67800000Y-48000000D03*
%TD*%
D20*
%TO.P,SW45,1,1*%
%TO.N,GND*%
X57000000Y-59150000D03*
X57000000Y-52850000D03*
%TO.P,SW45,2,2*%
%TO.N,Net-(U5-EN)*%
X53200000Y-59150000D03*
X53200000Y-52850000D03*
%TD*%
D21*
%TO.N,GND*%
X88279200Y-50246800D03*
X90212600Y-52413000D03*
%TO.N,Net-(BZ1--)*%
X88100000Y-45414400D03*
X86433800Y-47766000D03*
%TO.N,3.3V*%
X77222000Y-57183400D03*
X77384000Y-51679600D03*
X81232600Y-50195300D03*
X75879100Y-47662900D03*
X70091000Y-57702500D03*
%TO.N,NRST*%
X75400000Y-58700000D03*
X70325000Y-52968600D03*
X75400000Y-60600000D03*
%TO.N,VBAT_SNS*%
X77158000Y-62798600D03*
X74170000Y-64924800D03*
%TO.N,Net-(D1-A)*%
X106587800Y-58385300D03*
X86173300Y-49549100D03*
%TO.N,USB_DP (D+)*%
X101761400Y-52625000D03*
X91539700Y-54647700D03*
%TO.N,USB_DM (D-)*%
X88811300Y-59287500D03*
X102309800Y-55458100D03*
%TO.N,BUZZER*%
X77129500Y-53967200D03*
X78015400Y-55775600D03*
X85499100Y-53993400D03*
X84955400Y-59541200D03*
%TO.N,COL03*%
X84314000Y-61723300D03*
%TO.N,ROW03*%
X70737500Y-105816300D03*
X81081700Y-60906300D03*
%TO.N,DISP_RST*%
X89210100Y-35128700D03*
%TO.N,DISP_SCL*%
X78568500Y-63597700D03*
X69612800Y-69996800D03*
%TO.N,DISP_CS1B*%
X69605200Y-72553400D03*
X80760000Y-65774000D03*
%TO.N,DISP_A0*%
X80481000Y-62858400D03*
X68430200Y-71252500D03*
%TO.N,DISP_SI*%
X82328800Y-57659800D03*
%TO.N,ROW05*%
X89891600Y-65450200D03*
X87395100Y-127779200D03*
%TO.N,Net-(U5-Vin)*%
X87695300Y-69512000D03*
X92189600Y-67522700D03*
%TO.N,COL06*%
X86252000Y-56443200D03*
%TO.N,COL02*%
X83312700Y-59565000D03*
%TO.N,Net-(U4-VBUS)*%
X107682400Y-52816600D03*
X107741200Y-55277800D03*
%TO.N,ROW04*%
X85203000Y-73318800D03*
X85337900Y-117434000D03*
%TO.N,SWD_SWCLK*%
X86342000Y-51708700D03*
%TO.N,COL05*%
X91258900Y-66417300D03*
%TO.N,ROW02*%
X77795500Y-94044000D03*
X82222400Y-62189400D03*
%TO.N,COL04*%
X84945700Y-72286200D03*
%TO.N,SWD_SWDIO*%
X84851400Y-58409300D03*
%TO.N,ROW07*%
X89347700Y-64266900D03*
X87216800Y-149554200D03*
%TO.N,ROW01*%
X83312200Y-62178400D03*
X81339300Y-81757700D03*
%TO.N,COL01*%
X79955700Y-59894200D03*
%TO.N,SWD_SWO*%
X84700000Y-51766700D03*
%TO.N,Net-(J2-D+-PadA6)*%
X110405000Y-55089700D03*
X110405300Y-53590000D03*
%TO.N,ROW08{slash}WAKEUP*%
X73325000Y-73155800D03*
X74487500Y-160776400D03*
%TO.N,BOOT0*%
X81982600Y-54512800D03*
X114170500Y-137500000D03*
%TO.N,Net-(U5-EN)*%
X85650800Y-68072300D03*
%TO.N,QUADSPI_NCS*%
X79956200Y-61877500D03*
X79312300Y-71252500D03*
%TO.N,QUADSPI_IO2*%
X81515000Y-72046800D03*
X81706600Y-67108900D03*
%TO.N,Net-(BT1--)*%
X67782100Y-53920200D03*
%TD*%
D22*
%TO.N,GND*%
X85480000Y-40100000D02*
X85480000Y-41442700D01*
X52564600Y-60326700D02*
X52373300Y-60135400D01*
X57000000Y-59150000D02*
X57000000Y-60326700D01*
X85480000Y-41442700D02*
X85415500Y-41507200D01*
X88247600Y-50278400D02*
X88279200Y-50246800D01*
X88247600Y-50448000D02*
X90212600Y-52413000D01*
X85480000Y-40100000D02*
X89460000Y-40100000D01*
X85415500Y-41507200D02*
X85415500Y-49833900D01*
X85480000Y-40100000D02*
X81838700Y-36458700D01*
X80238700Y-36458700D02*
X77780000Y-34000000D01*
X81838700Y-36458700D02*
X80238700Y-36458700D01*
X52373300Y-51864600D02*
X52564600Y-51673300D01*
X57000000Y-52850000D02*
X57000000Y-51673300D01*
X85415500Y-49833900D02*
X85860000Y-50278400D01*
X52373300Y-60135400D02*
X52373300Y-51864600D01*
X57000000Y-60326700D02*
X52564600Y-60326700D01*
X88247600Y-50278400D02*
X88247600Y-50448000D01*
X61788000Y-48000000D02*
X58114700Y-51673300D01*
X58114700Y-51673300D02*
X57000000Y-51673300D01*
X52564600Y-51673300D02*
X57000000Y-51673300D01*
X89460000Y-40100000D02*
X95560000Y-34000000D01*
X67800000Y-48000000D02*
X61788000Y-48000000D01*
X85860000Y-50278400D02*
X88247600Y-50278400D01*
%TO.N,Net-(BZ1--)*%
X86433800Y-47766000D02*
X86433800Y-47080600D01*
X86433800Y-47080600D02*
X88100000Y-45414400D01*
%TO.N,3.3V*%
X70091000Y-57702500D02*
X70610100Y-57183400D01*
X70610100Y-57183400D02*
X77222000Y-57183400D01*
X78336100Y-50195300D02*
X78336100Y-50119900D01*
X78336100Y-50727500D02*
X78336100Y-50195300D01*
X78336100Y-50119900D02*
X75879100Y-47662900D01*
X77384000Y-51679600D02*
X78336100Y-50727500D01*
X78336100Y-50195300D02*
X81232600Y-50195300D01*
%TO.N,NRST*%
X74136300Y-41283700D02*
X75320000Y-40100000D01*
X70325000Y-52968600D02*
X74136300Y-49157300D01*
X75400000Y-58700000D02*
X75400000Y-60600000D01*
X74136300Y-49157300D02*
X74136300Y-41283700D01*
%TO.N,VBAT_SNS*%
X75031800Y-64924800D02*
X74170000Y-64924800D01*
X77158000Y-62798600D02*
X75031800Y-64924800D01*
%TO.N,Net-(D1-A)*%
X105899000Y-45157400D02*
X90565000Y-45157400D01*
X106587800Y-45846200D02*
X105899000Y-45157400D01*
X106587800Y-58385300D02*
X106587800Y-45846200D01*
X90565000Y-45157400D02*
X86173300Y-49549100D01*
%TO.N,USB_DP (D+)*%
X99738700Y-54647700D02*
X101761400Y-52625000D01*
X91539700Y-54647700D02*
X99738700Y-54647700D01*
%TO.N,USB_DM (D-)*%
X102309800Y-55458100D02*
X92640700Y-55458100D01*
X92640700Y-55458100D02*
X88811300Y-59287500D01*
%TO.N,BUZZER*%
X79581100Y-56001500D02*
X78241300Y-56001500D01*
X83800800Y-58386600D02*
X82602900Y-58386600D01*
X84955400Y-59541200D02*
X83800800Y-58386600D01*
X77340500Y-53756200D02*
X85261900Y-53756200D01*
X82027700Y-58448100D02*
X79581100Y-56001500D01*
X82602900Y-58386600D02*
X82541400Y-58448100D01*
X78241300Y-56001500D02*
X78015400Y-55775600D01*
X85261900Y-53756200D02*
X85499100Y-53993400D01*
X77129500Y-53967200D02*
X77340500Y-53756200D01*
X82541400Y-58448100D02*
X82027700Y-58448100D01*
%TO.N,COL03*%
X85516000Y-143000000D02*
X85516000Y-132000000D01*
X79516000Y-121000000D02*
X79516000Y-110000000D01*
X79516000Y-121000000D02*
X79516000Y-126000000D01*
X79516000Y-88000000D02*
X83221300Y-84294700D01*
X83526500Y-69512500D02*
X84314000Y-68725000D01*
X79516000Y-99000000D02*
X79516000Y-88000000D01*
X83526500Y-71305300D02*
X83526500Y-69512500D01*
X83221300Y-84294700D02*
X83221300Y-71610500D01*
X84314000Y-68725000D02*
X84314000Y-61723300D01*
X85516000Y-165000000D02*
X85516000Y-154000000D01*
X79516000Y-126000000D02*
X85516000Y-132000000D01*
X85516000Y-154000000D02*
X85516000Y-143000000D01*
X83221300Y-71610500D02*
X83526500Y-71305300D01*
X79516000Y-110000000D02*
X79516000Y-99000000D01*
%TO.N,ROW03*%
X73868900Y-64197900D02*
X74699500Y-64197900D01*
X73443100Y-64623700D02*
X73868900Y-64197900D01*
X70737500Y-105816300D02*
X70737500Y-77655700D01*
X78144100Y-61115000D02*
X80873000Y-61115000D01*
X67660200Y-70919000D02*
X73443100Y-65136100D01*
X67660200Y-74578400D02*
X67660200Y-70919000D01*
X80873000Y-61115000D02*
X81081700Y-60906300D01*
X70737500Y-77655700D02*
X67660200Y-74578400D01*
X77262700Y-61996400D02*
X78144100Y-61115000D01*
X76901000Y-61996400D02*
X77262700Y-61996400D01*
X73443100Y-65136100D02*
X73443100Y-64623700D01*
X74699500Y-64197900D02*
X76901000Y-61996400D01*
%TO.N,DISP_RST*%
X81590000Y-33723300D02*
X80778000Y-32911300D01*
X81590000Y-34320000D02*
X81590000Y-33723300D01*
X89210100Y-35128700D02*
X82398700Y-35128700D01*
X80778000Y-32911300D02*
X63628700Y-32911300D01*
X82398700Y-35128700D02*
X81590000Y-34320000D01*
X63628700Y-32911300D02*
X62540000Y-34000000D01*
%TO.N,DISP_SCL*%
X72169400Y-69996800D02*
X78568500Y-63597700D01*
X69612800Y-69996800D02*
X72169400Y-69996800D01*
%TO.N,DISP_CS1B*%
X70156000Y-72002600D02*
X79638000Y-72002600D01*
X69605200Y-72553400D02*
X70156000Y-72002600D01*
X79638000Y-72002600D02*
X80760000Y-70880600D01*
X80760000Y-70880600D02*
X80760000Y-65774000D01*
%TO.N,DISP_A0*%
X80481000Y-62858400D02*
X72086900Y-71252500D01*
X72086900Y-71252500D02*
X68430200Y-71252500D01*
%TO.N,DISP_SI*%
X70160000Y-34000000D02*
X70563100Y-34403100D01*
X67932200Y-52072700D02*
X66531800Y-53473100D01*
X78316400Y-55048900D02*
X78817200Y-55549700D01*
X68250700Y-52072700D02*
X67932200Y-52072700D01*
X78817200Y-55549800D02*
X80218800Y-55549800D01*
X70563100Y-34403100D02*
X70563100Y-50078500D01*
X67650500Y-55474700D02*
X77288700Y-55474700D01*
X68358100Y-52180100D02*
X68250700Y-52072700D01*
X77714500Y-55048900D02*
X78316400Y-55048900D01*
X66531800Y-54356000D02*
X67650500Y-55474700D01*
X66531800Y-53473100D02*
X66531800Y-54356000D01*
X70563100Y-50078500D02*
X68461500Y-52180100D01*
X77288700Y-55474700D02*
X77714500Y-55048900D01*
X80218800Y-55549800D02*
X82328800Y-57659800D01*
X78817200Y-55549700D02*
X78817200Y-55549800D01*
X68461500Y-52180100D02*
X68358100Y-52180100D01*
%TO.N,ROW05*%
X89891600Y-66287700D02*
X89891600Y-65450200D01*
X87395100Y-127779200D02*
X87395100Y-120551100D01*
X87395100Y-120551100D02*
X84219000Y-117375000D01*
X84219000Y-71960300D02*
X89891600Y-66287700D01*
X84219000Y-117375000D02*
X84219000Y-71960300D01*
%TO.N,Net-(U5-Vin)*%
X90200400Y-69511900D02*
X87695300Y-69511900D01*
X92189600Y-67522700D02*
X90200400Y-69511900D01*
X87695300Y-69511900D02*
X87695300Y-69512000D01*
%TO.N,COL06*%
X114016000Y-99000000D02*
X114016000Y-110000000D01*
X114016000Y-88617500D02*
X114016000Y-88000000D01*
X114016000Y-110000000D02*
X114016000Y-121000000D01*
X87937500Y-58128600D02*
X87937400Y-58128600D01*
X114016000Y-88000000D02*
X114016000Y-86139500D01*
X114016000Y-86139500D02*
X87937500Y-60061000D01*
X114016000Y-88617500D02*
X114016000Y-99000000D01*
X87937500Y-60061000D02*
X87937500Y-58128600D01*
X87937400Y-58128600D02*
X86252000Y-56443200D01*
%TO.N,COL02*%
X80332800Y-60627600D02*
X80332800Y-60627700D01*
X67208500Y-87192500D02*
X68016000Y-88000000D01*
X71516000Y-129045900D02*
X71516000Y-132000000D01*
X72991400Y-64436600D02*
X72991400Y-64949000D01*
X73681800Y-63746200D02*
X72991400Y-64436600D01*
X77191700Y-61385500D02*
X76554900Y-61385500D01*
X80332800Y-60627700D02*
X77949500Y-60627700D01*
X72991400Y-64949000D02*
X67208500Y-70731900D01*
X68016000Y-110000000D02*
X68016000Y-121000000D01*
X81395400Y-59565000D02*
X80332800Y-60627600D01*
X83312700Y-59565000D02*
X81395400Y-59565000D01*
X68016000Y-121000000D02*
X68016000Y-128500000D01*
X77949500Y-60627700D02*
X77191700Y-61385500D01*
X67208500Y-70731900D02*
X67208500Y-87192500D01*
X76554900Y-61385500D02*
X74194200Y-63746200D01*
X71516000Y-132000000D02*
X71516000Y-143000000D01*
X71516000Y-143000000D02*
X71516000Y-154000000D01*
X68016000Y-125545900D02*
X71516000Y-129045900D01*
X74194200Y-63746200D02*
X73681800Y-63746200D01*
X68016000Y-99000000D02*
X68016000Y-110000000D01*
X71516000Y-154000000D02*
X71516000Y-165000000D01*
X68016000Y-88000000D02*
X68016000Y-99000000D01*
%TO.N,Net-(U4-VBUS)*%
X107715200Y-52849200D02*
X107715200Y-55277800D01*
X107715000Y-52849200D02*
X107682400Y-52816600D01*
X107741200Y-55277800D02*
X107715000Y-55277800D01*
%TO.N,ROW04*%
X85203000Y-117299100D02*
X85337900Y-117434000D01*
X85203000Y-73318800D02*
X85203000Y-117299100D01*
%TO.N,SWD_SWCLK*%
X80400000Y-40100000D02*
X80400000Y-45766700D01*
X80400000Y-45766700D02*
X86342000Y-51708700D01*
%TO.N,COL05*%
X113016000Y-129616000D02*
X113016000Y-132000000D01*
X102516000Y-110000000D02*
X102516000Y-121000000D01*
X113016000Y-132000000D02*
X113016000Y-143000000D01*
X102516000Y-93500000D02*
X102516000Y-99000000D01*
X102516000Y-89020000D02*
X93657800Y-80161800D01*
X113016000Y-143000000D02*
X113016000Y-154000000D01*
X93657800Y-80161800D02*
X93657800Y-67933300D01*
X102516000Y-99000000D02*
X102516000Y-110000000D01*
X102516000Y-88000000D02*
X102516000Y-93500000D01*
X92141800Y-66417300D02*
X91258900Y-66417300D01*
X108016000Y-126500000D02*
X109900000Y-126500000D01*
X102516000Y-121000000D02*
X108016000Y-126500000D01*
X93657800Y-67933300D02*
X92141800Y-66417300D01*
X113016000Y-154000000D02*
X113016000Y-165100000D01*
X109900000Y-126500000D02*
X113016000Y-129616000D01*
%TO.N,ROW02*%
X76616100Y-77973400D02*
X82241700Y-72347800D01*
X77795500Y-94044000D02*
X76616100Y-92864600D01*
X82241700Y-72347800D02*
X82241700Y-71312500D01*
X82623100Y-62590100D02*
X82222400Y-62189400D01*
X76616100Y-92864600D02*
X76616100Y-77973400D01*
X82623100Y-70931100D02*
X82623100Y-62590100D01*
X82241700Y-71312500D02*
X82623100Y-70931100D01*
%TO.N,COL04*%
X91016000Y-88000000D02*
X91016000Y-78062800D01*
X91016000Y-123500000D02*
X99516000Y-132000000D01*
X91016000Y-99000000D02*
X91016000Y-110000000D01*
X99516000Y-143000000D02*
X99516000Y-132000000D01*
X91016000Y-110000000D02*
X91016000Y-121000000D01*
X91016000Y-78062800D02*
X85239400Y-72286200D01*
X91016000Y-88000000D02*
X91016000Y-93500000D01*
X91016000Y-121000000D02*
X91016000Y-123500000D01*
X99516000Y-165000000D02*
X99516000Y-154000000D01*
X85239400Y-72286200D02*
X84945700Y-72286200D01*
X99516000Y-154000000D02*
X99516000Y-143000000D01*
X91016000Y-93500000D02*
X91016000Y-99000000D01*
%TO.N,SWD_SWDIO*%
X68596900Y-52683500D02*
X71901800Y-49378600D01*
X81558400Y-38718400D02*
X82940000Y-40100000D01*
X77193500Y-54931100D02*
X67757000Y-54931100D01*
X71901800Y-41516800D02*
X74700200Y-38718400D01*
X68091500Y-52552300D02*
X68222700Y-52683500D01*
X67003800Y-53639900D02*
X68091400Y-52552300D01*
X68222700Y-52683500D02*
X68596900Y-52683500D01*
X67757000Y-54931100D02*
X67003800Y-54177900D01*
X77527400Y-54597200D02*
X77193500Y-54931100D01*
X68091400Y-52552300D02*
X68091500Y-52552300D01*
X74700200Y-38718400D02*
X81558400Y-38718400D01*
X71901800Y-49378600D02*
X71901800Y-41516800D01*
X84851400Y-58409300D02*
X81039300Y-54597200D01*
X67003800Y-54177900D02*
X67003800Y-53639900D01*
X81039300Y-54597200D02*
X77527400Y-54597200D01*
%TO.N,ROW07*%
X87047000Y-68423600D02*
X87047000Y-66567600D01*
X87216800Y-149554200D02*
X86668400Y-149005800D01*
X83734700Y-117601400D02*
X83734700Y-71735900D01*
X83734700Y-71735900D02*
X87047000Y-68423600D01*
X87047000Y-66567600D02*
X89347700Y-64266900D01*
X86668400Y-149005800D02*
X86668400Y-120535100D01*
X86668400Y-120535100D02*
X83734700Y-117601400D01*
%TO.N,ROW01*%
X82769600Y-71423400D02*
X83074800Y-71118200D01*
X83074800Y-71118200D02*
X83074800Y-62415800D01*
X81339300Y-81757700D02*
X82769600Y-80327400D01*
X82769600Y-80327400D02*
X82769600Y-71423400D01*
X83074800Y-62415800D02*
X83312200Y-62178400D01*
%TO.N,COL01*%
X56516000Y-80273200D02*
X56516000Y-88000000D01*
X56516000Y-110000000D02*
X56516000Y-121000000D01*
X56516000Y-121000000D02*
X56516000Y-132000000D01*
X56516000Y-165000000D02*
X56516000Y-154000000D01*
X73494700Y-63294500D02*
X56516000Y-80273200D01*
X56516000Y-143000000D02*
X56516000Y-154000000D01*
X74007100Y-63294500D02*
X73494700Y-63294500D01*
X76367800Y-60933800D02*
X74007100Y-63294500D01*
X56516000Y-90421400D02*
X56516000Y-88000000D01*
X79955700Y-59894200D02*
X77533800Y-59894200D01*
X56516000Y-90421400D02*
X56516000Y-99000000D01*
X56516000Y-99000000D02*
X56516000Y-110000000D01*
X76494200Y-60933800D02*
X76367800Y-60933800D01*
X56516000Y-143000000D02*
X56516000Y-132000000D01*
X77533800Y-59894200D02*
X76494200Y-60933800D01*
%TO.N,SWD_SWO*%
X77860000Y-40100000D02*
X77860000Y-44926700D01*
X77860000Y-44926700D02*
X84700000Y-51766700D01*
%TO.N,Net-(J2-D+-PadA6)*%
X110405300Y-53590000D02*
X110405300Y-55089400D01*
X110155300Y-55089700D02*
X110405000Y-55089700D01*
X110405300Y-55089400D02*
X110405000Y-55089700D01*
%TO.N,ROW08{slash}WAKEUP*%
X74487500Y-160776400D02*
X74487500Y-74318300D01*
X74487500Y-74318300D02*
X73325000Y-73155800D01*
%TO.N,BOOT0*%
X103426900Y-114004300D02*
X103426900Y-85853100D01*
X94623900Y-77050100D02*
X94623900Y-67505800D01*
X114170500Y-124747900D02*
X103426900Y-114004300D01*
X94623900Y-67505800D02*
X85578100Y-58460000D01*
X103426900Y-85853100D02*
X94623900Y-77050100D01*
X85578100Y-58108300D02*
X81982600Y-54512800D01*
X85578100Y-58460000D02*
X85578100Y-58108300D01*
X114170500Y-137500000D02*
X114170500Y-124747900D01*
%TO.N,Net-(U5-EN)*%
X84039400Y-59264000D02*
X83613700Y-58838300D01*
X78365500Y-56453200D02*
X78316400Y-56502300D01*
X82790000Y-58838300D02*
X82716500Y-58911800D01*
X84039400Y-60075700D02*
X84039400Y-59264000D01*
X53200000Y-54026700D02*
X55173300Y-56000000D01*
X81852600Y-58911800D02*
X79394000Y-56453200D01*
X82716500Y-58911800D02*
X81852600Y-58911800D01*
X85650800Y-61687100D02*
X84039400Y-60075700D01*
X77714500Y-56502300D02*
X77212200Y-56000000D01*
X78316400Y-56502300D02*
X77714500Y-56502300D01*
X55173300Y-56000000D02*
X53200000Y-57973300D01*
X53200000Y-59150000D02*
X53200000Y-57973300D01*
X77212200Y-56000000D02*
X55173300Y-56000000D01*
X85650800Y-68072300D02*
X85650800Y-61687100D01*
X83613700Y-58838300D02*
X82790000Y-58838300D01*
X53200000Y-52850000D02*
X53200000Y-54026700D01*
X79394000Y-56453200D02*
X78365500Y-56453200D01*
%TO.N,QUADSPI_NCS*%
X79312300Y-66029900D02*
X81222800Y-64119400D01*
X81222800Y-62540300D02*
X80560000Y-61877500D01*
X81222800Y-64119400D02*
X81222800Y-62540300D01*
X79312300Y-71252500D02*
X79312300Y-66029900D01*
X80560000Y-61877500D02*
X79956200Y-61877500D01*
%TO.N,QUADSPI_IO2*%
X81515000Y-67300500D02*
X81515000Y-72046800D01*
X81706600Y-67108900D02*
X81515000Y-67300500D01*
%TO.N,Net-(BT1--)*%
X97900000Y-48000000D02*
X95653200Y-48000000D01*
X67800000Y-62700000D02*
X61788000Y-62700000D01*
X95653200Y-48000000D02*
X95653200Y-48000100D01*
X72731300Y-53920200D02*
X67782100Y-53920200D01*
X95653200Y-48000100D02*
X90513600Y-53139700D01*
X103900000Y-48000000D02*
X97900000Y-48000000D01*
X73511800Y-53139700D02*
X72731300Y-53920200D01*
X90513600Y-53139700D02*
X73511800Y-53139700D01*
%TD*%
M02*
