%TF.GenerationSoftware,KiCad,Pcbnew,8.0.1*%
%TF.CreationDate,2024-04-23T17:34:02+02:00*%
%TF.ProjectId,DM50,444d3530-2e6b-4696-9361-645f70636258,rev?*%
%TF.SameCoordinates,Original*%
%TF.FileFunction,Soldermask,Bot*%
%TF.FilePolarity,Negative*%
%FSLAX46Y46*%
G04 Gerber Fmt 4.6, Leading zero omitted, Abs format (unit mm)*
G04 Created by KiCad (PCBNEW 8.0.1) date 2024-04-23 17:34:02*
%MOMM*%
%LPD*%
G01*
G04 APERTURE LIST*
G04 Aperture macros list*
%AMRoundRect*
0 Rectangle with rounded corners*
0 $1 Rounding radius*
0 $2 $3 $4 $5 $6 $7 $8 $9 X,Y pos of 4 corners*
0 Add a 4 corners polygon primitive as box body*
4,1,4,$2,$3,$4,$5,$6,$7,$8,$9,$2,$3,0*
0 Add four circle primitives for the rounded corners*
1,1,$1+$1,$2,$3*
1,1,$1+$1,$4,$5*
1,1,$1+$1,$6,$7*
1,1,$1+$1,$8,$9*
0 Add four rect primitives between the rounded corners*
20,1,$1+$1,$2,$3,$4,$5,0*
20,1,$1+$1,$4,$5,$6,$7,0*
20,1,$1+$1,$6,$7,$8,$9,0*
20,1,$1+$1,$8,$9,$2,$3,0*%
G04 Aperture macros list end*
%ADD10C,0.150000*%
%ADD11C,0.650000*%
%ADD12O,2.100000X1.000000*%
%ADD13O,1.800000X1.000000*%
%ADD14R,1.524000X1.524000*%
%ADD15C,1.524000*%
%ADD16RoundRect,0.250000X1.750000X-2.250000X1.750000X2.250000X-1.750000X2.250000X-1.750000X-2.250000X0*%
%ADD17R,2.032000X2.032000*%
%ADD18C,2.032000*%
%ADD19R,1.000000X1.700000*%
G04 APERTURE END LIST*
D10*
X90233334Y-167859875D02*
X90233334Y-166859875D01*
X90233334Y-166859875D02*
X89995239Y-166859875D01*
X89995239Y-166859875D02*
X89852382Y-166907494D01*
X89852382Y-166907494D02*
X89757144Y-167002732D01*
X89757144Y-167002732D02*
X89709525Y-167097970D01*
X89709525Y-167097970D02*
X89661906Y-167288446D01*
X89661906Y-167288446D02*
X89661906Y-167431303D01*
X89661906Y-167431303D02*
X89709525Y-167621779D01*
X89709525Y-167621779D02*
X89757144Y-167717017D01*
X89757144Y-167717017D02*
X89852382Y-167812256D01*
X89852382Y-167812256D02*
X89995239Y-167859875D01*
X89995239Y-167859875D02*
X90233334Y-167859875D01*
X89233334Y-167859875D02*
X89233334Y-166859875D01*
X89233334Y-166859875D02*
X88900001Y-167574160D01*
X88900001Y-167574160D02*
X88566668Y-166859875D01*
X88566668Y-166859875D02*
X88566668Y-167859875D01*
X87614287Y-166859875D02*
X88090477Y-166859875D01*
X88090477Y-166859875D02*
X88138096Y-167336065D01*
X88138096Y-167336065D02*
X88090477Y-167288446D01*
X88090477Y-167288446D02*
X87995239Y-167240827D01*
X87995239Y-167240827D02*
X87757144Y-167240827D01*
X87757144Y-167240827D02*
X87661906Y-167288446D01*
X87661906Y-167288446D02*
X87614287Y-167336065D01*
X87614287Y-167336065D02*
X87566668Y-167431303D01*
X87566668Y-167431303D02*
X87566668Y-167669398D01*
X87566668Y-167669398D02*
X87614287Y-167764636D01*
X87614287Y-167764636D02*
X87661906Y-167812256D01*
X87661906Y-167812256D02*
X87757144Y-167859875D01*
X87757144Y-167859875D02*
X87995239Y-167859875D01*
X87995239Y-167859875D02*
X88090477Y-167812256D01*
X88090477Y-167812256D02*
X88138096Y-167764636D01*
X86947620Y-166859875D02*
X86852382Y-166859875D01*
X86852382Y-166859875D02*
X86757144Y-166907494D01*
X86757144Y-166907494D02*
X86709525Y-166955113D01*
X86709525Y-166955113D02*
X86661906Y-167050351D01*
X86661906Y-167050351D02*
X86614287Y-167240827D01*
X86614287Y-167240827D02*
X86614287Y-167478922D01*
X86614287Y-167478922D02*
X86661906Y-167669398D01*
X86661906Y-167669398D02*
X86709525Y-167764636D01*
X86709525Y-167764636D02*
X86757144Y-167812256D01*
X86757144Y-167812256D02*
X86852382Y-167859875D01*
X86852382Y-167859875D02*
X86947620Y-167859875D01*
X86947620Y-167859875D02*
X87042858Y-167812256D01*
X87042858Y-167812256D02*
X87090477Y-167764636D01*
X87090477Y-167764636D02*
X87138096Y-167669398D01*
X87138096Y-167669398D02*
X87185715Y-167478922D01*
X87185715Y-167478922D02*
X87185715Y-167240827D01*
X87185715Y-167240827D02*
X87138096Y-167050351D01*
X87138096Y-167050351D02*
X87090477Y-166955113D01*
X87090477Y-166955113D02*
X87042858Y-166907494D01*
X87042858Y-166907494D02*
X86947620Y-166859875D01*
X84995239Y-167812256D02*
X85090477Y-167859875D01*
X85090477Y-167859875D02*
X85280953Y-167859875D01*
X85280953Y-167859875D02*
X85376191Y-167812256D01*
X85376191Y-167812256D02*
X85423810Y-167764636D01*
X85423810Y-167764636D02*
X85471429Y-167669398D01*
X85471429Y-167669398D02*
X85471429Y-167383684D01*
X85471429Y-167383684D02*
X85423810Y-167288446D01*
X85423810Y-167288446D02*
X85376191Y-167240827D01*
X85376191Y-167240827D02*
X85280953Y-167193208D01*
X85280953Y-167193208D02*
X85090477Y-167193208D01*
X85090477Y-167193208D02*
X84995239Y-167240827D01*
X84138096Y-167859875D02*
X84138096Y-167336065D01*
X84138096Y-167336065D02*
X84185715Y-167240827D01*
X84185715Y-167240827D02*
X84280953Y-167193208D01*
X84280953Y-167193208D02*
X84471429Y-167193208D01*
X84471429Y-167193208D02*
X84566667Y-167240827D01*
X84138096Y-167812256D02*
X84233334Y-167859875D01*
X84233334Y-167859875D02*
X84471429Y-167859875D01*
X84471429Y-167859875D02*
X84566667Y-167812256D01*
X84566667Y-167812256D02*
X84614286Y-167717017D01*
X84614286Y-167717017D02*
X84614286Y-167621779D01*
X84614286Y-167621779D02*
X84566667Y-167526541D01*
X84566667Y-167526541D02*
X84471429Y-167478922D01*
X84471429Y-167478922D02*
X84233334Y-167478922D01*
X84233334Y-167478922D02*
X84138096Y-167431303D01*
X83519048Y-167859875D02*
X83614286Y-167812256D01*
X83614286Y-167812256D02*
X83661905Y-167717017D01*
X83661905Y-167717017D02*
X83661905Y-166859875D01*
X82709524Y-167812256D02*
X82804762Y-167859875D01*
X82804762Y-167859875D02*
X82995238Y-167859875D01*
X82995238Y-167859875D02*
X83090476Y-167812256D01*
X83090476Y-167812256D02*
X83138095Y-167764636D01*
X83138095Y-167764636D02*
X83185714Y-167669398D01*
X83185714Y-167669398D02*
X83185714Y-167383684D01*
X83185714Y-167383684D02*
X83138095Y-167288446D01*
X83138095Y-167288446D02*
X83090476Y-167240827D01*
X83090476Y-167240827D02*
X82995238Y-167193208D01*
X82995238Y-167193208D02*
X82804762Y-167193208D01*
X82804762Y-167193208D02*
X82709524Y-167240827D01*
X81852381Y-167193208D02*
X81852381Y-167859875D01*
X82280952Y-167193208D02*
X82280952Y-167717017D01*
X82280952Y-167717017D02*
X82233333Y-167812256D01*
X82233333Y-167812256D02*
X82138095Y-167859875D01*
X82138095Y-167859875D02*
X81995238Y-167859875D01*
X81995238Y-167859875D02*
X81900000Y-167812256D01*
X81900000Y-167812256D02*
X81852381Y-167764636D01*
X81233333Y-167859875D02*
X81328571Y-167812256D01*
X81328571Y-167812256D02*
X81376190Y-167717017D01*
X81376190Y-167717017D02*
X81376190Y-166859875D01*
X80423809Y-167859875D02*
X80423809Y-167336065D01*
X80423809Y-167336065D02*
X80471428Y-167240827D01*
X80471428Y-167240827D02*
X80566666Y-167193208D01*
X80566666Y-167193208D02*
X80757142Y-167193208D01*
X80757142Y-167193208D02*
X80852380Y-167240827D01*
X80423809Y-167812256D02*
X80519047Y-167859875D01*
X80519047Y-167859875D02*
X80757142Y-167859875D01*
X80757142Y-167859875D02*
X80852380Y-167812256D01*
X80852380Y-167812256D02*
X80899999Y-167717017D01*
X80899999Y-167717017D02*
X80899999Y-167621779D01*
X80899999Y-167621779D02*
X80852380Y-167526541D01*
X80852380Y-167526541D02*
X80757142Y-167478922D01*
X80757142Y-167478922D02*
X80519047Y-167478922D01*
X80519047Y-167478922D02*
X80423809Y-167431303D01*
X80090475Y-167193208D02*
X79709523Y-167193208D01*
X79947618Y-166859875D02*
X79947618Y-167717017D01*
X79947618Y-167717017D02*
X79899999Y-167812256D01*
X79899999Y-167812256D02*
X79804761Y-167859875D01*
X79804761Y-167859875D02*
X79709523Y-167859875D01*
X79233332Y-167859875D02*
X79328570Y-167812256D01*
X79328570Y-167812256D02*
X79376189Y-167764636D01*
X79376189Y-167764636D02*
X79423808Y-167669398D01*
X79423808Y-167669398D02*
X79423808Y-167383684D01*
X79423808Y-167383684D02*
X79376189Y-167288446D01*
X79376189Y-167288446D02*
X79328570Y-167240827D01*
X79328570Y-167240827D02*
X79233332Y-167193208D01*
X79233332Y-167193208D02*
X79090475Y-167193208D01*
X79090475Y-167193208D02*
X78995237Y-167240827D01*
X78995237Y-167240827D02*
X78947618Y-167288446D01*
X78947618Y-167288446D02*
X78899999Y-167383684D01*
X78899999Y-167383684D02*
X78899999Y-167669398D01*
X78899999Y-167669398D02*
X78947618Y-167764636D01*
X78947618Y-167764636D02*
X78995237Y-167812256D01*
X78995237Y-167812256D02*
X79090475Y-167859875D01*
X79090475Y-167859875D02*
X79233332Y-167859875D01*
X78471427Y-167859875D02*
X78471427Y-167193208D01*
X78471427Y-167383684D02*
X78423808Y-167288446D01*
X78423808Y-167288446D02*
X78376189Y-167240827D01*
X78376189Y-167240827D02*
X78280951Y-167193208D01*
X78280951Y-167193208D02*
X78185713Y-167193208D01*
X77090474Y-167859875D02*
X77090474Y-167193208D01*
X77090474Y-167383684D02*
X77042855Y-167288446D01*
X77042855Y-167288446D02*
X76995236Y-167240827D01*
X76995236Y-167240827D02*
X76899998Y-167193208D01*
X76899998Y-167193208D02*
X76804760Y-167193208D01*
X75947617Y-167859875D02*
X76519045Y-167859875D01*
X76233331Y-167859875D02*
X76233331Y-166859875D01*
X76233331Y-166859875D02*
X76328569Y-167002732D01*
X76328569Y-167002732D02*
X76423807Y-167097970D01*
X76423807Y-167097970D02*
X76519045Y-167145589D01*
X75519045Y-167764636D02*
X75471426Y-167812256D01*
X75471426Y-167812256D02*
X75519045Y-167859875D01*
X75519045Y-167859875D02*
X75566664Y-167812256D01*
X75566664Y-167812256D02*
X75519045Y-167764636D01*
X75519045Y-167764636D02*
X75519045Y-167859875D01*
X74852379Y-166859875D02*
X74757141Y-166859875D01*
X74757141Y-166859875D02*
X74661903Y-166907494D01*
X74661903Y-166907494D02*
X74614284Y-166955113D01*
X74614284Y-166955113D02*
X74566665Y-167050351D01*
X74566665Y-167050351D02*
X74519046Y-167240827D01*
X74519046Y-167240827D02*
X74519046Y-167478922D01*
X74519046Y-167478922D02*
X74566665Y-167669398D01*
X74566665Y-167669398D02*
X74614284Y-167764636D01*
X74614284Y-167764636D02*
X74661903Y-167812256D01*
X74661903Y-167812256D02*
X74757141Y-167859875D01*
X74757141Y-167859875D02*
X74852379Y-167859875D01*
X74852379Y-167859875D02*
X74947617Y-167812256D01*
X74947617Y-167812256D02*
X74995236Y-167764636D01*
X74995236Y-167764636D02*
X75042855Y-167669398D01*
X75042855Y-167669398D02*
X75090474Y-167478922D01*
X75090474Y-167478922D02*
X75090474Y-167240827D01*
X75090474Y-167240827D02*
X75042855Y-167050351D01*
X75042855Y-167050351D02*
X74995236Y-166955113D01*
X74995236Y-166955113D02*
X74947617Y-166907494D01*
X74947617Y-166907494D02*
X74852379Y-166859875D01*
X100923810Y-169469819D02*
X100923810Y-168469819D01*
X100495239Y-169469819D02*
X100495239Y-168946009D01*
X100495239Y-168946009D02*
X100542858Y-168850771D01*
X100542858Y-168850771D02*
X100638096Y-168803152D01*
X100638096Y-168803152D02*
X100780953Y-168803152D01*
X100780953Y-168803152D02*
X100876191Y-168850771D01*
X100876191Y-168850771D02*
X100923810Y-168898390D01*
X100161905Y-168803152D02*
X99780953Y-168803152D01*
X100019048Y-168469819D02*
X100019048Y-169326961D01*
X100019048Y-169326961D02*
X99971429Y-169422200D01*
X99971429Y-169422200D02*
X99876191Y-169469819D01*
X99876191Y-169469819D02*
X99780953Y-169469819D01*
X99590476Y-168803152D02*
X99209524Y-168803152D01*
X99447619Y-168469819D02*
X99447619Y-169326961D01*
X99447619Y-169326961D02*
X99400000Y-169422200D01*
X99400000Y-169422200D02*
X99304762Y-169469819D01*
X99304762Y-169469819D02*
X99209524Y-169469819D01*
X98876190Y-168803152D02*
X98876190Y-169803152D01*
X98876190Y-168850771D02*
X98780952Y-168803152D01*
X98780952Y-168803152D02*
X98590476Y-168803152D01*
X98590476Y-168803152D02*
X98495238Y-168850771D01*
X98495238Y-168850771D02*
X98447619Y-168898390D01*
X98447619Y-168898390D02*
X98400000Y-168993628D01*
X98400000Y-168993628D02*
X98400000Y-169279342D01*
X98400000Y-169279342D02*
X98447619Y-169374580D01*
X98447619Y-169374580D02*
X98495238Y-169422200D01*
X98495238Y-169422200D02*
X98590476Y-169469819D01*
X98590476Y-169469819D02*
X98780952Y-169469819D01*
X98780952Y-169469819D02*
X98876190Y-169422200D01*
X98019047Y-169422200D02*
X97923809Y-169469819D01*
X97923809Y-169469819D02*
X97733333Y-169469819D01*
X97733333Y-169469819D02*
X97638095Y-169422200D01*
X97638095Y-169422200D02*
X97590476Y-169326961D01*
X97590476Y-169326961D02*
X97590476Y-169279342D01*
X97590476Y-169279342D02*
X97638095Y-169184104D01*
X97638095Y-169184104D02*
X97733333Y-169136485D01*
X97733333Y-169136485D02*
X97876190Y-169136485D01*
X97876190Y-169136485D02*
X97971428Y-169088866D01*
X97971428Y-169088866D02*
X98019047Y-168993628D01*
X98019047Y-168993628D02*
X98019047Y-168946009D01*
X98019047Y-168946009D02*
X97971428Y-168850771D01*
X97971428Y-168850771D02*
X97876190Y-168803152D01*
X97876190Y-168803152D02*
X97733333Y-168803152D01*
X97733333Y-168803152D02*
X97638095Y-168850771D01*
X97161904Y-169374580D02*
X97114285Y-169422200D01*
X97114285Y-169422200D02*
X97161904Y-169469819D01*
X97161904Y-169469819D02*
X97209523Y-169422200D01*
X97209523Y-169422200D02*
X97161904Y-169374580D01*
X97161904Y-169374580D02*
X97161904Y-169469819D01*
X97161904Y-168850771D02*
X97114285Y-168898390D01*
X97114285Y-168898390D02*
X97161904Y-168946009D01*
X97161904Y-168946009D02*
X97209523Y-168898390D01*
X97209523Y-168898390D02*
X97161904Y-168850771D01*
X97161904Y-168850771D02*
X97161904Y-168946009D01*
X95971429Y-168422200D02*
X96828571Y-169707914D01*
X94923810Y-168422200D02*
X95780952Y-169707914D01*
X94161905Y-168803152D02*
X94161905Y-169612676D01*
X94161905Y-169612676D02*
X94209524Y-169707914D01*
X94209524Y-169707914D02*
X94257143Y-169755533D01*
X94257143Y-169755533D02*
X94352381Y-169803152D01*
X94352381Y-169803152D02*
X94495238Y-169803152D01*
X94495238Y-169803152D02*
X94590476Y-169755533D01*
X94161905Y-169422200D02*
X94257143Y-169469819D01*
X94257143Y-169469819D02*
X94447619Y-169469819D01*
X94447619Y-169469819D02*
X94542857Y-169422200D01*
X94542857Y-169422200D02*
X94590476Y-169374580D01*
X94590476Y-169374580D02*
X94638095Y-169279342D01*
X94638095Y-169279342D02*
X94638095Y-168993628D01*
X94638095Y-168993628D02*
X94590476Y-168898390D01*
X94590476Y-168898390D02*
X94542857Y-168850771D01*
X94542857Y-168850771D02*
X94447619Y-168803152D01*
X94447619Y-168803152D02*
X94257143Y-168803152D01*
X94257143Y-168803152D02*
X94161905Y-168850771D01*
X93685714Y-169469819D02*
X93685714Y-168803152D01*
X93685714Y-168469819D02*
X93733333Y-168517438D01*
X93733333Y-168517438D02*
X93685714Y-168565057D01*
X93685714Y-168565057D02*
X93638095Y-168517438D01*
X93638095Y-168517438D02*
X93685714Y-168469819D01*
X93685714Y-168469819D02*
X93685714Y-168565057D01*
X93352381Y-168803152D02*
X92971429Y-168803152D01*
X93209524Y-168469819D02*
X93209524Y-169326961D01*
X93209524Y-169326961D02*
X93161905Y-169422200D01*
X93161905Y-169422200D02*
X93066667Y-169469819D01*
X93066667Y-169469819D02*
X92971429Y-169469819D01*
X92638095Y-169469819D02*
X92638095Y-168469819D01*
X92209524Y-169469819D02*
X92209524Y-168946009D01*
X92209524Y-168946009D02*
X92257143Y-168850771D01*
X92257143Y-168850771D02*
X92352381Y-168803152D01*
X92352381Y-168803152D02*
X92495238Y-168803152D01*
X92495238Y-168803152D02*
X92590476Y-168850771D01*
X92590476Y-168850771D02*
X92638095Y-168898390D01*
X91304762Y-168803152D02*
X91304762Y-169469819D01*
X91733333Y-168803152D02*
X91733333Y-169326961D01*
X91733333Y-169326961D02*
X91685714Y-169422200D01*
X91685714Y-169422200D02*
X91590476Y-169469819D01*
X91590476Y-169469819D02*
X91447619Y-169469819D01*
X91447619Y-169469819D02*
X91352381Y-169422200D01*
X91352381Y-169422200D02*
X91304762Y-169374580D01*
X90828571Y-169469819D02*
X90828571Y-168469819D01*
X90828571Y-168850771D02*
X90733333Y-168803152D01*
X90733333Y-168803152D02*
X90542857Y-168803152D01*
X90542857Y-168803152D02*
X90447619Y-168850771D01*
X90447619Y-168850771D02*
X90400000Y-168898390D01*
X90400000Y-168898390D02*
X90352381Y-168993628D01*
X90352381Y-168993628D02*
X90352381Y-169279342D01*
X90352381Y-169279342D02*
X90400000Y-169374580D01*
X90400000Y-169374580D02*
X90447619Y-169422200D01*
X90447619Y-169422200D02*
X90542857Y-169469819D01*
X90542857Y-169469819D02*
X90733333Y-169469819D01*
X90733333Y-169469819D02*
X90828571Y-169422200D01*
X89923809Y-169374580D02*
X89876190Y-169422200D01*
X89876190Y-169422200D02*
X89923809Y-169469819D01*
X89923809Y-169469819D02*
X89971428Y-169422200D01*
X89971428Y-169422200D02*
X89923809Y-169374580D01*
X89923809Y-169374580D02*
X89923809Y-169469819D01*
X89019048Y-169422200D02*
X89114286Y-169469819D01*
X89114286Y-169469819D02*
X89304762Y-169469819D01*
X89304762Y-169469819D02*
X89400000Y-169422200D01*
X89400000Y-169422200D02*
X89447619Y-169374580D01*
X89447619Y-169374580D02*
X89495238Y-169279342D01*
X89495238Y-169279342D02*
X89495238Y-168993628D01*
X89495238Y-168993628D02*
X89447619Y-168898390D01*
X89447619Y-168898390D02*
X89400000Y-168850771D01*
X89400000Y-168850771D02*
X89304762Y-168803152D01*
X89304762Y-168803152D02*
X89114286Y-168803152D01*
X89114286Y-168803152D02*
X89019048Y-168850771D01*
X88447619Y-169469819D02*
X88542857Y-169422200D01*
X88542857Y-169422200D02*
X88590476Y-169374580D01*
X88590476Y-169374580D02*
X88638095Y-169279342D01*
X88638095Y-169279342D02*
X88638095Y-168993628D01*
X88638095Y-168993628D02*
X88590476Y-168898390D01*
X88590476Y-168898390D02*
X88542857Y-168850771D01*
X88542857Y-168850771D02*
X88447619Y-168803152D01*
X88447619Y-168803152D02*
X88304762Y-168803152D01*
X88304762Y-168803152D02*
X88209524Y-168850771D01*
X88209524Y-168850771D02*
X88161905Y-168898390D01*
X88161905Y-168898390D02*
X88114286Y-168993628D01*
X88114286Y-168993628D02*
X88114286Y-169279342D01*
X88114286Y-169279342D02*
X88161905Y-169374580D01*
X88161905Y-169374580D02*
X88209524Y-169422200D01*
X88209524Y-169422200D02*
X88304762Y-169469819D01*
X88304762Y-169469819D02*
X88447619Y-169469819D01*
X87685714Y-169469819D02*
X87685714Y-168803152D01*
X87685714Y-168898390D02*
X87638095Y-168850771D01*
X87638095Y-168850771D02*
X87542857Y-168803152D01*
X87542857Y-168803152D02*
X87400000Y-168803152D01*
X87400000Y-168803152D02*
X87304762Y-168850771D01*
X87304762Y-168850771D02*
X87257143Y-168946009D01*
X87257143Y-168946009D02*
X87257143Y-169469819D01*
X87257143Y-168946009D02*
X87209524Y-168850771D01*
X87209524Y-168850771D02*
X87114286Y-168803152D01*
X87114286Y-168803152D02*
X86971429Y-168803152D01*
X86971429Y-168803152D02*
X86876190Y-168850771D01*
X86876190Y-168850771D02*
X86828571Y-168946009D01*
X86828571Y-168946009D02*
X86828571Y-169469819D01*
X85638096Y-168422200D02*
X86495238Y-169707914D01*
X85400000Y-169469819D02*
X84876191Y-168803152D01*
X85400000Y-168803152D02*
X84876191Y-169469819D01*
X84066667Y-169469819D02*
X84066667Y-168946009D01*
X84066667Y-168946009D02*
X84114286Y-168850771D01*
X84114286Y-168850771D02*
X84209524Y-168803152D01*
X84209524Y-168803152D02*
X84400000Y-168803152D01*
X84400000Y-168803152D02*
X84495238Y-168850771D01*
X84066667Y-169422200D02*
X84161905Y-169469819D01*
X84161905Y-169469819D02*
X84400000Y-169469819D01*
X84400000Y-169469819D02*
X84495238Y-169422200D01*
X84495238Y-169422200D02*
X84542857Y-169326961D01*
X84542857Y-169326961D02*
X84542857Y-169231723D01*
X84542857Y-169231723D02*
X84495238Y-169136485D01*
X84495238Y-169136485D02*
X84400000Y-169088866D01*
X84400000Y-169088866D02*
X84161905Y-169088866D01*
X84161905Y-169088866D02*
X84066667Y-169041247D01*
X83685714Y-168803152D02*
X83447619Y-169469819D01*
X83447619Y-169469819D02*
X83209524Y-168803152D01*
X82828571Y-169469819D02*
X82828571Y-168803152D01*
X82828571Y-168469819D02*
X82876190Y-168517438D01*
X82876190Y-168517438D02*
X82828571Y-168565057D01*
X82828571Y-168565057D02*
X82780952Y-168517438D01*
X82780952Y-168517438D02*
X82828571Y-168469819D01*
X82828571Y-168469819D02*
X82828571Y-168565057D01*
X81971429Y-169422200D02*
X82066667Y-169469819D01*
X82066667Y-169469819D02*
X82257143Y-169469819D01*
X82257143Y-169469819D02*
X82352381Y-169422200D01*
X82352381Y-169422200D02*
X82400000Y-169326961D01*
X82400000Y-169326961D02*
X82400000Y-168946009D01*
X82400000Y-168946009D02*
X82352381Y-168850771D01*
X82352381Y-168850771D02*
X82257143Y-168803152D01*
X82257143Y-168803152D02*
X82066667Y-168803152D01*
X82066667Y-168803152D02*
X81971429Y-168850771D01*
X81971429Y-168850771D02*
X81923810Y-168946009D01*
X81923810Y-168946009D02*
X81923810Y-169041247D01*
X81923810Y-169041247D02*
X82400000Y-169136485D01*
X81495238Y-169469819D02*
X81495238Y-168803152D01*
X81495238Y-168993628D02*
X81447619Y-168898390D01*
X81447619Y-168898390D02*
X81400000Y-168850771D01*
X81400000Y-168850771D02*
X81304762Y-168803152D01*
X81304762Y-168803152D02*
X81209524Y-168803152D01*
X80876190Y-169469819D02*
X80876190Y-168469819D01*
X80876190Y-168850771D02*
X80780952Y-168803152D01*
X80780952Y-168803152D02*
X80590476Y-168803152D01*
X80590476Y-168803152D02*
X80495238Y-168850771D01*
X80495238Y-168850771D02*
X80447619Y-168898390D01*
X80447619Y-168898390D02*
X80400000Y-168993628D01*
X80400000Y-168993628D02*
X80400000Y-169279342D01*
X80400000Y-169279342D02*
X80447619Y-169374580D01*
X80447619Y-169374580D02*
X80495238Y-169422200D01*
X80495238Y-169422200D02*
X80590476Y-169469819D01*
X80590476Y-169469819D02*
X80780952Y-169469819D01*
X80780952Y-169469819D02*
X80876190Y-169422200D01*
X79542857Y-169469819D02*
X79542857Y-168946009D01*
X79542857Y-168946009D02*
X79590476Y-168850771D01*
X79590476Y-168850771D02*
X79685714Y-168803152D01*
X79685714Y-168803152D02*
X79876190Y-168803152D01*
X79876190Y-168803152D02*
X79971428Y-168850771D01*
X79542857Y-169422200D02*
X79638095Y-169469819D01*
X79638095Y-169469819D02*
X79876190Y-169469819D01*
X79876190Y-169469819D02*
X79971428Y-169422200D01*
X79971428Y-169422200D02*
X80019047Y-169326961D01*
X80019047Y-169326961D02*
X80019047Y-169231723D01*
X80019047Y-169231723D02*
X79971428Y-169136485D01*
X79971428Y-169136485D02*
X79876190Y-169088866D01*
X79876190Y-169088866D02*
X79638095Y-169088866D01*
X79638095Y-169088866D02*
X79542857Y-169041247D01*
X79114285Y-169422200D02*
X79019047Y-169469819D01*
X79019047Y-169469819D02*
X78828571Y-169469819D01*
X78828571Y-169469819D02*
X78733333Y-169422200D01*
X78733333Y-169422200D02*
X78685714Y-169326961D01*
X78685714Y-169326961D02*
X78685714Y-169279342D01*
X78685714Y-169279342D02*
X78733333Y-169184104D01*
X78733333Y-169184104D02*
X78828571Y-169136485D01*
X78828571Y-169136485D02*
X78971428Y-169136485D01*
X78971428Y-169136485D02*
X79066666Y-169088866D01*
X79066666Y-169088866D02*
X79114285Y-168993628D01*
X79114285Y-168993628D02*
X79114285Y-168946009D01*
X79114285Y-168946009D02*
X79066666Y-168850771D01*
X79066666Y-168850771D02*
X78971428Y-168803152D01*
X78971428Y-168803152D02*
X78828571Y-168803152D01*
X78828571Y-168803152D02*
X78733333Y-168850771D01*
X77828571Y-169422200D02*
X77923809Y-169469819D01*
X77923809Y-169469819D02*
X78114285Y-169469819D01*
X78114285Y-169469819D02*
X78209523Y-169422200D01*
X78209523Y-169422200D02*
X78257142Y-169374580D01*
X78257142Y-169374580D02*
X78304761Y-169279342D01*
X78304761Y-169279342D02*
X78304761Y-168993628D01*
X78304761Y-168993628D02*
X78257142Y-168898390D01*
X78257142Y-168898390D02*
X78209523Y-168850771D01*
X78209523Y-168850771D02*
X78114285Y-168803152D01*
X78114285Y-168803152D02*
X77923809Y-168803152D01*
X77923809Y-168803152D02*
X77828571Y-168850771D01*
X76685714Y-168422200D02*
X77542856Y-169707914D01*
X75923809Y-169469819D02*
X75923809Y-168469819D01*
X75923809Y-169422200D02*
X76019047Y-169469819D01*
X76019047Y-169469819D02*
X76209523Y-169469819D01*
X76209523Y-169469819D02*
X76304761Y-169422200D01*
X76304761Y-169422200D02*
X76352380Y-169374580D01*
X76352380Y-169374580D02*
X76399999Y-169279342D01*
X76399999Y-169279342D02*
X76399999Y-168993628D01*
X76399999Y-168993628D02*
X76352380Y-168898390D01*
X76352380Y-168898390D02*
X76304761Y-168850771D01*
X76304761Y-168850771D02*
X76209523Y-168803152D01*
X76209523Y-168803152D02*
X76019047Y-168803152D01*
X76019047Y-168803152D02*
X75923809Y-168850771D01*
X75447618Y-169469819D02*
X75447618Y-168803152D01*
X75447618Y-168898390D02*
X75399999Y-168850771D01*
X75399999Y-168850771D02*
X75304761Y-168803152D01*
X75304761Y-168803152D02*
X75161904Y-168803152D01*
X75161904Y-168803152D02*
X75066666Y-168850771D01*
X75066666Y-168850771D02*
X75019047Y-168946009D01*
X75019047Y-168946009D02*
X75019047Y-169469819D01*
X75019047Y-168946009D02*
X74971428Y-168850771D01*
X74971428Y-168850771D02*
X74876190Y-168803152D01*
X74876190Y-168803152D02*
X74733333Y-168803152D01*
X74733333Y-168803152D02*
X74638094Y-168850771D01*
X74638094Y-168850771D02*
X74590475Y-168946009D01*
X74590475Y-168946009D02*
X74590475Y-169469819D01*
X73638095Y-168469819D02*
X74114285Y-168469819D01*
X74114285Y-168469819D02*
X74161904Y-168946009D01*
X74161904Y-168946009D02*
X74114285Y-168898390D01*
X74114285Y-168898390D02*
X74019047Y-168850771D01*
X74019047Y-168850771D02*
X73780952Y-168850771D01*
X73780952Y-168850771D02*
X73685714Y-168898390D01*
X73685714Y-168898390D02*
X73638095Y-168946009D01*
X73638095Y-168946009D02*
X73590476Y-169041247D01*
X73590476Y-169041247D02*
X73590476Y-169279342D01*
X73590476Y-169279342D02*
X73638095Y-169374580D01*
X73638095Y-169374580D02*
X73685714Y-169422200D01*
X73685714Y-169422200D02*
X73780952Y-169469819D01*
X73780952Y-169469819D02*
X74019047Y-169469819D01*
X74019047Y-169469819D02*
X74114285Y-169422200D01*
X74114285Y-169422200D02*
X74161904Y-169374580D01*
X72971428Y-168469819D02*
X72876190Y-168469819D01*
X72876190Y-168469819D02*
X72780952Y-168517438D01*
X72780952Y-168517438D02*
X72733333Y-168565057D01*
X72733333Y-168565057D02*
X72685714Y-168660295D01*
X72685714Y-168660295D02*
X72638095Y-168850771D01*
X72638095Y-168850771D02*
X72638095Y-169088866D01*
X72638095Y-169088866D02*
X72685714Y-169279342D01*
X72685714Y-169279342D02*
X72733333Y-169374580D01*
X72733333Y-169374580D02*
X72780952Y-169422200D01*
X72780952Y-169422200D02*
X72876190Y-169469819D01*
X72876190Y-169469819D02*
X72971428Y-169469819D01*
X72971428Y-169469819D02*
X73066666Y-169422200D01*
X73066666Y-169422200D02*
X73114285Y-169374580D01*
X73114285Y-169374580D02*
X73161904Y-169279342D01*
X73161904Y-169279342D02*
X73209523Y-169088866D01*
X73209523Y-169088866D02*
X73209523Y-168850771D01*
X73209523Y-168850771D02*
X73161904Y-168660295D01*
X73161904Y-168660295D02*
X73114285Y-168565057D01*
X73114285Y-168565057D02*
X73066666Y-168517438D01*
X73066666Y-168517438D02*
X72971428Y-168469819D01*
X72209523Y-169088866D02*
X71447619Y-169088866D01*
X70542857Y-169422200D02*
X70638095Y-169469819D01*
X70638095Y-169469819D02*
X70828571Y-169469819D01*
X70828571Y-169469819D02*
X70923809Y-169422200D01*
X70923809Y-169422200D02*
X70971428Y-169374580D01*
X70971428Y-169374580D02*
X71019047Y-169279342D01*
X71019047Y-169279342D02*
X71019047Y-168993628D01*
X71019047Y-168993628D02*
X70971428Y-168898390D01*
X70971428Y-168898390D02*
X70923809Y-168850771D01*
X70923809Y-168850771D02*
X70828571Y-168803152D01*
X70828571Y-168803152D02*
X70638095Y-168803152D01*
X70638095Y-168803152D02*
X70542857Y-168850771D01*
X69685714Y-169469819D02*
X69685714Y-168946009D01*
X69685714Y-168946009D02*
X69733333Y-168850771D01*
X69733333Y-168850771D02*
X69828571Y-168803152D01*
X69828571Y-168803152D02*
X70019047Y-168803152D01*
X70019047Y-168803152D02*
X70114285Y-168850771D01*
X69685714Y-169422200D02*
X69780952Y-169469819D01*
X69780952Y-169469819D02*
X70019047Y-169469819D01*
X70019047Y-169469819D02*
X70114285Y-169422200D01*
X70114285Y-169422200D02*
X70161904Y-169326961D01*
X70161904Y-169326961D02*
X70161904Y-169231723D01*
X70161904Y-169231723D02*
X70114285Y-169136485D01*
X70114285Y-169136485D02*
X70019047Y-169088866D01*
X70019047Y-169088866D02*
X69780952Y-169088866D01*
X69780952Y-169088866D02*
X69685714Y-169041247D01*
X69066666Y-169469819D02*
X69161904Y-169422200D01*
X69161904Y-169422200D02*
X69209523Y-169326961D01*
X69209523Y-169326961D02*
X69209523Y-168469819D01*
X68257142Y-169422200D02*
X68352380Y-169469819D01*
X68352380Y-169469819D02*
X68542856Y-169469819D01*
X68542856Y-169469819D02*
X68638094Y-169422200D01*
X68638094Y-169422200D02*
X68685713Y-169374580D01*
X68685713Y-169374580D02*
X68733332Y-169279342D01*
X68733332Y-169279342D02*
X68733332Y-168993628D01*
X68733332Y-168993628D02*
X68685713Y-168898390D01*
X68685713Y-168898390D02*
X68638094Y-168850771D01*
X68638094Y-168850771D02*
X68542856Y-168803152D01*
X68542856Y-168803152D02*
X68352380Y-168803152D01*
X68352380Y-168803152D02*
X68257142Y-168850771D01*
X67399999Y-168803152D02*
X67399999Y-169469819D01*
X67828570Y-168803152D02*
X67828570Y-169326961D01*
X67828570Y-169326961D02*
X67780951Y-169422200D01*
X67780951Y-169422200D02*
X67685713Y-169469819D01*
X67685713Y-169469819D02*
X67542856Y-169469819D01*
X67542856Y-169469819D02*
X67447618Y-169422200D01*
X67447618Y-169422200D02*
X67399999Y-169374580D01*
X66780951Y-169469819D02*
X66876189Y-169422200D01*
X66876189Y-169422200D02*
X66923808Y-169326961D01*
X66923808Y-169326961D02*
X66923808Y-168469819D01*
X65971427Y-169469819D02*
X65971427Y-168946009D01*
X65971427Y-168946009D02*
X66019046Y-168850771D01*
X66019046Y-168850771D02*
X66114284Y-168803152D01*
X66114284Y-168803152D02*
X66304760Y-168803152D01*
X66304760Y-168803152D02*
X66399998Y-168850771D01*
X65971427Y-169422200D02*
X66066665Y-169469819D01*
X66066665Y-169469819D02*
X66304760Y-169469819D01*
X66304760Y-169469819D02*
X66399998Y-169422200D01*
X66399998Y-169422200D02*
X66447617Y-169326961D01*
X66447617Y-169326961D02*
X66447617Y-169231723D01*
X66447617Y-169231723D02*
X66399998Y-169136485D01*
X66399998Y-169136485D02*
X66304760Y-169088866D01*
X66304760Y-169088866D02*
X66066665Y-169088866D01*
X66066665Y-169088866D02*
X65971427Y-169041247D01*
X65638093Y-168803152D02*
X65257141Y-168803152D01*
X65495236Y-168469819D02*
X65495236Y-169326961D01*
X65495236Y-169326961D02*
X65447617Y-169422200D01*
X65447617Y-169422200D02*
X65352379Y-169469819D01*
X65352379Y-169469819D02*
X65257141Y-169469819D01*
X64780950Y-169469819D02*
X64876188Y-169422200D01*
X64876188Y-169422200D02*
X64923807Y-169374580D01*
X64923807Y-169374580D02*
X64971426Y-169279342D01*
X64971426Y-169279342D02*
X64971426Y-168993628D01*
X64971426Y-168993628D02*
X64923807Y-168898390D01*
X64923807Y-168898390D02*
X64876188Y-168850771D01*
X64876188Y-168850771D02*
X64780950Y-168803152D01*
X64780950Y-168803152D02*
X64638093Y-168803152D01*
X64638093Y-168803152D02*
X64542855Y-168850771D01*
X64542855Y-168850771D02*
X64495236Y-168898390D01*
X64495236Y-168898390D02*
X64447617Y-168993628D01*
X64447617Y-168993628D02*
X64447617Y-169279342D01*
X64447617Y-169279342D02*
X64495236Y-169374580D01*
X64495236Y-169374580D02*
X64542855Y-169422200D01*
X64542855Y-169422200D02*
X64638093Y-169469819D01*
X64638093Y-169469819D02*
X64780950Y-169469819D01*
X64019045Y-169469819D02*
X64019045Y-168803152D01*
X64019045Y-168993628D02*
X63971426Y-168898390D01*
X63971426Y-168898390D02*
X63923807Y-168850771D01*
X63923807Y-168850771D02*
X63828569Y-168803152D01*
X63828569Y-168803152D02*
X63733331Y-168803152D01*
D11*
%TO.C,J2*%
X112685000Y-57480000D03*
X112685000Y-51700000D03*
D12*
X112185000Y-58910000D03*
D13*
X116365000Y-58910000D03*
D12*
X112185000Y-50270000D03*
D13*
X116365000Y-50270000D03*
%TD*%
D14*
%TO.C,U1*%
X60000000Y-82260000D03*
D15*
X62540000Y-82260000D03*
X65080000Y-82260000D03*
X103180000Y-82260000D03*
X105720000Y-82260000D03*
X108260000Y-82260000D03*
X108260000Y-34000000D03*
X105720000Y-34000000D03*
X103180000Y-34000000D03*
X100640000Y-34000000D03*
X98100000Y-34000000D03*
X95560000Y-34000000D03*
X93020000Y-34000000D03*
X90480000Y-34000000D03*
X87940000Y-34000000D03*
X85400000Y-34000000D03*
X82860000Y-34000000D03*
X80320000Y-34000000D03*
X77780000Y-34000000D03*
X75240000Y-34000000D03*
X72700000Y-34000000D03*
X70160000Y-34000000D03*
X67620000Y-34000000D03*
X65080000Y-34000000D03*
X62540000Y-34000000D03*
X60000000Y-34000000D03*
%TD*%
D16*
%TO.C,BT1*%
X97900000Y-62700000D03*
X103900000Y-62700000D03*
X61788000Y-62700000D03*
X67800000Y-62700000D03*
%TD*%
D17*
%TO.C,J1*%
X85480000Y-40100000D03*
D18*
X82940000Y-40100000D03*
X80400000Y-40100000D03*
X77860000Y-40100000D03*
X75320000Y-40100000D03*
%TD*%
D16*
%TO.C,BT2*%
X97900000Y-48000000D03*
X103900000Y-48000000D03*
X61788000Y-48000000D03*
X67800000Y-48000000D03*
%TD*%
D19*
%TO.C,SW45*%
X57000000Y-59150000D03*
X57000000Y-52850000D03*
X53200000Y-59150000D03*
X53200000Y-52850000D03*
%TD*%
M02*
