%TF.GenerationSoftware,KiCad,Pcbnew,8.0.1*%
%TF.CreationDate,2024-04-23T17:34:02+02:00*%
%TF.ProjectId,DM50,444d3530-2e6b-4696-9361-645f70636258,rev?*%
%TF.SameCoordinates,Original*%
%TF.FileFunction,Profile,NP*%
%FSLAX46Y46*%
G04 Gerber Fmt 4.6, Leading zero omitted, Abs format (unit mm)*
G04 Created by KiCad (PCBNEW 8.0.1) date 2024-04-23 17:34:02*
%MOMM*%
%LPD*%
G01*
G04 APERTURE LIST*
%TA.AperFunction,Profile*%
%ADD10C,0.050000*%
%TD*%
%TA.AperFunction,Profile*%
%ADD11C,0.150000*%
%TD*%
G04 APERTURE END LIST*
D10*
X94000000Y-57800000D02*
G75*
G02*
X91600000Y-57800000I-1200000J0D01*
G01*
X91600000Y-57800000D02*
G75*
G02*
X94000000Y-57800000I1200000J0D01*
G01*
D11*
X117000000Y-76500000D02*
X119000000Y-76500000D01*
X50500000Y-170500000D02*
G75*
G02*
X49000000Y-169000000I0J1500000D01*
G01*
D10*
X94000000Y-48300000D02*
G75*
G02*
X91600000Y-48300000I-1200000J0D01*
G01*
X91600000Y-48300000D02*
G75*
G02*
X94000000Y-48300000I1200000J0D01*
G01*
D11*
X49000000Y-76500000D02*
X49000000Y-34000000D01*
X51500000Y-80500000D02*
X49000000Y-80500000D01*
X49000000Y-34000000D02*
G75*
G02*
X50500000Y-32500000I1500000J0D01*
G01*
X117000000Y-80500000D02*
G75*
G02*
X117000000Y-76500000I0J2000000D01*
G01*
X50500000Y-32500000D02*
X117500000Y-32500000D01*
X51500000Y-76500000D02*
G75*
G02*
X51500000Y-80500000I0J-2000000D01*
G01*
X119000000Y-169000000D02*
G75*
G02*
X117500000Y-170500000I-1500000J0D01*
G01*
X51500000Y-76500000D02*
X49000000Y-76500000D01*
X117500000Y-170500000D02*
X50500000Y-170500000D01*
X119000000Y-34000000D02*
X119000000Y-76500000D01*
D10*
X94000000Y-62550000D02*
G75*
G02*
X91600000Y-62550000I-1200000J0D01*
G01*
X91600000Y-62550000D02*
G75*
G02*
X94000000Y-62550000I1200000J0D01*
G01*
D11*
X119000000Y-80500000D02*
X119000000Y-169000000D01*
X117000000Y-80500000D02*
X119000000Y-80500000D01*
X49000000Y-80500000D02*
X49000000Y-169000000D01*
D10*
X94000000Y-53050000D02*
G75*
G02*
X91600000Y-53050000I-1200000J0D01*
G01*
X91600000Y-53050000D02*
G75*
G02*
X94000000Y-53050000I1200000J0D01*
G01*
D11*
X117500000Y-32500000D02*
G75*
G02*
X119000000Y-34000000I0J-1500000D01*
G01*
M02*
