<?xml version="1.0" encoding="UTF-8" standalone="no"?>
<svg
   width="10.16cm"
   height="15.24cm"
   viewBox="0 0 101.6 152.4"
   version="1.1"
   id="svg1"
   sodipodi:docname="screen.svg"
   inkscape:version="1.3.2 (091e20e, 2023-11-25)"
   inkscape:export-filename="../../../../../Downloads/screen.svg"
   inkscape:export-xdpi="300"
   inkscape:export-ydpi="300"
   xml:space="preserve"
   xmlns:inkscape="http://www.inkscape.org/namespaces/inkscape"
   xmlns:sodipodi="http://sodipodi.sourceforge.net/DTD/sodipodi-0.dtd"
   xmlns="http://www.w3.org/2000/svg"
   xmlns:svg="http://www.w3.org/2000/svg"><defs
     id="defs1"><rect
       x="66.307592"
       y="471.94329"
       width="241.10139"
       height="63.278938"
       id="rect48" /><linearGradient
       id="swatch46"
       inkscape:swatch="solid"><stop
         style="stop-color:#000000;stop-opacity:1;"
         offset="0"
         id="stop46" /></linearGradient><rect
       x="66.307594"
       y="471.9433"
       width="270.57612"
       height="26.865038"
       id="rect48-8" /><rect
       x="66.307594"
       y="471.9433"
       width="270.57611"
       height="26.865038"
       id="rect48-8-7" /><rect
       x="66.307594"
       y="471.9433"
       width="122.12804"
       height="16.122917"
       id="rect48-80" /><style
       id="style1">.cls-1{fill:none;}</style></defs><sodipodi:namedview
     id="namedview1"
     pagecolor="#ffffff"
     bordercolor="#000000"
     borderopacity="0.25"
     inkscape:showpageshadow="2"
     inkscape:pageopacity="0.0"
     inkscape:pagecheckerboard="0"
     inkscape:deskcolor="#d1d1d1"
     inkscape:document-units="mm"
     showgrid="false"
     showguides="false"
     inkscape:zoom="2.828427409827473"
     inkscape:cx="108.3641032946628"
     inkscape:cy="61.87183711767046"
     inkscape:window-width="1392"
     inkscape:window-height="867"
     inkscape:window-x="144"
     inkscape:window-y="25"
     inkscape:window-maximized="0"
     inkscape:current-layer="layer2"
     inkscape:export-bgcolor="#ffffffff"><sodipodi:guide
       position="38.500002,73.866158"
       orientation="1,0"
       id="guide1"
       inkscape:locked="false" /><sodipodi:guide
       position="51.499999,67.216151"
       orientation="1,0"
       id="guide2"
       inkscape:locked="false" /><sodipodi:guide
       position="64.459833,78.309551"
       orientation="1,0"
       id="guide3"
       inkscape:locked="false" /><sodipodi:guide
       position="77.499995,67.216151"
       orientation="1,0"
       id="guide4"
       inkscape:locked="false" /><sodipodi:guide
       position="23.499997,67.216151"
       orientation="1,0"
       id="guide5"
       inkscape:locked="false" /><sodipodi:guide
       position="45.499997,90.216151"
       orientation="1,0"
       id="guide7"
       inkscape:locked="false" /><sodipodi:guide
       position="56.499997,100.21615"
       orientation="1,0"
       id="guide8"
       inkscape:locked="false" /><sodipodi:guide
       position="67.5,100.21615"
       orientation="1,0"
       id="guide9"
       inkscape:locked="false" /><sodipodi:guide
       position="56.46759,131.30984"
       orientation="0,-1"
       id="guide11"
       inkscape:locked="false" /><sodipodi:guide
       position="56.540334,111.4387"
       orientation="0,-1"
       id="guide13"
       inkscape:locked="false" /><sodipodi:guide
       position="67.540334,101.43869"
       orientation="-0.00036245991,-0.99999993"
       id="guide14"
       inkscape:locked="false" /><sodipodi:guide
       position="35.65674,65.341545"
       orientation="0,-1"
       id="guide19"
       inkscape:locked="false" /><sodipodi:guide
       position="29.840642,58.2944"
       orientation="0,-1"
       id="guide21"
       inkscape:locked="false" /><sodipodi:guide
       position="38.459834,55.426097"
       orientation="0,-1"
       id="guide22"
       inkscape:locked="false" /><sodipodi:guide
       position="38.459833,75.426105"
       orientation="0,-1"
       id="guide23"
       inkscape:locked="false" /><sodipodi:guide
       position="23.46759,45.425619"
       orientation="0,-1"
       id="guide25"
       inkscape:locked="false" /><sodipodi:guide
       position="79.325594,88.462447"
       orientation="0,-1"
       id="guide26"
       inkscape:locked="false" /><sodipodi:guide
       position="23.540335,91.438693"
       orientation="0,-1"
       id="guide27"
       inkscape:locked="false" /><sodipodi:guide
       position="34.540338,91.438693"
       orientation="1,0"
       id="guide28"
       inkscape:locked="false" /><sodipodi:guide
       position="78.746613,98.408463"
       orientation="0,-1"
       id="guide29"
       inkscape:locked="false" /><sodipodi:guide
       position="67.46759,108.42563"
       orientation="0,-1"
       id="guide30"
       inkscape:locked="false" /><sodipodi:guide
       position="67.46759,118.42564"
       orientation="0,-1"
       id="guide31"
       inkscape:locked="false" /><sodipodi:guide
       position="67.540334,121.4387"
       orientation="0,-1"
       id="guide32"
       inkscape:locked="false" /><sodipodi:guide
       position="56.46759,128.42563"
       orientation="0,-1"
       id="guide33"
       inkscape:locked="false" /><sodipodi:guide
       position="18.272786,76.836651"
       orientation="1,0"
       id="guide6"
       inkscape:locked="false" /><sodipodi:guide
       position="20.587891,138.2944"
       orientation="0,-1"
       id="guide12"
       inkscape:locked="false" /><sodipodi:guide
       position="84.319401,134.49101"
       orientation="1,0"
       id="guide15"
       inkscape:locked="false" /><sodipodi:guide
       position="66.145833,42.209307"
       orientation="0,-1"
       id="guide17"
       inkscape:locked="false" /><inkscape:grid
       id="grid1"
       units="mm"
       originx="0"
       originy="0"
       spacingx="1"
       spacingy="1"
       empcolor="#0099e5"
       empopacity="0.30196078"
       color="#0099e5"
       opacity="0.14902"
       empspacing="5"
       dotted="false"
       gridanglex="30"
       gridanglez="30"
       visible="false" /></sodipodi:namedview><g
     inkscape:groupmode="layer"
     id="layer1"
     inkscape:label="DRAW"
     style="display:none"><text
       xml:space="preserve"
       style="font-style:normal;font-variant:normal;font-weight:bold;font-stretch:normal;font-size:3.52778px;line-height:1;font-family:Courier;-inkscape-font-specification:'Courier Bold';text-align:start;letter-spacing:0.306917px;text-anchor:start;display:inline;fill:#000000;fill-opacity:1;stroke:#ff9300;stroke-width:0.115169;stroke-linecap:round;stroke-dasharray:none;stroke-opacity:1"
       x="10.0797004699707"
       y="12.33034706115723"
       id="text9"><tspan
         id="tspan9"
         style="font-style:normal;font-variant:normal;font-weight:800;font-stretch:normal;font-size:3.52778px;font-family:Dosis;-inkscape-font-specification:'Dosis Ultra-Bold';text-align:start;letter-spacing:0.306917px;text-anchor:start;fill:#000000;fill-opacity:1;stroke:none;stroke-width:0.115169"
         x="10.0797004699707"
         y="12.33034706115723"
         sodipodi:role="line"
         dx="0">Scientific calculator                 DM50 </tspan></text></g><g
     inkscape:groupmode="layer"
     id="layer2"
     inkscape:label="EXPORT"
     style="display:inline"><path
       id="path10"
       style="-inkscape-font-specification:'Dosis Ultra-Bold';stroke-width:0.115169;stroke-linecap:round"
       d="M 23.39702148437499,9.691398111979165 C 23.20652155185113,9.691398111979166 23.04175400177664,9.728044766854292 22.90299479166666,9.800952148437497 22.76423558155669,9.873859530020704 22.65734337973743,9.972410001471651 22.58208414713541,10.09705810546875 22.50682491453339,10.21935435844704 22.46942952473958,10.35581698401471 22.46942952473958,10.50633544921875 V 12.16463216145833 C 22.46942952473958,12.2140210328534 22.49520345076319,12.25394742113043 22.54694417317708,12.284521484375 22.59868489559097,12.31509554761957 22.6623709757313,12.33051350911458 22.73763020833333,12.33051350911458 22.81288944093534,12.33051350911458 22.87732425599438,12.31509554761957 22.93141682942708,12.284521484375 22.9878612538786,12.25394742113043 23.01616617838541,12.2140210328534 23.01616617838541,12.16463216145833 V 11.03911946614583 H 23.34069417317708 C 23.38537934253453,11.03911946614583 23.41822949968484,11.01915627200732 23.43939615885416,10.9791748046875 23.46291466904228,10.93919333736768 23.47453613281249,10.89472171644716 23.47453613281249,10.84533284505208 23.47453613281249,10.79829582467582 23.46291466904229,10.75457293867398 23.43939615885416,10.71459147135417 23.41822949968484,10.67225815301552 23.38537934253453,10.65102945963542 23.34069417317708,10.65102945963542 H 23.01616617838541 V 10.48204752604167 C 23.01616617838541,10.4161956975149 23.02525664367242,10.36160008266154 23.04407145182291,10.31926676432292 23.06523811099224,10.27693344598428 23.09354303549904,10.24408328883397 23.12882080078124,10.22056477864583 23.16409856606345,10.19469441743889 23.20402495434046,10.17726222178359 23.24871012369791,10.16785481770833 23.29574714407417,10.15609556261427 23.34528076196111,10.15028483072916 23.39702148437499,10.15028483072916 23.49109552512752,10.15028483072917 23.56312333563616,10.16064079525776 23.61251220703124,10.18180745442708 23.66425292944514,10.20297411359639 23.70492805264084,10.22420280697651 23.73550211588541,10.24536946614583 23.7684280301488,10.26653612531515 23.80179495162203,10.27740885416666 23.83472086588541,10.27740885416666 23.87940603524286,10.27740885416666 23.91553592579506,10.25491466154495 23.94375813802083,10.2102294921875 23.97198035024657,10.16554432283005 23.99194354438509,10.11727620418473 24.00370279947916,10.06553548177083 24.01781390559204,10.01379475935694 24.02489013671874,9.977148104481816 24.02489013671874,9.955981445312497 24.02489013671874,9.901888871879798 23.99457097805164,9.856151751717677 23.93342285156249,9.818522135416664 23.87227472507336,9.778540668096846 23.793170683438,9.748221509429734 23.69674479166666,9.727054850260412 23.60031889989532,9.703536340072277 23.50050292920277,9.691398111979165 23.39702148437499,9.691398111979165 Z M 32.22335611979166,9.691398111979165 C 32.14339318515202,9.691398111979165 32.07769287085138,9.706816073474177 32.0259521484375,9.737390136718747 31.97656327704242,9.767964199963321 31.95205485026041,9.80789058824034 31.95205485026041,9.857279459635414 V 12.16101481119791 C 31.95205485026041,12.20334812953654 31.97656327704241,12.24200901857197 32.0259521484375,12.27728678385416 32.07769287085138,12.31256454913637 32.14339318515202,12.33051350911458 32.22335611979166,12.33051350911458 32.29861535239367,12.33051350911457 32.36356693177563,12.31256454913637 32.41765950520833,12.27728678385416 32.47175207864103,12.24200901857198 32.49879150390624,12.20334812953655 32.49879150390625,12.16101481119791 V 9.857279459635414 C 32.49879150390624,9.807890588240336 32.47175207864103,9.767964199963319 32.41765950520833,9.737390136718747 32.36356693177562,9.706816073474177 32.29861535239368,9.691398111979165 32.22335611979166,9.691398111979165 Z M 37.51864013671875,9.691398111979165 C 37.43867720207911,9.691398111979165 37.37297688777848,9.706816073474177 37.32123616536458,9.737390136718747 37.2718472939695,9.767964199963321 37.2473388671875,9.80789058824034 37.2473388671875,9.857279459635414 V 12.16101481119791 C 37.2473388671875,12.20334812953654 37.27184729396952,12.24200901857197 37.32123616536458,12.27728678385416 37.37297688777847,12.31256454913637 37.43867720207911,12.33051350911458 37.51864013671875,12.33051350911458 37.59389936932078,12.33051350911457 37.6588509487027,12.31256454913637 37.71294352213541,12.27728678385416 37.76703609556808,12.24200901857198 37.79407552083333,12.20334812953655 37.79407552083333,12.16101481119791 V 9.857279459635414 C 37.79407552083333,9.807890588240336 37.7670360955681,9.767964199963319 37.71294352213541,9.737390136718747 37.65885094870268,9.706816073474177 37.59389936932076,9.691398111979165 37.51864013671875,9.691398111979165 Z M 11.11353352864583,9.730155436197915 C 11.00299653076161,9.730155436197911 10.89357333045915,9.744307898451323 10.78538818359375,9.772530110677081 10.67955488774717,9.798400471884027 10.58301865045651,9.840857858644254 10.49600016276042,9.89965413411458 10.40898167506433,9.956098558566099 10.33948486303888,10.03140610247664 10.287744140625,10.12548014322917 10.2360034182111,10.21720233296288 10.2102294921875,10.32915653174854 10.2102294921875,10.46086018880208 10.2102294921875,10.57845273974273 10.230192686326,10.67953420967688 10.27017415364583,10.76420084635416 10.31015562096566,10.84886748303144 10.36296897225448,10.92164402845877 10.42882080078125,10.98279215494791 10.49702448032683,11.04158843041824 10.57106652499577,11.09313628246546 10.65102945963542,11.13782145182291 10.73099239427506,11.18015477016155 10.81009643591041,11.22008115843857 10.88770751953125,11.25771077473958 10.96767045417089,11.29298854002178 11.04044699959823,11.32836969565531 11.106298828125,11.3636474609375 11.17450250767059,11.3989252262197 11.22858135820101,11.43885161449671 11.26856282552083,11.48353678385416 11.30854429284066,11.5258701021928 11.32850748697917,11.57793471856293 11.32850748697916,11.63908284505208 11.32850748697916,11.69552726950359 11.31107529132386,11.74126438966571 11.27579752604166,11.77654215494792 11.24287161177828,11.80946806921129 11.19914872577645,11.8339764959933 11.14505615234375,11.850439453125 11.09331542992986,11.86455055923788 11.04050207864104,11.87162679036458 10.98640950520833,11.87162679036458 10.90409471954987,11.87162679036458 10.83333240828282,11.85873982735278 10.7745361328125,11.83286946614583 10.71809170836098,11.80699910493889 10.66780935555536,11.77667994627177 10.62312418619791,11.74140218098958 10.58079086785927,11.70612441570738 10.54086447958226,11.67528849271736 10.50323486328125,11.64941813151041 10.46795709799905,11.62354777030348 10.42877944464072,11.61066080729166 10.38644612630208,11.61066080729166 10.34176095694464,11.61066080729166 10.30056906942601,11.62734426802829 10.262939453125,11.66027018229167 10.2276616878428,11.69319609655505 10.19987352765889,11.73312248483207 10.17870686848958,11.78015950520833 10.15754020932026,11.82484467456579 10.14666748046875,11.86678529700309 10.14666748046875,11.90676676432291 10.14666748046875,11.98437784794375 10.18532836950416,12.0589366569356 10.262939453125,12.1294921875 10.34055053674583,12.19769586704557 10.44416300516319,12.25378895173629 10.57351481119792,12.29847412109375 10.70286661723264,12.3431592904512 10.84387447544382,12.36565348307292 10.99674479166666,12.36565348307292 11.16842991604003,12.36565348307291 11.32031050310271,12.33608305932449 11.45201416015625,12.27728678385416 11.58371781720979,12.21613865736503 11.68733028562715,12.12794415044268 11.76258951822916,12.01270345052083 11.84020060184999,11.89511089958017 11.87886149088541,11.75157204288579 11.87886149088541,11.58223876953125 11.87886149088542,11.45523881451534 11.85889829674691,11.3463323785358 11.81891682942708,11.25461018880208 11.77893536210726,11.16288799906837 11.72485651157683,11.08504945667462 11.65665283203125,11.02154947916666 11.59080100350449,10.9580495016587 11.51802445807715,10.90397065112828 11.4380615234375,10.85928548177083 11.35809858879785,10.81224846139457 11.27772904792089,10.77232207311754 11.19776611328125,10.73939615885416 11.12015502966042,10.70411839357197 11.04737848423308,10.67126823642165 10.9791748046875,10.64069417317708 10.91332297616073,10.6077682589137 10.86050962487191,10.57365260252178 10.82052815755208,10.53837483723958 10.78054669023226,10.50074522093857 10.76058349609375,10.45702233493674 10.76058349609375,10.40763346354166 10.76058349609375,10.37000384724065 10.77220495986396,10.33588819084873 10.79572347005208,10.30531412760416 10.81924198024021,10.27238821334078 10.85715413435694,10.24661428731717 10.90889485677083,10.22779947916666 10.96298743020353,10.20663281999735 11.03121874298737,10.19627685546875 11.11353352864583,10.19627685546875 11.20995942041717,10.19627685546875 11.28526696432771,10.20789831923895 11.33935953776041,10.23141682942708 11.39580396221193,10.2525834885964 11.44154108237405,10.27507768121811 11.47681884765625,10.29859619140625 11.51444846395725,10.31976285057556 11.55437485223428,10.33011881510416 11.59670817057291,10.33011881510416 11.6484488929868,10.33011881510416 11.68964078050543,10.31268661944886 11.72021484375,10.27740885416666 11.75314075801339,10.24213108888447 11.77638368555379,10.20168793628453 11.79049479166666,10.15700276692708 11.80695774879836,10.10996574655082 11.81529947916667,10.0713048575154 11.81529947916667,10.04073079427083 11.81529947916667,9.972527114725254 11.78826005390145,9.91844826419482 11.73416748046875,9.878466796874997 11.68007490703605,9.836133478536359 11.61310909349381,9.804548820627649 11.53314615885416,9.78338216145833 11.45553507523333,9.762215502289011 11.37769653283958,9.748063040035603 11.30008544921875,9.741007486979164 11.22247436559792,9.733951933922728 11.1605705490221,9.730155436197916 11.11353352864583,9.730155436197915 Z M 63.32119954427082,9.751342773437498 C 63.24829216268764,9.751342773437498 63.18915131519078,9.768026234174115 63.14446614583332,9.800952148437497 63.10213282749469,9.833878062700881 63.08090413411457,9.872538951736295 63.08090413411457,9.917224121093747 V 12.16463216145833 C 63.08090413411456,12.20931733081578 63.10213282749469,12.2479782198512 63.14446614583332,12.28090413411458 63.18915131519079,12.31383004837798 63.24829216268762,12.33051350911458 63.32119954427082,12.33051350911458 H 63.94545084635416 C 64.10772856665225,12.33051350911458 64.25454715674851,12.30347408384937 64.38625081380206,12.24938151041667 64.51795447085558,12.19528893698396 64.62156693927296,12.10709443006162 64.69682617187497,11.98479817708333 64.77443725549578,11.86250192410505 64.81309814453122,11.70026537251376 64.81309814453122,11.49800618489583 V 10.58385009765625 C 64.81309814453122,10.38159091003832 64.77443725549581,10.21935435844703 64.69682617187497,10.09705810546875 64.62156693927295,9.97476185249047 64.51795447085558,9.886567345568117 64.38625081380206,9.832474772135414 64.25454715674851,9.778382198702713 64.10772856665225,9.751342773437498 63.94545084635416,9.751342773437498 Z M 65.74482421874998,9.751342773437498 C 65.67662053920442,9.751342773437498 65.61293445906406,9.772571466817611 65.55413818359373,9.814904785156247 65.49769375914219,9.854886252476067 65.46938883463541,9.925648563743113 65.46938883463541,10.02677815755208 V 12.16101481119791 C 65.46938883463542,12.21745923564942 65.49769375914219,12.25991662240965 65.55413818359373,12.28813883463542 65.61293445906403,12.31636104686118 65.67662053920439,12.33051350911458 65.74482421874998,12.33051350911458 65.81302789829554,12.33051350911458 65.87493171487136,12.31636104686118 65.93137613932289,12.28813883463542 65.99017241479322,12.25991662240965 66.01974283854166,12.21745923564943 66.01974283854166,12.16101481119791 V 10.80295817057291 L 66.35512288411456,11.41687418619791 C 66.3762895432839,11.45685565351774 66.40206346930749,11.48389507878296 66.43263753255206,11.49800618489583 66.46556344681545,11.51211729100871 66.49714810472417,11.51919352213542 66.52772216796873,11.51919352213541 66.56064808223213,11.51919352213542 66.59349823938244,11.51211729100871 66.62642415364581,11.49800618489583 66.6593500679092,11.48154322776414 66.68765499241601,11.45450380249893 66.71117350260415,11.41687418619791 L 67.04965413411457,10.83809814453125 V 12.16101481119791 C 67.04965413411457,12.21745923564942 67.07795905862137,12.25991662240965 67.1344034830729,12.28813883463542 67.19319975854321,12.31636104686118 67.25688583868354,12.33051350911458 67.32508951822913,12.33051350911458 67.39329319777475,12.33051350911458 67.45571377867345,12.31636104686118 67.51215820312498,12.28813883463542 67.57095447859528,12.25991662240965 67.60000813802081,12.21745923564943 67.60000813802082,12.16101481119791 V 10.02677815755208 C 67.60000813802082,9.925648563743115 67.57221997783689,9.854886252476072 67.51577555338541,9.814904785156247 67.45933112893388,9.772571466817611 67.39564504879355,9.751342773437498 67.32508951822913,9.751342773437498 67.25923768970237,9.751342773437498 67.20262784068873,9.757670269645515 67.15559082031248,9.769429524739582 67.11090565095503,9.778836928814833 67.06844826419481,9.803345355596841 67.02846679687498,9.843326822916662 66.99083718057399,9.880956439217671 66.94763105889505,9.942111520874803 66.89824218749997,10.02677815755208 L 66.53495686848957,10.66188151041666 66.17167154947914,10.02677815755208 C 66.12463452910292,9.942111520874805 66.08091164310106,9.880956439217673 66.04093017578124,9.843326822916662 66.00094870846139,9.803345355596841 65.95722582245959,9.778836928814833 65.91018880208332,9.769429524739582 65.86550363272587,9.757670269645515 65.81067604727674,9.751342773437498 65.74482421874998,9.751342773437498 Z M 68.46093749999998,9.751342773437498 C 68.43036343675538,9.751342773437498 68.407120509215,9.766760734932509 68.39065755208332,9.797334798177081 68.3765464459704,9.825557010402839 68.36693921636053,9.866748897921462 68.3622355143229,9.920841471354162 L 68.26715087890623,10.80967610677083 C 68.26479902788743,10.82849091492134 68.26226802940419,10.84643987489955 68.25991617838541,10.86290283203125 V 10.91199544270833 C 68.25991617838538,10.9778472712351 68.27533413988041,11.03117738684685 68.30590820312498,11.07115885416667 68.33648226636951,11.10878847046768 68.39182661614158,11.12748616536458 68.47178955078122,11.12748616536458 H 69.00767415364582 C 69.10410004541718,11.12748616536459 69.18067308856926,11.1557910898714 69.23711751302082,11.21223551432291 69.29356193747233,11.26867993877444 69.32186686197916,11.35560894645517 69.32186686197916,11.47320149739583 V 11.540380859375 C 69.32186686197916,11.65562155929684 69.29356193747233,11.74001956849438 69.23711751302082,11.79411214192708 69.18067308856926,11.84585286434098 69.10208581125687,11.87162679036458 69.00095621744789,11.87162679036458 68.94451179299639,11.87162679036458 68.89244717662623,11.86328505999627 68.84541015624998,11.84682210286458 68.79837313587377,11.83035914573288 68.76097774607991,11.80711621819248 68.73275553385416,11.77654215494792 68.7068851726472,11.74361624068453 68.69399820963541,11.70368985240751 68.69399820963541,11.65665283203125 68.69399820963542,11.60020840757973 68.67731474889879,11.55194028893441 68.64438883463539,11.51195882161458 68.61381477139083,11.47197735429477 68.53850722748029,11.45201416015625 68.41856282552082,11.45201416015625 68.33154433782469,11.45201416015625 68.26331302504088,11.46818085656995 68.21392415364582,11.50110677083333 68.16688713326952,11.53403268509672 68.14364420572916,11.59898426447866 68.14364420572916,11.69541015625 68.14364420572917,11.80594715413422 68.17649436287946,11.91157385671187 68.24234619140624,12.01270345052083 68.30819801993301,12.11148119331098 68.40548299214235,12.19259946910663 68.53483479817707,12.25609944661458 68.66653845523059,12.31959942412254 68.82676077266158,12.35170084635416 69.01490885416663,12.35170084635416 69.17248287242711,12.35170084635416 69.31602172912151,12.32541015600764 69.44537353515623,12.27366943359375 69.57472534119095,12.21957686016105 69.67782104528541,12.1326478524803 69.75543212890623,12.01270345052083 69.83304321252707,11.89275904856136 69.87222086588541,11.73558449393649 69.87222086588541,11.540380859375 V 11.47320149739583 C 69.87222086588538,11.28505341589078 69.83304321252707,11.1344383280697 69.75543212890623,11.02154947916666 69.68017289630424,10.90866063026363 69.57707719220978,10.82754235446799 69.44537353515623,10.77815348307291 69.31602172912147,10.72876461167784 69.16995187394391,10.70425618489583 69.00767415364582,10.70425618489583 H 68.77823079427082 L 68.81388753255207,10.23141682942708 H 69.58645019531248 C 69.64054276874522,10.23141682942708 69.6804691570222,10.20639163832215 69.70633951822914,10.15700276692708 69.73220987943608,10.10526204451319 69.74509684244789,10.05043445906408 69.74509684244789,9.991638183593748 69.74509684244792,9.930490057104606 69.73220987943608,9.875145707332572 69.70633951822914,9.825756835937497 69.6804691570222,9.776367964542425 69.64054276874519,9.751342773437498 69.58645019531248,9.751342773437498 Z M 71.24423014322914,9.751342773437498 C 71.08195242293099,9.751342773437496 70.93513383283476,9.778382198702711 70.80343017578123,9.832474772135414 70.67407836974649,9.886567345568117 70.57046590132914,9.974761852490468 70.49285481770832,10.09705810546875 70.41759558510628,10.21935435844703 70.38020019531248,10.38159091003832 70.38020019531248,10.58385009765625 V 11.51919352213541 C 70.38020019531248,11.72145270975335 70.41759558510628,11.88368926134463 70.49285481770832,12.00598551432291 70.57046590132914,12.1282817673012 70.67407836974649,12.21647627422355 70.80343017578123,12.27056884765625 70.93513383283482,12.32466142108896 71.08195242293102,12.35170084635417 71.24423014322914,12.35170084635416 71.40650786352722,12.35170084635416 71.55384321794643,12.32466142108896 71.68554687499998,12.27056884765625 71.81725053205352,12.21647627422355 71.92034623614799,12.1282817673012 71.99560546874998,12.00598551432291 72.07321655237079,11.88368926134463 72.11239420572914,11.72145270975334 72.11239420572914,11.51919352213541 V 10.58385009765625 C 72.11239420572914,10.38159091003832 72.07321655237082,10.21935435844703 71.99560546874998,10.09705810546875 71.92034623614793,9.97476185249047 71.81725053205352,9.886567345568117 71.68554687499998,9.832474772135414 71.55384321794645,9.778382198702713 71.40650786352725,9.751342773437498 71.24423014322914,9.751342773437498 Z M 14.5634521484375,9.82213948567708 C 14.48348921379784,9.82213948567708 14.41525790101401,9.846647912459088 14.3588134765625,9.896036783854164 14.30236905211099,9.945425655249238 14.27406412760417,10.00456650274608 14.27406412760416,10.07277018229166 14.27406412760417,10.13862201081843 14.30236905211098,10.19724609399236 14.3588134765625,10.24898681640625 14.41525790101401,10.30072753882013 14.48348921379785,10.32650146484375 14.5634521484375,10.32650146484375 14.64341508307714,10.32650146484375 14.71038089661938,10.30072753882013 14.76447347005208,10.24898681640625 14.82091789450361,10.19724609399236 14.84922281901041,10.13862201081844 14.84922281901041,10.07277018229166 14.84922281901041,10.00456650274609 14.8209178945036,9.945425655249238 14.76447347005208,9.896036783854164 14.71038089661938,9.84664791245909 14.64341508307714,9.82213948567708 14.5634521484375,9.82213948567708 Z M 21.56974283854166,9.82213948567708 C 21.48977990390202,9.82213948567708 21.42154859111818,9.846647912459088 21.36510416666666,9.896036783854164 21.30865974221514,9.945425655249238 21.28035481770833,10.00456650274608 21.28035481770833,10.07277018229166 21.28035481770833,10.13862201081843 21.30865974221514,10.19724609399236 21.36510416666666,10.24898681640625 21.42154859111817,10.30072753882013 21.48977990390201,10.32650146484375 21.56974283854166,10.32650146484375 21.64970577318131,10.32650146484375 21.71667158672354,10.30072753882013 21.77076416015625,10.24898681640625 21.82720858460776,10.19724609399236 21.85551350911458,10.13862201081844 21.85551350911458,10.07277018229166 21.85551350911458,10.00456650274609 21.82720858460776,9.945425655249238 21.77076416015625,9.896036783854164 21.71667158672353,9.84664791245909 21.64970577318131,9.82213948567708 21.56974283854166,9.82213948567708 Z M 19.97139078776041,9.920841471354162 C 19.90789081025246,9.920841471354169 19.84673572859533,9.936259432849176 19.78793945312499,9.966833496093748 19.72914317765467,9.99740755933832 19.70008951822916,10.03733394761534 19.70008951822916,10.08672281901042 V 11.73416748046875 C 19.70008951822916,11.94113037012431 19.75871360140309,12.09301095718699 19.87630615234375,12.18943684895833 19.9962505543032,12.28351088971086 20.16809433550441,12.33051350911458 20.39152018229166,12.33051350911458 H 20.54293212890624 C 20.6228950635459,12.33051350911458 20.68203591104274,12.30675381725126 20.71966552734375,12.259716796875 20.75729514364475,12.21267977649874 20.77599283854166,12.15986642520991 20.77599283854166,12.10107014973958 20.77599283854167,12.04462572528808 20.75729514364476,11.99307787324085 20.71966552734375,11.94604085286458 20.68203591104274,11.89665198146951 20.6228950635459,11.87162679036458 20.54293212890624,11.87162679036458 H 20.39152018229166 C 20.33742760885895,11.87162679036458 20.29951545474223,11.86253632507759 20.27834879557291,11.84372151692708 20.25718213640359,11.82255485775776 20.246826171875,11.78590820288263 20.246826171875,11.73416748046875 V 11.03911946614583 H 20.64525146484374 C 20.68993663420119,11.03911946614583 20.72278679135151,11.01915627200732 20.74395345052083,10.9791748046875 20.76747196070896,10.93919333736768 20.77961018880208,10.89472171644716 20.77961018880208,10.84533284505208 20.77961018880208,10.79829582467582 20.76747196070896,10.75457293867398 20.74395345052083,10.71459147135417 20.72278679135151,10.67225815301552 20.68993663420119,10.65102945963542 20.64525146484374,10.65102945963542 H 20.246826171875 V 10.08672281901042 C 20.24682617187499,10.03733394761534 20.21725574812657,9.997407559338318 20.15845947265625,9.966833496093748 20.10201504820473,9.936259432849178 20.03959446730599,9.920841471354165 19.97139078776041,9.920841471354162 Z M 40.72929687499999,9.920841471354162 C 40.66579689749204,9.920841471354169 40.6046418158349,9.936259432849176 40.54584554036458,9.966833496093748 40.48704926489427,9.99740755933832 40.45747884114583,10.03733394761534 40.45747884114583,10.08672281901042 V 11.73416748046875 C 40.45747884114582,11.94113037012431 40.51610292431976,12.09301095718699 40.63369547526041,12.18943684895833 40.75363987721988,12.28351088971086 40.9254836584211,12.33051350911458 41.14890950520833,12.33051350911458 H 41.30032145182291 C 41.38028438646257,12.33051350911458 41.43942523395941,12.30675381725126 41.47705485026041,12.259716796875 41.51468446656145,12.21267977649874 41.53338216145833,12.15986642520991 41.53338216145833,12.10107014973958 41.53338216145832,12.04462572528808 41.51468446656143,11.99307787324085 41.47705485026041,11.94604085286458 41.43942523395944,11.89665198146951 41.38028438646257,11.87162679036458 41.30032145182291,11.87162679036458 H 41.14890950520833 C 41.09481693177563,11.87162679036458 41.0569047776589,11.86253632507759 41.03573811848958,11.84372151692708 41.01457145932025,11.82255485775776 41.00421549479166,11.78590820288263 41.00421549479166,11.73416748046875 V 11.03911946614583 H 41.40264078776041 C 41.44732595711786,11.03911946614583 41.48069287859109,11.01915627200732 41.50185953776041,10.9791748046875 41.52537804794851,10.93919333736768 41.53699951171874,10.89472171644716 41.53699951171874,10.84533284505208 41.53699951171875,10.79829582467582 41.52537804794853,10.75457293867398 41.50185953776041,10.71459147135417 41.48069287859107,10.67225815301552 41.44732595711786,10.65102945963542 41.40264078776041,10.65102945963542 H 41.00421549479166 V 10.08672281901042 C 41.00421549479167,10.03733394761534 40.97464507104324,9.997407559338318 40.91584879557291,9.966833496093748 40.8594043711214,9.936259432849178 40.79750055454557,9.920841471354165 40.72929687499999,9.920841471354162 Z M 63.63125813802082,10.23141682942708 H 63.94545084635416 C 64.04422858914429,10.23141682942708 64.12206713153804,10.26047048885258 64.17851155598957,10.31926676432292 64.23495598044107,10.37571118877443 64.26274414062497,10.46390569569678 64.26274414062497,10.58385009765625 V 11.49800618489583 C 64.26274414062497,11.6179505868553 64.23495598044107,11.70689382869633 64.17851155598957,11.76569010416666 64.12206713153804,11.82213452861818 64.04422858914431,11.850439453125 63.94545084635416,11.850439453125 H 63.63125813802082 Z M 71.24423014322914,10.23141682942708 C 71.34300788601929,10.23141682942708 71.42084642841304,10.2597217539339 71.47729085286457,10.31616617838541 71.53373527731612,10.37261060283692 71.56204020182289,10.46155384467796 71.56204020182289,10.58385009765625 V 11.51919352213541 C 71.56204020182289,11.64148977511371 71.53373527731608,11.73043301695473 71.47729085286457,11.78687744140625 71.42084642841301,11.84332186585777 71.34300788601929,11.87162679036458 71.24423014322914,11.87162679036458 71.14545240043895,11.87162679036458 71.06813062236814,11.84332186585777 71.01168619791664,11.78687744140625 70.95759362448393,11.73043301695473 70.93055419921873,11.6414897751137 70.93055419921873,11.51919352213541 V 10.58385009765625 C 70.93055419921873,10.46155384467796 70.95759362448393,10.37261060283693 71.01168619791664,10.31616617838541 71.06813062236817,10.2597217539339 71.14545240043901,10.23141682942708 71.24423014322914,10.23141682942708 Z M 13.15940348307291,10.62984212239583 C 12.97595910360549,10.62984212239583 12.8253440157844,10.66269227954614 12.70775146484375,10.72854410807292 12.59015891390309,10.79439593659968 12.50322990622234,10.88385594276363 12.44678548177083,10.99674479166666 12.39269290833812,11.1096336405697 12.36565348307291,11.23648903652746 12.36565348307292,11.37760009765625 V 11.6178955078125 C 12.36565348307292,11.75900656894128 12.39269290833812,11.88586196489905 12.44678548177083,11.99875081380208 12.50322990622234,12.11163966270511 12.59015891390309,12.20109966886907 12.70775146484375,12.26695149739583 12.82769586680322,12.3328033259226 12.98084195310751,12.36565348307291 13.16663818359375,12.36565348307292 13.28187888351558,12.36565348307292 13.38549135193295,12.3515010208195 13.47721354166666,12.32327880859375 13.56893573140037,12.29270474534917 13.64171227682771,12.25404385631376 13.69580485026041,12.2070068359375 13.74989742369312,12.15761796454242 13.77693684895833,12.10681884741388 13.77693684895833,12.055078125 13.77693684895833,12.0198003597178 13.76732961934842,11.98240496992399 13.74851481119791,11.94242350260416 13.73205185406621,11.90009018426553 13.70627792804261,11.86470902863201 13.67100016276041,11.83648681640625 13.63572239747822,11.80826460418049 13.59326501071799,11.79411214192708 13.54387613932291,11.79411214192708 13.51330207607835,11.79411214192708 13.48424841665285,11.80245387229539 13.45602620442708,11.81891682942708 13.43015584322013,11.83302793553996 13.3980544209885,11.84844589703497 13.3604248046875,11.86490885416666 13.32279518838648,11.88137181129836 13.27251283558087,11.88919677734375 13.20901285807291,11.88919677734375 13.10082771120751,11.88919677734375 13.02425466805537,11.86595384980335 12.97956949869791,11.81891682942708 12.93488432934047,11.77187980905083 12.91239013671875,11.70491399550858 12.91239013671875,11.6178955078125 V 11.37760009765625 C 12.91239013671875,11.29058160996016 12.93488432934047,11.22361579641793 12.97956949869791,11.17657877604166 13.02425466805538,11.1295417556654 13.09956221196591,11.106298828125 13.2053955078125,11.106298828125 13.26889548532044,11.106298828125 13.32044333736767,11.1133750592517 13.3604248046875,11.12748616536458 13.40040627200732,11.14159727147746 13.43325642915763,11.15574973373087 13.45912679036458,11.16986083984375 13.48734900259034,11.18397194595663 13.51565392709716,11.19104817708333 13.54387613932291,11.19104817708333 13.58620945766155,11.19104817708333 13.62285611253667,11.17563021558832 13.65343017578125,11.14505615234375 13.68635609004463,11.11448208909918 13.71086451682664,11.07783543422405 13.72732747395833,11.03550211588541 13.74614228210884,10.99316879754678 13.75574951171875,10.95577340775297 13.75574951171875,10.92284749348958 13.75574951171875,10.8711067710757 13.72997558569514,10.82283865243037 13.67823486328125,10.77815348307291 13.62649414086736,10.73346831371547 13.55573182960031,10.69808715808194 13.46636149088541,10.672216796875 13.37699115217051,10.64399458464924 13.27464418299476,10.62984212239583 13.15940348307291,10.62984212239583 Z M 16.20727945963541,10.62984212239583 C 16.05676099443137,10.62984212239583 15.9202983688637,10.66395777878775 15.79800211588541,10.73216145833333 15.67570586290713,10.7980132868601 15.57842089069779,10.88620779378245 15.50551350911458,10.99674479166666 15.43260612753138,11.10728178955088 15.39595947265625,11.22832645362355 15.39595947265625,11.36003011067708 V 11.6178955078125 C 15.39595947265624,11.76606212199772 15.43387162677298,11.89619725135738 15.509130859375,12.00908610026042 15.58674194299582,12.12197494916344 15.69236864557348,12.2101694560858 15.82642415364583,12.27366943359375 15.96047966171817,12.33481756008289 16.11437448294116,12.36565348307291 16.28841145833333,12.36565348307292 16.42246696640568,12.36565348307291 16.53770089859324,12.34897002233629 16.63412679036458,12.31604410807291 16.73290453315473,12.28076634279071 16.80947757630687,12.2388257203534 16.86357014973958,12.18943684895833 16.91766272317228,12.14004797756325 16.9447021484375,12.09304535815953 16.9447021484375,12.04836018880208 16.9447021484375,12.02013797657632 16.93636041806919,11.9867710551031 16.91989746093749,11.94914143880208 16.90578635482462,11.91151182250108 16.88380892652581,11.87866166535076 16.85323486328125,11.850439453125 16.82266080003668,11.82221724089924 16.78601414516155,11.80806477864583 16.74368082682291,11.80806477864583 16.7060512105219,11.80806477864583 16.66739032148649,11.81893750749734 16.62740885416666,11.84010416666666 16.58742738684684,11.86127082583598 16.5411735023618,11.88324825413478 16.48943277994791,11.90676676432291 16.43769205753402,11.92793342349223 16.37578824095821,11.93880615234375 16.302880859375,11.93880615234375 16.1946957125096,11.93880615234375 16.10724994050594,11.91303222632013 16.04139811197916,11.86129150390625 15.9755462834524,11.80719893047355 15.94269612630208,11.7364366192065 15.94269612630208,11.64941813151041 V 11.62823079427083 H 16.62379150390625 C 16.67788407733895,11.62823079427083 16.73069742862777,11.62368556162733 16.78243815104166,11.61427815755208 16.83653072447437,11.60251890245801 16.8802536104762,11.5742139779512 16.91317952473958,11.52952880859375 16.94845729002177,11.48249178821749 16.96588948567708,11.40591874506534 16.96588948567708,11.30008544921875 16.96588948567708,11.1660299411464 16.93050833004355,11.04953050971723 16.85995279947916,10.95075276692708 16.78939726891476,10.84962317311812 16.69665752934892,10.77103589580568 16.58141682942708,10.71459147135417 16.46852798052406,10.65814704690265 16.34368681872657,10.62984212239583 16.20727945963541,10.62984212239583 Z M 18.50067952473958,10.62984212239583 C 18.38308697379892,10.62984212239583 18.28275423878345,10.65814704690265 18.200439453125,10.71459147135417 18.11812466746653,10.76868404478686 18.06076608353421,10.82983912644399 18.02784016927083,10.89804280598958 V 10.81691080729166 C 18.02784016927084,10.76752193589659 18.00408047740751,10.72759554761957 17.95704345703125,10.697021484375 17.91000643665498,10.66644742113042 17.85391335196426,10.65102945963542 17.78806152343749,10.65102945963542 17.70809858879785,10.65102945963542 17.6418815101743,10.66644742113042 17.59014078776041,10.697021484375 17.54075191636534,10.72759554761957 17.51624348958333,10.76752193589659 17.51624348958333,10.81691080729166 V 12.16101481119791 C 17.51624348958333,12.20334812953654 17.54075191636534,12.24200901857197 17.59014078776041,12.27728678385416 17.6418815101743,12.31256454913637 17.70809858879785,12.33051350911458 17.78806152343749,12.33051350911458 17.86332075603951,12.33051350911457 17.92775557109854,12.31256454913637 17.98184814453124,12.27728678385416 18.03594071796395,12.24200901857198 18.06298014322916,12.20334812953655 18.06298014322916,12.16101481119791 V 11.37088216145833 C 18.06298014322916,11.31443773700682 18.07460160699936,11.26743511760309 18.09812011718749,11.22980550130208 18.12163862737563,11.18982403398226 18.15120905112405,11.15898811099224 18.18648681640625,11.13782145182291 18.22411643270726,11.11665479265359 18.26202858682399,11.106298828125 18.29965820312499,11.106298828125 18.34669522350126,11.106298828125 18.38863584593856,11.1191857911368 18.42626546223958,11.14505615234375 18.4662469295594,11.17092651355069 18.49708285254942,11.20377667070101 18.51824951171875,11.24375813802083 18.54176802190687,11.28373960534066 18.55338948567708,11.32619699210088 18.55338948567708,11.37088216145833 V 12.16101481119791 C 18.55338948567708,12.21745923564942 18.58295990942551,12.25991662240965 18.64175618489583,12.28813883463542 18.70055246036615,12.31636104686118 18.76170754202328,12.33051350911458 18.82520751953125,12.33051350911458 18.89341119907682,12.33051350911458 18.95583177997556,12.31636104686118 19.01227620442708,12.28813883463542 19.0710724798974,12.25991662240965 19.10012613932291,12.21745923564943 19.10012613932291,12.16101481119791 V 11.37088216145833 C 19.10012613932291,11.23447480236717 19.07182121481609,11.1108991398113 19.01537679036458,11.00036214192708 18.96128421693187,10.88747329302405 18.88850767150454,10.7980132868601 18.79678548177083,10.73216145833333 18.70741514305592,10.66395777878775 18.60886467160499,10.62984212239583 18.50067952473958,10.62984212239583 Z M 25.89454345703124,10.62984212239583 C 25.71109907756381,10.62984212239583 25.56100075406564,10.66269227954614 25.44340820312499,10.72854410807292 25.32581565218433,10.79439593659968 25.23836988018068,10.88385594276363 25.18192545572916,10.99674479166666 25.12783288229646,11.1096336405697 25.10079345703125,11.23648903652746 25.10079345703124,11.37760009765625 V 11.6178955078125 C 25.10079345703125,11.75900656894128 25.12783288229646,11.88586196489905 25.18192545572916,11.99875081380208 25.23836988018067,12.11163966270511 25.32581565218433,12.20109966886907 25.44340820312499,12.26695149739583 25.56335260508446,12.3328033259226 25.71598192706584,12.36565348307291 25.90177815755208,12.36565348307292 26.01701885747391,12.36565348307292 26.12063132589128,12.3515010208195 26.21235351562499,12.32327880859375 26.3040757053587,12.29270474534917 26.37685225078604,12.25404385631376 26.43094482421874,12.2070068359375 26.48503739765145,12.15761796454242 26.51207682291666,12.10681884741388 26.51207682291666,12.055078125 26.51207682291666,12.0198003597178 26.50246959330675,11.98240496992399 26.48365478515624,11.94242350260416 26.46719182802455,11.90009018426553 26.44141790200094,11.86470902863201 26.40614013671874,11.83648681640625 26.37086237143654,11.80826460418049 26.32840498467631,11.79411214192708 26.27901611328124,11.79411214192708 26.24844205003667,11.79411214192708 26.21938839061117,11.80245387229539 26.19116617838541,11.81891682942708 26.16529581717847,11.83302793553996 26.13371115926975,11.84844589703497 26.09608154296874,11.86490885416666 26.05845192666773,11.88137181129836 26.00765280953919,11.88919677734375 25.94415283203125,11.88919677734375 25.83596768516582,11.88919677734375 25.75939464201369,11.86595384980335 25.71470947265624,11.81891682942708 25.6700243032988,11.77187980905083 25.64804687499999,11.70491399550858 25.64804687499999,11.6178955078125 V 11.37760009765625 C 25.64804687499998,11.29058160996016 25.67002430329879,11.22361579641793 25.71470947265624,11.17657877604166 25.75939464201369,11.1295417556654 25.83470218592423,11.106298828125 25.94053548177083,11.106298828125 26.00403545927878,11.106298828125 26.05610007564891,11.1133750592517 26.09608154296874,11.12748616536458 26.13606301028857,11.14159727147746 26.16891316743889,11.15574973373087 26.19478352864583,11.16986083984375 26.22300574087157,11.18397194595663 26.25079390105548,11.19104817708333 26.27901611328124,11.19104817708333 26.32134943161987,11.19104817708333 26.35799608649501,11.17563021558832 26.38857014973958,11.14505615234375 26.42149606400296,11.11448208909918 26.44600449078496,11.07783543422405 26.46246744791666,11.03550211588541 26.48128225606715,10.99316879754678 26.49088948567707,10.95577340775297 26.49088948567708,10.92284749348958 26.49088948567707,10.8711067710757 26.46511555965346,10.82283865243037 26.41337483723958,10.77815348307291 26.36163411482569,10.73346831371547 26.29087180355865,10.69808715808194 26.20150146484374,10.672216796875 26.11213112612886,10.64399458464924 26.00978415695308,10.62984212239583 25.89454345703124,10.62984212239583 Z M 28.77343749999999,10.62984212239583 C 28.58999312053256,10.62984212239583 28.43937803271148,10.66269227954614 28.32178548177083,10.72854410807292 28.20419293083018,10.79439593659968 28.11726392314943,10.88385594276363 28.06081949869791,10.99674479166666 28.00672692526522,11.1096336405697 27.97968749999999,11.23648903652746 27.97968749999999,11.37760009765625 V 11.6178955078125 C 27.97968749999999,11.75900656894128 28.00672692526521,11.88586196489905 28.06081949869791,11.99875081380208 28.11726392314943,12.11163966270511 28.20419293083018,12.20109966886907 28.32178548177083,12.26695149739583 28.4417298837303,12.3328033259226 28.5948759700346,12.36565348307291 28.78067220052083,12.36565348307292 28.89591290044267,12.36565348307292 28.99900860453712,12.3515010208195 29.09073079427083,12.32327880859375 29.18245298400454,12.29270474534917 29.25574629375479,12.25404385631376 29.30983886718749,12.2070068359375 29.36393144062018,12.15761796454242 29.39097086588541,12.10681884741388 29.39097086588541,12.055078125 29.39097086588541,12.0198003597178 29.3813636362755,11.98240496992399 29.36254882812499,11.94242350260416 29.3460858709933,11.90009018426553 29.32031194496969,11.86470902863201 29.28503417968749,11.83648681640625 29.24975641440529,11.80826460418049 29.20729902764507,11.79411214192708 29.15791015624999,11.79411214192708 29.12733609300543,11.79411214192708 29.097765669257,11.80245387229539 29.06954345703124,11.81891682942708 29.0436730958243,11.83302793553996 29.01208843791558,11.84844589703497 28.97445882161458,11.86490885416666 28.93682920531356,11.88137181129836 28.88654685250794,11.88919677734375 28.82304687499999,11.88919677734375 28.71486172813458,11.88919677734375 28.63828868498245,11.86595384980335 28.59360351562499,11.81891682942708 28.54891834626756,11.77187980905083 28.52642415364582,11.70491399550858 28.52642415364583,11.6178955078125 V 11.37760009765625 C 28.52642415364581,11.29058160996016 28.54891834626755,11.22361579641793 28.59360351562499,11.17657877604166 28.63828868498245,11.1295417556654 28.71359622889298,11.106298828125 28.81942952473958,11.106298828125 28.88292950224754,11.106298828125 28.93447735429475,11.1133750592517 28.97445882161458,11.12748616536458 29.0144402889344,11.14159727147746 29.04729044608471,11.15574973373087 29.07316080729166,11.16986083984375 29.10138301951742,11.18397194595663 29.12968794402424,11.19104817708333 29.15791015624999,11.19104817708333 29.20024347458863,11.19104817708333 29.23689012946376,11.17563021558832 29.26746419270833,11.14505615234375 29.30039010697171,11.11448208909918 29.32489853375372,11.07783543422405 29.34136149088541,11.03550211588541 29.36017629903591,10.99316879754678 29.36978352864582,10.95577340775297 29.36978352864583,10.92284749348958 29.36978352864583,10.8711067710757 29.3434928382993,10.82283865243037 29.29175211588541,10.77815348307291 29.24001139347152,10.73346831371547 29.16976584652739,10.69808715808194 29.08039550781249,10.672216796875 28.99102516909759,10.64399458464924 28.88867819992184,10.62984212239583 28.77343749999999,10.62984212239583 Z M 30.50563151041666,10.62984212239583 C 30.41861302272057,10.62984212239583 30.32788751731502,10.64146358616603 30.23381347656249,10.66498209635416 30.14209128682878,10.6885006065423 30.06350400951634,10.72186752801553 29.99765218098957,10.76420084635416 29.93415220348162,10.8065341646928 29.90205078125,10.85555101825682 29.90205078124999,10.91199544270833 29.90205078125,10.97549542021629 29.91746874274501,11.03665050187342 29.94804280598958,11.09544677734375 29.98096872025297,11.15424305281408 30.02670584041509,11.1838134765625 30.08550211588541,11.1838134765625 30.1184280301488,11.1838134765625 30.14799845389722,11.17420624695259 30.17386881510416,11.15539143880208 30.1997391763111,11.13422477963276 30.23638583118623,11.11426158549426 30.28342285156249,11.09544677734375 30.33045987193876,11.07663196919324 30.40197091812449,11.06754150390625 30.49839680989583,11.06754150390625 30.56660048944141,11.06754150390625 30.61941384073024,11.08169396615965 30.65704345703124,11.10991617838542 30.69467307333225,11.13578653959236 30.72171249859746,11.16863669674267 30.73817545572916,11.2086181640625 30.75463841286086,11.24859963138232 30.76298014322916,11.28852601965934 30.76298014322916,11.32850748697916 V 11.3636474609375 H 30.63585611979166 C 30.47357839949355,11.3636474609375 30.33055630712209,11.37906542243251 30.20590820312499,11.40963948567708 30.08361195014671,11.44021354892166 29.98707571285605,11.49429239945208 29.91652018229166,11.57190348307291 29.84596465172726,11.64951456669375 29.81058349609374,11.75767226775461 29.81058349609374,11.89643147786458 29.81058349609374,12.05635734714387 29.85505511701425,12.17487101273333 29.94442545572916,12.25248209635416 30.03379579444408,12.32774132895618 30.13993926134463,12.36565348307291 30.26223551432291,12.36565348307292 30.38688361832,12.36565348307292 30.49124482165606,12.3373485585661 30.57591145833333,12.28090413411458 30.66057809501061,12.22210785864426 30.73462013967953,12.15640754434362 30.79812011718749,12.08350016276041 V 12.16101481119791 C 30.7981201171875,12.20805183157417 30.82187980905081,12.2479782198512 30.86891682942708,12.28090413411458 30.91595384980334,12.31383004837798 30.97331243373566,12.33051350911458 31.04151611328124,12.33051350911458 31.11912719690208,12.33051350911458 31.18281327704242,12.31383004837797 31.23220214843749,12.28090413411458 31.28394287085139,12.2479782198512 31.309716796875,12.20805183157418 31.30971679687499,12.16101481119791 V 11.32127278645833 C 31.30971679687499,11.20132838449886 31.28267737160978,11.08989095003611 31.22858479817708,10.98640950520833 31.17449222474437,10.88057620936174 31.08882871630523,10.79439593659968 30.97123616536458,10.72854410807292 30.85364361442392,10.66269227954614 30.69848329395934,10.62984212239583 30.50563151041666,10.62984212239583 Z M 33.88888753255208,10.62984212239583 C 33.70544315308465,10.62984212239583 33.55482806526357,10.66269227954614 33.43723551432291,10.72854410807292 33.31964296338225,10.79439593659968 33.23271395570152,10.88385594276363 33.17626953125,10.99674479166666 33.12217695781728,11.1096336405697 33.09513753255208,11.23648903652746 33.09513753255208,11.37760009765625 V 11.6178955078125 C 33.09513753255208,11.75900656894128 33.12217695781729,11.88586196489905 33.17626953125,11.99875081380208 33.23271395570152,12.11163966270511 33.31964296338225,12.20109966886907 33.43723551432291,12.26695149739583 33.55717991628237,12.3328033259226 33.70980923826376,12.36565348307291 33.89560546874999,12.36565348307292 34.01084616867183,12.36565348307292 34.11445863708921,12.3515010208195 34.20618082682291,12.32327880859375 34.29790301655663,12.29270474534917 34.37067956198396,12.25404385631376 34.42477213541666,12.2070068359375 34.47886470884936,12.15761796454242 34.50590413411458,12.10681884741388 34.50590413411458,12.055078125 34.50590413411458,12.0198003597178 34.49681366882759,11.98240496992399 34.47799886067708,11.94242350260416 34.46153590354541,11.90009018426553 34.43524521319885,11.86470902863201 34.39996744791666,11.83648681640625 34.36468968263447,11.80826460418049 34.32274906019716,11.79411214192708 34.27336018880208,11.79411214192708 34.24278612555753,11.79411214192708 34.21321570180909,11.80245387229539 34.18499348958333,11.81891682942708 34.15912312837637,11.83302793553996 34.12753847046768,11.84844589703497 34.08990885416666,11.86490885416666 34.05227923786565,11.88137181129836 34.00148012073712,11.88919677734375 33.93798014322916,11.88919677734375 33.82979499636375,11.88919677734375 33.7532219532116,11.86595384980335 33.70853678385416,11.81891682942708 33.66385161449672,11.77187980905083 33.64187418619791,11.70491399550858 33.64187418619791,11.6178955078125 V 11.37760009765625 C 33.64187418619791,11.29058160996016 33.66385161449671,11.22361579641793 33.70853678385416,11.17657877604166 33.75322195321162,11.1295417556654 33.82852949712215,11.106298828125 33.93436279296874,11.106298828125 33.99786277047669,11.106298828125 34.04992738684684,11.1133750592517 34.08990885416666,11.12748616536458 34.12989032148648,11.14159727147746 34.1627404786368,11.15574973373087 34.18861083984374,11.16986083984375 34.2168330520695,11.18397194595663 34.24513797657633,11.19104817708333 34.27336018880208,11.19104817708333 34.31569350714072,11.19104817708333 34.35182339769291,11.17563021558832 34.38239746093749,11.14505615234375 34.41532337520087,11.11448208909918 34.4403485663058,11.07783543422405 34.4568115234375,11.03550211588541 34.47562633158802,10.99316879754678 34.48471679687499,10.95577340775297 34.48471679687499,10.92284749348958 34.48471679687499,10.8711067710757 34.45894287085139,10.82283865243037 34.40720214843749,10.77815348307291 34.3554614260236,10.73346831371547 34.28521587907948,10.69808715808194 34.19584554036458,10.672216796875 34.10647520164967,10.64399458464924 34.00412823247392,10.62984212239583 33.88888753255208,10.62984212239583 Z M 39.04981282552083,10.62984212239583 C 38.96279433782475,10.62984212239583 38.87206883241918,10.64146358616603 38.77799479166666,10.66498209635416 38.68627260193296,10.6885006065423 38.60768532462051,10.72186752801553 38.54183349609375,10.76420084635416 38.47833351858578,10.8065341646928 38.44674886067707,10.85555101825682 38.44674886067708,10.91199544270833 38.44674886067708,10.97549542021629 38.46165005784917,11.03665050187342 38.49222412109374,11.09544677734375 38.52515003535713,11.15424305281408 38.57140391984216,11.1838134765625 38.63020019531249,11.1838134765625 38.66312610957587,11.1838134765625 38.69217976900138,11.17420624695259 38.71805013020833,11.15539143880208 38.74392049141527,11.13422477963276 38.7805671462904,11.11426158549426 38.82760416666666,11.09544677734375 38.87464118704293,11.07663196919324 38.94615223322868,11.06754150390625 39.04257812499999,11.06754150390625 39.11078180454557,11.06754150390625 39.16411192015733,11.08169396615965 39.20174153645833,11.10991617838542 39.23937115275933,11.13578653959236 39.26641057802455,11.16863669674267 39.28287353515624,11.2086181640625 39.29933649228794,11.24859963138232 39.30716145833333,11.28852601965934 39.30716145833333,11.32850748697916 V 11.3636474609375 H 39.18055419921874 C 39.01827647892064,11.3636474609375 38.87473762222627,11.37906542243251 38.75008951822916,11.40963948567708 38.62779326525088,11.44021354892166 38.53125702796022,11.49429239945208 38.46070149739583,11.57190348307291 38.39014596683144,11.64951456669375 38.35476481119791,11.75767226775461 38.35476481119791,11.89643147786458 38.35476481119792,12.05635734714387 38.39975319644135,12.17487101273333 38.48912353515625,12.25248209635416 38.57849387387116,12.32774132895618 38.6841205764488,12.36565348307291 38.80641682942708,12.36565348307292 38.93106493342418,12.36565348307292 39.03594290108314,12.3373485585661 39.12060953776041,12.28090413411458 39.20527617443767,12.22210785864426 39.27931821910664,12.15640754434362 39.34281819661458,12.08350016276041 V 12.16101481119791 C 39.34281819661458,12.20805183157417 39.36606112415498,12.2479782198512 39.41309814453124,12.28090413411458 39.46013516490751,12.31383004837798 39.51801051316274,12.33051350911458 39.58621419270833,12.33051350911458 39.66382527632917,12.33051350911458 39.72699459214658,12.31383004837797 39.77638346354166,12.28090413411458 39.82812418595555,12.2479782198512 39.85441487630208,12.20805183157418 39.85441487630208,12.16101481119791 V 11.32127278645833 C 39.85441487630208,11.20132838449886 39.82737545103686,11.08989095003611 39.77328287760416,10.98640950520833 39.71919030417145,10.88057620936174 39.6330100314094,10.79439593659968 39.51541748046874,10.72854410807292 39.3978249295281,10.66269227954614 39.24266460906352,10.62984212239583 39.04981282552083,10.62984212239583 Z M 42.77516682942707,10.62984212239583 C 42.62935206626065,10.62984212239583 42.4954204391762,10.66395777878775 42.37312418619791,10.73216145833333 42.25082793321963,10.80036513787891 42.15302619668737,10.89109064328447 42.08011881510416,11.0039794921875 42.00956328453978,11.11686834109054 41.97418212890625,11.2391785044048 41.97418212890625,11.37088216145833 V 11.6178955078125 C 41.97418212890625,11.74959916486603 42.01082878378137,11.87265806309899 42.08373616536458,11.98789876302083 42.15899539796659,12.10078761192387 42.25679713449886,12.19277861657102 42.37674153645833,12.26333414713541 42.49903778943662,12.331537826681 42.63170391727948,12.36565348307292 42.77516682942707,12.36565348307292 42.91862974157467,12.36565348307292 43.05129586941755,12.33027232743939 43.17359212239583,12.259716796875 43.29588837537414,12.18916126631061 43.39369011190638,12.09768702598636 43.46659749348958,11.98479817708333 43.5418567260916,11.86955747716149 43.57925211588541,11.74724731384721 43.57925211588541,11.6178955078125 V 11.37088216145833 C 43.57925211588541,11.23447480236717 43.54185672609159,11.1108991398113 43.46659749348958,11.00036214192708 43.39369011190639,10.88747329302405 43.29588837537412,10.7980132868601 43.17359212239583,10.73216145833333 43.05129586941755,10.66395777878775 42.91862974157466,10.62984212239583 42.77516682942707,10.62984212239583 Z M 45.07166748046874,10.62984212239583 C 45.01287120499842,10.62984212239583 44.9555126210661,10.64652558313244 44.89906819661457,10.67945149739583 44.84497562318188,10.71002556064041 44.79544200529495,10.74995194891743 44.7507568359375,10.7993408203125 44.70842351759885,10.84637784068876 44.67557336044853,10.89591145857569 44.65205485026041,10.94765218098958 V 10.81691080729166 C 44.65205485026041,10.76752193589659 44.62829515839709,10.72759554761957 44.58125813802082,10.697021484375 44.53422111764457,10.66644742113042 44.47686253371225,10.65102945963542 44.40865885416666,10.65102945963542 44.33104777054584,10.65102945963542 44.26609619116388,10.66644742113042 44.21435546875,10.697021484375 44.16496659735494,10.72759554761957 44.14045817057291,10.76752193589659 44.14045817057291,10.81691080729166 V 12.16101481119791 C 44.1404581705729,12.20334812953654 44.16496659735494,12.24200901857197 44.21435546875,12.27728678385416 44.26609619116388,12.31256454913637 44.33104777054583,12.33051350911458 44.40865885416666,12.33051350911458 44.48626993778749,12.33051350911457 44.55197025208812,12.31256454913637 44.60606282552083,12.27728678385416 44.66015539895354,12.24200901857198 44.68719482421875,12.20334812953655 44.68719482421875,12.16101481119791 V 11.63184814453125 C 44.68719482421875,11.52366299766585 44.70589251911565,11.4309232581 44.74352213541666,11.35331217447916 44.78115175171768,11.27570109085833 44.82941987036299,11.2158115084428 44.88821614583333,11.17347819010416 44.94701242130363,11.12879302074671 45.00816750296079,11.106298828125 45.07166748046874,11.106298828125 H 45.17398681640624 C 45.22572753882015,11.106298828125 45.27071592406358,11.08253913626167 45.30834554036458,11.03550211588541 45.3483270076844,10.98846509550915 45.3682902018229,10.93237201081843 45.36829020182291,10.86652018229166 45.36829020182291,10.80302020478371 45.34832700768441,10.74767585501167 45.30834554036458,10.70063883463541 45.27071592406354,10.65360181425915 45.22572753882013,10.62984212239583 45.17398681640624,10.62984212239583 Z M 14.5634521484375,10.65102945963542 C 14.48348921379785,10.65102945963542 14.41778889949721,10.66644742113042 14.36604817708333,10.697021484375 14.31665930568825,10.72759554761957 14.29163411458333,10.76752193589659 14.29163411458333,10.81691080729166 V 12.16101481119791 C 14.29163411458333,12.20334812953654 14.31665930568826,12.24200901857197 14.36604817708333,12.27728678385416 14.41778889949721,12.31256454913637 14.48348921379785,12.33051350911458 14.5634521484375,12.33051350911458 14.63871138103952,12.33051350911457 14.70366296042146,12.31256454913637 14.75775553385416,12.27728678385416 14.81184810728686,12.24200901857198 14.83888753255208,12.20334812953655 14.83888753255208,12.16101481119791 V 10.81691080729166 C 14.83888753255208,10.76752193589659 14.81184810728687,10.72759554761957 14.75775553385416,10.697021484375 14.70366296042146,10.66644742113042 14.63871138103952,10.65102945963542 14.5634521484375,10.65102945963542 Z M 21.56974283854166,10.65102945963542 C 21.48977990390203,10.65102945963542 21.42407958960138,10.66644742113042 21.37233886718749,10.697021484375 21.32294999579241,10.72759554761957 21.29792480468749,10.76752193589659 21.2979248046875,10.81691080729166 V 12.16101481119791 C 21.29792480468749,12.20334812953654 21.32294999579241,12.24200901857197 21.37233886718749,12.27728678385416 21.42407958960138,12.31256454913637 21.48977990390202,12.33051350911458 21.56974283854166,12.33051350911458 21.64500207114369,12.33051350911457 21.70943688620271,12.31256454913637 21.76352945963541,12.27728678385416 21.81762203306811,12.24200901857198 21.84466145833333,12.20334812953655 21.84466145833333,12.16101481119791 V 10.81691080729166 C 21.84466145833333,10.76752193589659 21.81762203306811,10.72759554761957 21.76352945963541,10.697021484375 21.7094368862027,10.66644742113042 21.64500207114369,10.65102945963542 21.56974283854166,10.65102945963542 Z M 23.95461018880208,10.65102945963542 C 23.87699910518125,10.65102945963542 23.8120475257993,10.66644742113042 23.76030680338541,10.697021484375 23.71091793199033,10.72759554761957 23.68640950520832,10.76752193589659 23.68640950520833,10.81691080729166 V 12.16101481119791 C 23.68640950520832,12.20334812953654 23.71091793199034,12.24200901857197 23.76030680338541,12.27728678385416 23.81204752579931,12.31256454913637 23.87699910518125,12.33051350911458 23.95461018880208,12.33051350911458 24.03222127242291,12.33051350911457 24.09792158672354,12.31256454913637 24.15201416015624,12.27728678385416 24.20610673358895,12.24200901857198 24.23314615885416,12.20334812953655 24.23314615885416,12.16101481119791 V 10.81691080729166 C 24.23314615885416,10.76752193589659 24.20610673358894,10.72759554761957 24.15201416015624,10.697021484375 24.09792158672354,10.66644742113042 24.03222127242291,10.65102945963542 23.95461018880208,10.65102945963542 Z M 35.278466796875,10.65102945963542 C 35.203207564273,10.65102945963541 35.13877274921394,10.66897841961363 35.08468017578125,10.70425618489583 35.03058760234853,10.73953395017803 35.00354817708333,10.77819483921345 35.00354817708333,10.82052815755208 V 11.62461344401041 C 35.00354817708333,11.75396525004514 35.03967806763554,11.8750099141178 35.11258544921874,11.98789876302083 35.18549283080196,12.10078761192387 35.2832945673342,12.19277861657102 35.40559082031249,12.26333414713541 35.52788707329077,12.331537826681 35.66181870037524,12.36565348307292 35.80763346354166,12.36565348307292 35.95344822670809,12.36565348307292 36.08663111887386,12.331537826681 36.20657552083333,12.26333414713541 36.3288717738116,12.19513046758984 36.42615674602096,12.10440496218428 36.49906412760416,11.99151611328125 36.57197150918738,11.87862726437822 36.60861816406249,11.75631710106395 36.60861816406249,11.62461344401041 V 10.81691080729166 C 36.60861816406249,10.77222563793422 36.58284423803889,10.7335647488988 36.53110351562499,10.70063883463541 36.48171464422993,10.66771292037203 36.41676306484798,10.65102945963542 36.33680013020833,10.65102945963542 36.26389274862513,10.65102945963542 36.1994579335661,10.66771292037203 36.14301350911458,10.70063883463541 36.08892093568187,10.7335647488988 36.06188151041666,10.77222563793422 36.06188151041666,10.81691080729166 V 11.62461344401041 C 36.06188151041666,11.66929861336786 36.05026004664645,11.71175600012809 36.02674153645833,11.75173746744791 36.005574877289,11.79171893476774 35.97473895429899,11.82456909191805 35.93475748697916,11.850439453125 35.89712787067814,11.87630981433195 35.85467048391792,11.88919677734375 35.80763346354166,11.88919677734375 35.7605964431654,11.88919677734375 35.71739032148648,11.87630981433194 35.67740885416666,11.850439453125 35.63977923786564,11.82456909191805 35.60894331487563,11.79171893476773 35.58542480468749,11.75173746744791 35.56190629449934,11.71175600012809 35.55028483072916,11.66929861336786 35.55028483072916,11.62461344401041 V 10.82052815755208 C 35.55028483072917,10.77819483921345 35.52324540546396,10.73953395017803 35.46915283203124,10.70425618489583 35.41506025859854,10.66897841961363 35.3513741784582,10.65102945963541 35.278466796875,10.65102945963542 Z M 71.24784749348957,10.87685546875 C 71.19140306903804,10.87685546875 71.14693144811754,10.89353892948662 71.11400553385415,10.92646484375 71.08343147060959,10.95703890699457 71.06801350911456,10.9982307945132 71.06801350911456,11.04997151692708 71.06801350911455,11.10406409035979 71.08343147060958,11.1485357112803 71.11400553385415,11.1838134765625 71.14693144811754,11.21673939082588 71.19140306903804,11.2334228515625 71.24784749348957,11.2334228515625 71.30194006692228,11.2334228515625 71.34439745368247,11.21673939082588 71.37497151692707,11.1838134765625 71.40789743119046,11.1485357112803 71.42406412760414,11.10406409035979 71.42406412760415,11.04997151692708 71.42406412760412,10.99823079451319 71.40789743119043,10.95703890699457 71.37497151692707,10.92646484375 71.34439745368247,10.89353892948662 71.30194006692227,10.87685546875 71.24784749348957,10.87685546875 Z M 16.19694417317708,11.02516682942708 C 16.24162934253453,11.02516682942709 16.28282123005315,11.0335085597954 16.32045084635416,11.04997151692708 16.36043231367399,11.06408262303996 16.3920169715827,11.08732555058036 16.41553548177083,11.12025146484375 16.44140584297778,11.15082552808832 16.45429280598958,11.18948641712374 16.45429280598958,11.2365234375 16.45429280598958,11.26944935176338 16.44848207410448,11.2919435443851 16.43672281901041,11.30370279947917 16.42496356391636,11.31546205457323 16.40626586901944,11.32127278645833 16.3803955078125,11.32127278645833 H 15.94269612630208 V 11.2365234375 C 15.94269612630208,11.18948641712374 15.9548343543952,11.15082552808832 15.97835286458333,11.12025146484375 16.00422322579027,11.08732555058036 16.03580788369898,11.06408262303996 16.0734375,11.04997151692708 16.11341896731982,11.0335085597954 16.15461085483844,11.02516682942708 16.19694417317708,11.02516682942708 Z M 42.77516682942707,11.106298828125 C 42.82220384980333,11.106298828125 42.86466123656357,11.1191857911368 42.90229085286458,11.14505615234375 42.9422723201844,11.17092651355069 42.97385697809311,11.20377667070101 42.99737548828125,11.24375813802083 43.02089399846938,11.28373960534066 43.03251546223958,11.32619699210088 43.03251546223958,11.37088216145833 V 11.6178955078125 C 43.03251546223958,11.66493252818875 43.02089399846938,11.70940414910927 42.99737548828125,11.75173746744791 42.97385697809308,11.79171893476774 42.94227232018439,11.82456909191805 42.90229085286458,11.850439453125 42.86466123656357,11.87630981433195 42.82220384980333,11.88919677734375 42.77516682942707,11.88919677734375 42.72812980905082,11.88919677734375 42.68440692304899,11.87630981433194 42.64442545572916,11.850439453125 42.60679583942815,11.82456909191805 42.57647668076105,11.79171893476773 42.55295817057291,11.75173746744791 42.5317915114036,11.70940414910928 42.52091878255208,11.66493252818876 42.52091878255208,11.6178955078125 V 11.37088216145833 C 42.52091878255208,11.32619699210088 42.5317915114036,11.28373960534066 42.55295817057291,11.24375813802083 42.57647668076105,11.20377667070101 42.60679583942816,11.17092651355069 42.64442545572916,11.14505615234375 42.68440692304899,11.1191857911368 42.72812980905082,11.106298828125 42.77516682942707,11.106298828125 Z M 30.74902750651041,11.62823079427083 H 30.76298014322916 V 11.64218343098958 C 30.76298014322916,11.70097970645992 30.74756218173415,11.75557532131326 30.71698811848958,11.80496419270833 30.68876590626382,11.85435306410341 30.6546502498719,11.89427945238042 30.61466878255208,11.924853515625 30.57468731523223,11.95307572785076 30.53602642619683,11.96722819010417 30.49839680989583,11.96722819010416 30.458415342576,11.96722819010416 30.42556518542569,11.95508996201105 30.39969482421874,11.93157145182292 30.3738244630118,11.90805294163478 30.36093749999999,11.87065755184097 30.36093749999999,11.81891682942708 30.36093749999999,11.76247240497557 30.3783696956553,11.72128051745694 30.41364746093749,11.69541015625 30.4512770772385,11.66718794402424 30.49954519588383,11.64923898404602 30.55834147135416,11.64218343098958 30.6194895978433,11.63277602691432 30.68317567798364,11.62823079427083 30.74902750651041,11.62823079427083 Z M 39.29320882161458,11.62823079427083 H 39.30716145833333 V 11.64218343098958 C 39.30716145833331,11.70097970645992 39.29226026116123,11.75557532131326 39.26168619791666,11.80496419270833 39.23346398569091,11.85435306410341 39.19934832929899,11.89427945238042 39.15936686197916,11.924853515625 39.11938539465933,11.95307572785076 39.080207741301,11.96722819010417 39.04257812499999,11.96722819010416 39.00259665768016,11.96722819010416 38.96974650052986,11.95508996201105 38.94387613932291,11.93157145182292 38.91800577811599,11.90805294163478 38.90511881510416,11.87065755184097 38.90511881510416,11.81891682942708 38.90511881510417,11.76247240497557 38.92306777508239,11.72128051745694 38.95834554036458,11.69541015625 38.9959751566656,11.66718794402424 39.043726510988,11.64923898404602 39.10252278645833,11.64218343098958 39.16367091294747,11.63277602691432 39.22735699308782,11.62823079427083 39.29320882161458,11.62823079427083 Z" /></g></svg>
