<?xml version="1.0" encoding="UTF-8" standalone="no"?>
<!-- Created with Inkscape (http://www.inkscape.org/) -->

<svg
   width="3mm"
   height="1mm"
   viewBox="0 0 3 1"
   version="1.1"
   id="svg1"
   inkscape:version="1.3.2 (091e20e, 2023-11-25)"
   sodipodi:docname="dm50.svg"
   xmlns:inkscape="http://www.inkscape.org/namespaces/inkscape"
   xmlns:sodipodi="http://sodipodi.sourceforge.net/DTD/sodipodi-0.dtd"
   xmlns="http://www.w3.org/2000/svg"
   xmlns:svg="http://www.w3.org/2000/svg">
  <sodipodi:namedview
     id="namedview1"
     pagecolor="#ffffff"
     bordercolor="#000000"
     borderopacity="0.25"
     inkscape:showpageshadow="2"
     inkscape:pageopacity="0.0"
     inkscape:pagecheckerboard="0"
     inkscape:deskcolor="#d1d1d1"
     inkscape:document-units="mm"
     inkscape:zoom="99.406446"
     inkscape:cx="5.442303"
     inkscape:cy="1.871106"
     inkscape:window-width="1392"
     inkscape:window-height="983"
     inkscape:window-x="493"
     inkscape:window-y="25"
     inkscape:window-maximized="0"
     inkscape:current-layer="layer1"
     showgrid="false" />
  <defs
     id="defs1" />
  <g
     inkscape:label="Capa 1"
     inkscape:groupmode="layer"
     id="layer1">
    <path
       style="font-weight:bold;font-size:0.645627px;font-family:'Bridge OFFicer';-inkscape-font-specification:'Bridge OFFicer Bold';fill:none;stroke:#000000;stroke-width:0.005;stroke-linecap:round"
       d="M 0.15612752,0.64042389 0.32076241,0.25304768 H 0.87793853 L 0.7384831,0.58038058 0.6190421,0.64042389 Z M 0.4111502,0.53712357 H 0.54608624 L 0.62291586,0.356348 H 0.48797981 Z M 1.2930764,0.74695235 1.4590025,0.356348 H 1.380236 L 1.2595038,0.64042389 H 1.049675 L 1.1704072,0.356348 H 1.0916408 L 0.9709085,0.64042389 H 0.75978846 L 0.92442335,0.25304768 H 1.7140252 L 1.5493903,0.64042389 Z M 2.1394935,0.58038058 2.0200525,0.64042389 H 1.5958756 l 0.043903,-0.10330032 h 0.3073185 l 0.016141,-0.0387376 H 1.6559189 L 1.7605105,0.25304768 H 2.278949 L 2.2350463,0.356348 H 1.9277279 l -0.016786,0.0393832 H 2.21826 Z M 2.584976,0.64042389 H 2.1607991 l 0.1388098,-0.3273329 0.119441,-0.0600433 H 2.8438725 L 2.704417,0.58038058 Z M 2.5120202,0.53712357 2.5888498,0.356348 h -0.096198 l -0.07683,0.18077557 z"
       id="text1"
       aria-label="DM50" />
    <path
       id="path1"
       style="font-weight:bold;font-size:0.645627px;font-family:'Bridge OFFicer';-inkscape-font-specification:'Bridge OFFicer Bold';fill:none;stroke:#000000;stroke-width:0.005;stroke-linecap:round"
       sodipodi:type="inkscape:offset"
       inkscape:radius="-0.029277947"
       inkscape:original="M 0.3203125 0.25390625 L 0.15625 0.640625 L 0.61914062 0.640625 L 0.73828125 0.58007812 L 0.87890625 0.25390625 L 0.3203125 0.25390625 z M 0.92382812 0.25390625 L 0.75976562 0.640625 L 0.97070312 0.640625 L 1.0917969 0.35546875 L 1.1699219 0.35546875 L 1.0488281 0.640625 L 1.2597656 0.640625 L 1.3808594 0.35546875 L 1.4589844 0.35546875 L 1.2929688 0.74609375 L 1.5488281 0.640625 L 1.7148438 0.25390625 L 0.92382812 0.25390625 z M 1.7597656 0.25390625 L 1.65625 0.49804688 L 1.9628906 0.49804688 L 1.9472656 0.53710938 L 1.640625 0.53710938 L 1.5957031 0.640625 L 2.0195312 0.640625 L 2.1386719 0.58007812 L 2.21875 0.39648438 L 1.9101562 0.39648438 L 1.9277344 0.35546875 L 2.234375 0.35546875 L 2.2792969 0.25390625 L 1.7597656 0.25390625 z M 2.4199219 0.25390625 L 2.2988281 0.3125 L 2.1601562 0.640625 L 2.5859375 0.640625 L 2.7050781 0.58007812 L 2.84375 0.25390625 L 2.4199219 0.25390625 z M 0.48828125 0.35546875 L 0.62304688 0.35546875 L 0.546875 0.53710938 L 0.41210938 0.53710938 L 0.48828125 0.35546875 z M 2.4921875 0.35546875 L 2.5878906 0.35546875 L 2.5117188 0.53710938 L 2.4160156 0.53710938 L 2.4921875 0.35546875 z "
       d="M 0.33984375,0.28320313 0.20117188,0.61132812 H 0.61132812 L 0.71484375,0.55859375 0.83398438,0.28320313 Z m 0.60351563,0 L 0.8046875,0.61132812 H 0.95117188 L 1.0644531,0.34375 a 0.02928087,0.02928087 0 0 1 0.027344,-0.0175781 h 0.078125 a 0.02928087,0.02928087 0 0 1 0.027344,0.0410156 L 1.09375,0.61132812 H 1.2402344 L 1.3535156,0.34375 a 0.02928087,0.02928087 0 0 1 0.027344,-0.0175781 h 0.078125 a 0.02928087,0.02928087 0 0 1 0.027344,0.0410156 L 1.3496094,0.69140625 1.5273437,0.6171875 1.6699219,0.28320313 Z m 0.83593752,0 L 1.7011719,0.46875 h 0.2617187 a 0.02928087,0.02928087 0 0 1 0.027344,0.0410156 l -0.015625,0.0390625 a 0.02928087,0.02928087 0 0 1 -0.027344,0.0175781 H 1.6601562 l -0.019531,0.0449219 h 0.3710938 l 0.1035156,-0.0527344 0.058594,-0.1328125 H 1.9101562 A 0.02928087,0.02928087 0 0 1 1.8828125,0.38476563 L 1.9003906,0.34375 a 0.02928087,0.02928087 0 0 1 0.027344,-0.0175781 h 0.2871094 l 0.019531,-0.0429687 z m 0.6464844,0 -0.1035157,0.0507813 -0.1171875,0.27734374 H 2.578125 L 2.6816406,0.55859375 2.7988281,0.28320313 Z m -1.93750005,0.0429687 h 0.13476562 a 0.02928087,0.02928087 0 0 1 0.0273438,0.0410156 L 0.57421875,0.54882812 A 0.02928087,0.02928087 0 0 1 0.546875,0.56640625 H 0.41210938 A 0.02928087,0.02928087 0 0 1 0.38476563,0.52539062 L 0.4609375,0.34375 a 0.02928087,0.02928087 0 0 1 0.0273438,-0.0175781 z m 2.00390625,0 h 0.095703 a 0.02928087,0.02928087 0 0 1 0.027344,0.0410156 l -0.076172,0.18164062 a 0.02928087,0.02928087 0 0 1 -0.027344,0.0175781 H 2.4160156 A 0.02928087,0.02928087 0 0 1 2.3886719,0.52539062 L 2.4648438,0.34375 a 0.02928087,0.02928087 0 0 1 0.027344,-0.0175781 z" />
  </g>
</svg>
