<?xml version="1.0" encoding="UTF-8" standalone="no"?>
<!-- Created with Inkscape (http://www.inkscape.org/) -->

<svg
   width="10.775958mm"
   height="1.6129007mm"
   viewBox="0 0 46.33463 6.9351754"
   version="1.1"
   id="svg1"
   inkscape:version="1.3.2 (091e20e, 2023-11-25)"
   sodipodi:docname="logo calculator.svg"
   xmlns:inkscape="http://www.inkscape.org/namespaces/inkscape"
   xmlns:sodipodi="http://sodipodi.sourceforge.net/DTD/sodipodi-0.dtd"
   xmlns="http://www.w3.org/2000/svg"
   xmlns:svg="http://www.w3.org/2000/svg">
  <sodipodi:namedview
     id="namedview1"
     pagecolor="#ffffff"
     bordercolor="#000000"
     borderopacity="0.25"
     inkscape:showpageshadow="2"
     inkscape:pageopacity="0.0"
     inkscape:pagecheckerboard="0"
     inkscape:deskcolor="#d1d1d1"
     inkscape:document-units="mm"
     inkscape:zoom="9.5144352"
     inkscape:cx="25.329932"
     inkscape:cy="4.3092416"
     inkscape:window-width="1376"
     inkscape:window-height="769"
     inkscape:window-x="0"
     inkscape:window-y="25"
     inkscape:window-maximized="0"
     inkscape:current-layer="layer1" />
  <defs
     id="defs1" />
  <g
     inkscape:label="Capa 1"
     inkscape:groupmode="layer"
     id="layer1"
     transform="translate(-185.50208,-257.25772)">
    <path
       d="m 226.54887,263.71053 q 0.45506,0.22753 1.00114,0.35495 0.54608,0.11831 1.12856,0.11831 0.83731,0 1.48351,-0.23663 0.63709,-0.23663 1.04664,-0.66439 0.40046,-0.43686 0.55518,-1.04665 0.14562,-0.60979 0,-1.35609 -0.15472,-0.73721 -0.54608,-1.33789 -0.39135,-0.60068 -0.96473,-1.02844 -0.58248,-0.42776 -1.31969,-0.6644 -0.7372,-0.23663 -1.56542,-0.23663 -0.59158,0 -1.08305,0.12742 -0.50057,0.11831 -0.86462,0.34585 l 0.75541,1.01024 q 0.11831,0.16382 0.27303,0.16382 0.0819,0 0.20023,-0.0728 0.40046,-0.24573 1.01934,-0.24573 0.43687,0 0.83732,0.14562 0.40046,0.13652 0.72811,0.39135 0.31854,0.25484 0.54607,0.61889 0.21843,0.35495 0.30945,0.79181 0.091,0.43686 0.009,0.80091 -0.0819,0.36405 -0.30035,0.62799 -0.22753,0.25484 -0.57338,0.40046 -0.34584,0.13652 -0.79181,0.13652 -0.30034,0 -0.58248,-0.0637 -0.28214,-0.0637 -0.51877,-0.18203 -0.14562,-0.0728 -0.22753,-0.0728 -0.14562,0 -0.20023,0.15472 z m -3.30376,-4.2685 q -0.40046,0 -0.6735,0.13652 -0.27304,0.12741 -0.49147,0.33674 -0.0364,0.0273 -0.0546,-0.0182 -0.0182,-0.0364 -0.0637,-0.17292 -0.0546,-0.14562 -0.0728,-0.19113 h -1.32879 q 0.0364,0.18202 0.10922,0.54608 0.0728,0.36405 0.16382,0.81911 0.091,0.45507 0.19113,0.95564 0.10011,0.49146 0.19112,0.93743 0.091,0.44596 0.16383,0.79181 0.0637,0.34585 0.091,0.50057 h 1.13766 q 0.10921,0 0.17292,-0.0637 0.0637,-0.0637 0.0455,-0.17292 l -0.0364,-0.17293 q -0.0273,-0.11832 0.0637,-0.0182 0.22753,0.23663 0.58248,0.38225 0.34585,0.13652 0.75541,0.13652 0.44596,0 0.80091,-0.16382 0.35495,-0.17293 0.58249,-0.48237 0.21843,-0.31854 0.30034,-0.75541 0.0819,-0.43686 -0.0273,-0.97383 -0.10921,-0.52788 -0.35495,-0.96474 -0.25483,-0.43686 -0.60068,-0.7463 -0.35495,-0.30945 -0.77361,-0.47327 -0.42776,-0.17292 -0.87372,-0.17292 z m -0.16383,1.19226 q 0.50058,0 0.88283,0.31855 0.38225,0.31854 0.49147,0.84642 0.10011,0.53697 -0.14562,0.86462 -0.25484,0.31854 -0.76451,0.31854 -0.28214,0 -0.53698,-0.10011 -0.25483,-0.10011 -0.43686,-0.27304 -0.0182,-0.0819 -0.0637,-0.30944 -0.0455,-0.23664 -0.091,-0.49147 -0.0546,-0.26394 -0.10011,-0.49147 -0.0455,-0.22753 -0.0637,-0.31854 0.12742,-0.17293 0.34585,-0.26394 0.20933,-0.10012 0.48236,-0.10012 z m -4.03186,-3.37657 h -1.3925 l 1.36519,6.82596 h 1.3925 z m -5.18774,3.48579 q 0.12742,0.15472 0.25484,0.15472 0.10011,0 0.20933,-0.0819 0.12742,-0.091 0.31854,-0.13652 0.18203,-0.0455 0.36405,-0.0455 0.25484,0 0.50057,0.091 0.23664,0.0819 0.43687,0.23663 0.20022,0.14562 0.33674,0.36405 0.13652,0.20933 0.19113,0.47327 0.10011,0.51877 -0.18203,0.85552 -0.29124,0.32764 -0.81911,0.32764 -0.20023,0 -0.39136,-0.0455 -0.19112,-0.0546 -0.36405,-0.14562 -0.14562,-0.0728 -0.22753,-0.0728 -0.14562,0 -0.20023,0.15472 l -0.30944,0.88282 q 0.40956,0.20023 0.86462,0.30945 0.44596,0.10921 0.91013,0.10921 0.55518,0 0.99204,-0.16382 0.43686,-0.17293 0.7281,-0.48237 0.28214,-0.31854 0.40046,-0.75541 0.10921,-0.43686 0,-0.96473 -0.10922,-0.53698 -0.39136,-0.97384 -0.29124,-0.43686 -0.7008,-0.7463 -0.41866,-0.30945 -0.92833,-0.47327 -0.51877,-0.17292 -1.08305,-0.17292 -0.46416,0 -0.83732,0.10921 -0.38225,0.10922 -0.7281,0.30945 z m -2.76678,-1.21047 0.47326,2.38453 q 0.10012,0.49147 -0.0637,0.78271 -0.16382,0.28214 -0.57338,0.28214 -0.31854,0 -0.66439,-0.17292 -0.35495,-0.18203 -0.60068,-0.52787 l -0.54608,-2.74859 h -1.4016 l 0.91013,4.55064 h 1.12856 q 0.21843,0 0.21843,-0.19113 0,-0.0455 -0.0182,-0.17292 -0.0273,-0.12742 -0.0364,-0.19113 -0.0273,-0.10921 0.0637,-0.0182 0.14562,0.16382 0.34585,0.29124 0.19113,0.11832 0.40956,0.20023 0.20933,0.0819 0.43686,0.12742 0.22753,0.0455 0.43686,0.0455 0.40046,0 0.7099,-0.13652 0.30034,-0.14562 0.49147,-0.40045 0.18202,-0.26394 0.24573,-0.61889 0.0546,-0.36405 -0.0364,-0.81001 l -0.53698,-2.67578 z m -4.88738,-2.27532 h -1.3925 l 1.36519,6.82596 h 1.3925 z m -3.75884,2.18431 q -0.40045,0 -0.67349,0.13652 -0.27304,0.12741 -0.49147,0.33674 -0.0364,0.0273 -0.0546,-0.0182 -0.0182,-0.0364 -0.0637,-0.17292 -0.0546,-0.14562 -0.0728,-0.19113 h -1.32878 q 0.0364,0.18202 0.10921,0.54608 0.0728,0.36405 0.16382,0.81911 0.091,0.45507 0.19113,0.95564 0.10012,0.49146 0.19113,0.93743 0.091,0.44596 0.16382,0.79181 0.0637,0.34585 0.091,0.50057 h 1.13766 q 0.10922,0 0.17293,-0.0637 0.0637,-0.0637 0.0455,-0.17292 l -0.0364,-0.17293 q -0.0273,-0.11832 0.0637,-0.0182 0.22753,0.23663 0.58248,0.38225 0.34585,0.13652 0.75541,0.13652 0.44596,0 0.80091,-0.16382 0.35495,-0.17293 0.58248,-0.48237 0.21843,-0.31854 0.30034,-0.75541 0.0819,-0.43686 -0.0273,-0.97383 -0.10922,-0.52788 -0.35495,-0.96474 -0.25484,-0.43686 -0.60068,-0.7463 -0.35495,-0.30945 -0.77361,-0.47327 -0.42776,-0.17292 -0.87373,-0.17292 z m -0.16382,1.19226 q 0.50057,0 0.88282,0.31855 0.38226,0.31854 0.49147,0.84642 0.10012,0.53697 -0.14562,0.86462 -0.25483,0.31854 -0.7645,0.31854 -0.28214,0 -0.53698,-0.10011 -0.25484,-0.10011 -0.43686,-0.27304 -0.0182,-0.0819 -0.0637,-0.30944 -0.0455,-0.23664 -0.091,-0.49147 -0.0546,-0.26394 -0.10012,-0.49147 -0.0455,-0.22753 -0.0637,-0.31854 0.12742,-0.17293 0.34585,-0.26394 0.20933,-0.10012 0.48237,-0.10012 z m -5.14223,-1.10125 h -1.48351 l 0.23663,1.19227 h 1.48351 l 0.30035,1.50171 q 0.0728,0.38225 -0.10922,0.57338 -0.18203,0.19113 -0.53698,0.18202 -0.16382,-0.009 -0.34584,-0.0546 -0.18203,-0.0455 -0.33675,-0.12742 -0.10922,-0.0728 -0.22753,-0.0728 -0.15472,0 -0.19113,0.17292 l -0.20023,0.75541 q 0.40956,0.21843 0.90103,0.36405 0.48237,0.13652 0.95563,0.13652 0.40956,0 0.73721,-0.10922 0.31854,-0.10921 0.52787,-0.31854 0.20933,-0.20933 0.29124,-0.50057 0.0728,-0.30034 0,-0.66439 l -0.36405,-1.83846 0.66439,0.009 -0.14562,-0.73721 q -0.0364,-0.16382 -0.15472,-0.27303 -0.12742,-0.11832 -0.29124,-0.13652 l -0.33675,-0.0273 q -0.0273,-0.10011 -0.0637,-0.21843 -0.0364,-0.11831 -0.0728,-0.20023 l -0.40045,-1.07395 q -0.0728,-0.15472 -0.20933,-0.25483 -0.14562,-0.10012 -0.30944,-0.10012 h -0.6826 z m -4.96021,-0.10922 q -0.58248,0 -1.01934,0.17293 -0.44596,0.17292 -0.719,0.49147 -0.27304,0.30944 -0.37315,0.7463 -0.10012,0.43686 0.009,0.96474 0.10921,0.52787 0.38225,0.97383 0.26394,0.43687 0.6644,0.75541 0.40045,0.31855 0.91012,0.49147 0.50968,0.17292 1.09216,0.17292 0.58248,0 1.02844,-0.17292 0.43686,-0.17292 0.7099,-0.48237 0.27304,-0.31854 0.37316,-0.7554 0.10011,-0.44597 -0.009,-0.98294 -0.10921,-0.52788 -0.37315,-0.96474 -0.27304,-0.43686 -0.67349,-0.7463 -0.40046,-0.31855 -0.91013,-0.49147 -0.50967,-0.17293 -1.09216,-0.17293 z m 0.23664,1.19227 q 0.26394,0 0.50057,0.091 0.23663,0.0819 0.41866,0.23664 0.18202,0.15472 0.30944,0.37315 0.12742,0.21843 0.18203,0.48237 0.10921,0.53697 -0.14562,0.87372 -0.25484,0.32765 -0.79182,0.32765 -0.26393,0 -0.49146,-0.0819 -0.23664,-0.091 -0.41866,-0.24574 -0.19113,-0.16382 -0.31855,-0.38225 -0.12742,-0.22754 -0.18202,-0.49147 -0.10922,-0.52788 0.15472,-0.85552 0.25483,-0.32765 0.78271,-0.32765 z m -4.86009,-0.26394 q -0.12742,-0.15472 -0.29124,-0.30944 -0.17292,-0.16382 -0.37315,-0.29124 -0.20933,-0.13652 -0.43686,-0.21843 -0.23664,-0.091 -0.48237,-0.091 -0.25484,0 -0.47327,0.0819 l 0.28214,0.99204 q 0.0637,0.20933 0.21843,0.20933 0.0364,0 0.0819,-0.009 0.0364,-0.009 0.0819,-0.0273 0.15472,-0.0455 0.28214,-0.0455 0.23663,0 0.46416,0.11831 0.22753,0.11832 0.42776,0.30034 0.19113,0.18203 0.34585,0.39136 0.15472,0.20933 0.26394,0.40046 l 0.44596,2.22981 h 1.39253 l -0.91013,-4.55064 h -1.02845 q -0.16382,0 -0.24573,0.10011 -0.0819,0.10012 -0.0455,0.26394 l 0.0819,0.43686 q 0.0455,0.15472 -0.0819,0.0182 z"
       id="text1"
       style="font-style:italic;font-weight:bold;font-size:9.10128px;font-family:Intrigora;-inkscape-font-specification:'Intrigora Bold Italic';stroke-width:3.43985;stroke-linecap:round"
       aria-label="Calculator" />
  </g>
</svg>
