<?xml version="1.0" encoding="UTF-8" standalone="no"?>
<!-- Created with Inkscape (http://www.inkscape.org/) -->

<svg
   width="10.220687mm"
   height="2.2449801mm"
   viewBox="0 0 43.947067 9.653"
   version="1.1"
   id="svg1"
   inkscape:version="1.3.2 (091e20e, 2023-11-25)"
   sodipodi:docname="logo pcb back.svg"
   xmlns:inkscape="http://www.inkscape.org/namespaces/inkscape"
   xmlns:sodipodi="http://sodipodi.sourceforge.net/DTD/sodipodi-0.dtd"
   xmlns="http://www.w3.org/2000/svg"
   xmlns:svg="http://www.w3.org/2000/svg">
  <sodipodi:namedview
     id="namedview1"
     pagecolor="#ffffff"
     bordercolor="#000000"
     borderopacity="0.25"
     inkscape:showpageshadow="2"
     inkscape:pageopacity="0.0"
     inkscape:pagecheckerboard="0"
     inkscape:deskcolor="#d1d1d1"
     inkscape:document-units="mm"
     inkscape:zoom="9.5144352"
     inkscape:cx="25.329932"
     inkscape:cy="6.726621"
     inkscape:window-width="1376"
     inkscape:window-height="769"
     inkscape:window-x="0"
     inkscape:window-y="25"
     inkscape:window-maximized="0"
     inkscape:current-layer="layer1" />
  <defs
     id="defs1" />
  <g
     inkscape:label="Capa 1"
     inkscape:groupmode="layer"
     id="layer1"
     transform="translate(-185.50208,-254.53989)">
    <path
       style="font-style:italic;font-weight:bold;font-size:13.3333px;font-family:Intrigora;-inkscape-font-specification:'Intrigora Bold Italic';stroke-width:3.02362;stroke-linecap:round"
       d="m 227.59724,254.68656 h -3.90666 q -1.2,0 -2.11999,0.33333 -0.92,0.32 -1.49333,0.93333 -0.58667,0.6 -0.78667,1.46666 -0.21333,0.85333 0,1.92 0.21333,1.08 0.77333,1.94666 0.56,0.85333 1.38667,1.46666 0.81333,0.61334 1.86666,0.94667 1.03999,0.32 2.23999,0.32 h 3.89333 z m -2.09333,1.83999 1.13333,5.65332 h -1.32 q -0.69333,0 -1.27999,-0.2 -0.6,-0.21333 -1.06667,-0.58666 -0.46666,-0.37334 -0.78666,-0.89333 -0.32,-0.52 -0.44,-1.16 -0.12,-0.64 -0.0133,-1.14666 0.0933,-0.52 0.4,-0.88 0.29334,-0.37334 0.78667,-0.57333 0.49333,-0.21334 1.13333,-0.21334 z m -12.18666,6.42665 q 0.25334,0 0.37334,-0.22666 l 1.85332,-4.38666 q 0.0533,-0.10667 0.0533,0.0133 0.0533,0.45334 0.10666,0.90667 0.0533,0.45333 0.13334,0.92 0.0667,0.42666 0.16,0.91999 0.0933,0.49334 0.2,1 0.0933,0.50667 0.2,1 0.10666,0.49333 0.18666,0.92 h 2.34666 l -1.85333,-9.33331 h -2.46666 l -2.18666,5.11998 -4.17332,-5.11998 h -2.46666 l 1.87999,9.33331 h 2.34666 q -0.08,-0.44 -0.17333,-0.93333 -0.10666,-0.49334 -0.2,-1 -0.10666,-0.50667 -0.21333,-1 -0.10667,-0.49333 -0.2,-0.92 -0.12,-0.46666 -0.24,-0.90666 -0.12,-0.45333 -0.25333,-0.89333 -0.0267,-0.0533 0,-0.0533 0.0133,-0.0133 0.04,0.04 l 3.54666,4.37333 q 0.2,0.22666 0.46666,0.22666 z m -12.67996,-6.62665 0.58666,1.38667 q -0.79999,-0.04 -1.49333,0.0667 -0.70666,0.0933 -1.25333,0.33334 -0.97333,0.33333 -1.41333,1.06666 -0.43999,0.73333 -0.23999,1.75999 0.14666,0.72 0.55999,1.32 0.4,0.6 1.02667,1.02667 0.61333,0.42666 1.41333,0.66666 0.78666,0.24 1.69333,0.24 0.65333,0 1.27999,-0.12 0.62667,-0.10667 1.18667,-0.32 0.54666,-0.21333 0.98666,-0.50666 0.44,-0.29334 0.74667,-0.65334 l -0.93333,-1.17333 q -0.21334,-0.25333 -0.42667,-0.25333 -0.14667,0 -0.26667,0.13333 -0.21333,0.26667 -0.50666,0.48 -0.30667,0.21334 -0.65333,0.37333 -0.36,0.14667 -0.73334,0.22667 -0.38666,0.08 -0.75999,0.0667 -0.84,-0.0133 -1.42667,-0.4 -0.59999,-0.4 -0.73333,-1.05333 -0.14666,-0.76 0.44,-1.18667 0.58667,-0.42666 1.70666,-0.45333 0.53334,-0.0133 1.18667,0.0267 0.64,0.04 1.31999,0.0933 l -0.04,-0.2 q -0.0533,-0.24 -0.14666,-0.58666 -0.0933,-0.36 -0.18667,-0.58667 l -1.34666,-3.41332 h -6.17332 l 0.22667,1.10666 q 0.0533,0.24 0.22666,0.38667 0.17334,0.14666 0.41334,0.14666 z m -11.27997,-1.78666 q -1.08,0 -1.88,0.34667 -0.79999,0.34666 -1.27999,0.98666 -0.48,0.62667 -0.62667,1.50666 -0.16,0.88 0.0533,1.96 0.21333,1.08 0.71999,1.97333 0.50667,0.87999 1.24,1.51999 0.73333,0.64 1.68,0.98667 0.93333,0.34666 2.01333,0.34666 1.07999,0 1.87999,-0.34666 0.8,-0.34667 1.29333,-0.98667 0.48,-0.64 0.62667,-1.53333 0.14666,-0.89333 -0.0667,-1.97332 -0.21333,-1.08 -0.72,-1.96 -0.50666,-0.88 -1.24,-1.50666 -0.73333,-0.62667 -1.66666,-0.97333 -0.94666,-0.34667 -2.02666,-0.34667 z m 0.38667,1.94666 q 0.53333,0 1.01333,0.21334 0.46666,0.19999 0.83999,0.58666 0.37334,0.37333 0.64,0.90667 0.25334,0.53333 0.38667,1.17333 0.26666,1.29333 -0.17333,2.07999 -0.45334,0.77333 -1.54667,0.77333 -0.54666,0 -1.01333,-0.2 -0.46666,-0.21333 -0.84,-0.58666 -0.37333,-0.38667 -0.62666,-0.90667 -0.26667,-0.53333 -0.4,-1.18666 -0.13333,-0.64 -0.08,-1.16 0.04,-0.53333 0.26667,-0.90666 0.21333,-0.37334 0.59999,-0.57333 0.38667,-0.21334 0.93334,-0.21334 z"
       id="text1"
       aria-label="DM50" />
  </g>
</svg>
