<?xml version="1.0" encoding="UTF-8" standalone="no"?>
<!-- Created with Inkscape (http://www.inkscape.org/) -->

<svg
   width="4.5731988mm"
   height="1.605938mm"
   viewBox="0 0 4.5731988 1.605938"
   version="1.1"
   id="svg1"
   inkscape:version="1.3.2 (091e20e, 2023-11-25)"
   sodipodi:docname="PRG RST.svg"
   xmlns:inkscape="http://www.inkscape.org/namespaces/inkscape"
   xmlns:sodipodi="http://sodipodi.sourceforge.net/DTD/sodipodi-0.dtd"
   xmlns="http://www.w3.org/2000/svg"
   xmlns:svg="http://www.w3.org/2000/svg">
  <sodipodi:namedview
     id="namedview1"
     pagecolor="#ffffff"
     bordercolor="#000000"
     borderopacity="0.25"
     inkscape:showpageshadow="2"
     inkscape:pageopacity="0.0"
     inkscape:pagecheckerboard="0"
     inkscape:deskcolor="#d1d1d1"
     inkscape:document-units="mm"
     inkscape:zoom="29.865661"
     inkscape:cx="163.33139"
     inkscape:cy="115.31638"
     inkscape:window-width="1456"
     inkscape:window-height="751"
     inkscape:window-x="47"
     inkscape:window-y="90"
     inkscape:window-maximized="0"
     inkscape:current-layer="layer1" />
  <defs
     id="defs1" />
  <g
     inkscape:label="Capa 1"
     inkscape:groupmode="layer"
     id="layer1"
     transform="translate(-44.421842,-28.792907)">
    <path
       style="font-weight:bold;font-size:2.11667px;font-family:'Noto Sans Osage';-inkscape-font-specification:'Noto Sans Osage Bold';fill:#1a1a1a;stroke:#000000;stroke-width:0.005;stroke-linecap:round"
       d="m 45.694546,29.311138 q 0,0.103353 -0.03617,0.202572 -0.03617,0.09819 -0.103353,0.165365 -0.09198,0.09095 -0.205672,0.137459 -0.112655,0.04651 -0.281121,0.04651 h -0.247013 v 0.501262 H 44.424341 V 28.82538 h 0.653191 q 0.146761,0 0.247014,0.02584 0.101286,0.02481 0.178801,0.07545 0.09302,0.06098 0.141593,0.156063 0.04961,0.09509 0.04961,0.22841 z m -0.410312,0.0093 q 0,-0.06511 -0.03514,-0.111621 -0.03514,-0.04754 -0.08165,-0.06615 -0.06201,-0.0248 -0.120923,-0.02687 -0.05891,-0.0031 -0.157096,-0.0031 h -0.06821 v 0.460955 h 0.113688 q 0.101286,0 0.166398,-0.0124 0.06615,-0.0124 0.110588,-0.04961 0.03824,-0.03307 0.05478,-0.07855 0.01757,-0.04651 0.01757,-0.112655 z m 1.55443,-0.02377 q 0,-0.05788 -0.02377,-0.09922 -0.02377,-0.04134 -0.08165,-0.06511 -0.04031,-0.01654 -0.09405,-0.01964 -0.05374,-0.0041 -0.125057,-0.0041 h -0.143661 v 0.414446 h 0.121957 q 0.09508,0 0.159164,-0.0093 0.06408,-0.0093 0.107487,-0.04237 0.04134,-0.03204 0.05994,-0.07028 0.01964,-0.03927 0.01964,-0.104386 z m 0.619084,1.067636 h -0.484725 l -0.419614,-0.564307 h -0.182935 v 0.564307 h -0.394808 v -1.538926 h 0.665593 q 0.136426,0 0.234612,0.0155 0.09819,0.0155 0.183968,0.06718 0.08682,0.05168 0.13746,0.134359 0.05168,0.08165 0.05168,0.205673 0,0.170532 -0.07958,0.278019 -0.07855,0.107488 -0.225309,0.178801 z m 1.534793,-0.08785 q -0.103353,0.04031 -0.273886,0.08062 -0.170532,0.03927 -0.340031,0.03927 -0.392742,0 -0.614951,-0.212907 -0.222209,-0.213941 -0.222209,-0.590146 0,-0.358635 0.224276,-0.577743 0.224276,-0.220142 0.625286,-0.220142 0.151929,0 0.289389,0.02791 0.137459,0.02687 0.305925,0.108521 v 0.360702 H 48.9419 q -0.02894,-0.0217 -0.08475,-0.06098 -0.05581,-0.04031 -0.107487,-0.06821 -0.05995,-0.03307 -0.14056,-0.05684 -0.07958,-0.02377 -0.169499,-0.02377 -0.10542,0 -0.191203,0.03101 -0.08578,0.03101 -0.153996,0.09508 -0.06511,0.06201 -0.103353,0.15813 -0.03721,0.09508 -0.03721,0.220142 0,0.255282 0.135392,0.390674 0.135393,0.135393 0.399976,0.135393 0.02274,0 0.04961,-0.001 0.02791,-0.001 0.05064,-0.0031 v -0.301791 h -0.306959 v -0.290422 h 0.710036 z"
       id="text1-5"
       aria-label="PRG" />
  </g>
</svg>
