<?xml version="1.0" encoding="UTF-8" standalone="no"?>
<!-- Created with Inkscape (http://www.inkscape.org/) -->

<svg
   width="19.235313"
   height="19.24881"
   id="svg2383"
   sodipodi:version="0.32"
   inkscape:version="1.3.2 (091e20e, 2023-11-25)"
   sodipodi:docname="RoHS.svg"
   inkscape:output_extension="org.inkscape.output.svg.inkscape"
   version="1.0"
   viewBox="0 0 153.88251 153.99048"
   xmlns:inkscape="http://www.inkscape.org/namespaces/inkscape"
   xmlns:sodipodi="http://sodipodi.sourceforge.net/DTD/sodipodi-0.dtd"
   xmlns="http://www.w3.org/2000/svg"
   xmlns:svg="http://www.w3.org/2000/svg"
   xmlns:rdf="http://www.w3.org/1999/02/22-rdf-syntax-ns#"
   xmlns:cc="http://creativecommons.org/ns#"
   xmlns:dc="http://purl.org/dc/elements/1.1/">
  <defs
     id="defs2385">
    <inkscape:perspective
       sodipodi:type="inkscape:persp3d"
       inkscape:vp_x="0 : 3131.5153 : 1"
       inkscape:vp_y="0 : 8000.0002 : 0"
       inkscape:vp_z="5952.7558 : 3131.5153 : 1"
       inkscape:persp3d-origin="2976.378 : 1728.3659 : 1"
       id="perspective2391" />
    <inkscape:perspective
       id="perspective2706"
       inkscape:persp3d-origin="2976.378 : 1728.3659 : 1"
       inkscape:vp_z="5952.7558 : 3131.5153 : 1"
       inkscape:vp_y="0 : 8000.0002 : 0"
       inkscape:vp_x="0 : 3131.5153 : 1"
       sodipodi:type="inkscape:persp3d" />
  </defs>
  <sodipodi:namedview
     id="base"
     pagecolor="#ffffff"
     bordercolor="#666666"
     borderopacity="1.0"
     inkscape:pageopacity="0.0"
     inkscape:pageshadow="2"
     inkscape:zoom="3.6203867"
     inkscape:cx="128.1631"
     inkscape:cy="78.030339"
     inkscape:document-units="px"
     inkscape:current-layer="layer1"
     showgrid="false"
     inkscape:window-width="1536"
     inkscape:window-height="866"
     inkscape:window-x="0"
     inkscape:window-y="25"
     inkscape:showpageshadow="2"
     inkscape:pagecheckerboard="0"
     inkscape:deskcolor="#d1d1d1"
     inkscape:window-maximized="0" />
  <metadata
     id="metadata2388">
    <rdf:RDF>
      <cc:Work
         rdf:about="">
        <dc:format>image/svg+xml</dc:format>
        <dc:type
           rdf:resource="http://purl.org/dc/dcmitype/StillImage" />
      </cc:Work>
    </rdf:RDF>
  </metadata>
  <g
     inkscape:label="Calque 1"
     inkscape:groupmode="layer"
     id="layer1"
     transform="translate(-202.49236,-397.68383)">
    <g
       id="g1"
       transform="matrix(-1,0,0,1,558.86722,0)">
      <path
         sodipodi:nodetypes="csssscccsssssssssssscc"
         id="path2756"
         d="m 270.1686,496.19119 c -4.70512,-7.25876 -6.00144,-8.96585 -9.83097,-12.94607 -1.45163,-1.50875 -4.96844,-4.81092 -7.81512,-7.33814 -6.04166,-5.36364 -7.61719,-6.84053 -7.61719,-7.14029 0,-0.5231 3.70764,-3.78792 9.66785,-8.51319 4.63351,-3.67346 5.59002,-4.29241 6.63338,-4.29241 h 0.84097 l 1.02458,2.39258 c 2.31917,5.41565 5.65197,12.80653 6.18054,13.70613 0.66604,1.13352 1.38776,1.48726 2.09243,1.02554 0.58177,-0.3812 2.88927,-4.90468 5.29806,-10.38597 2.10362,-4.7869 6.56403,-13.72971 9.30323,-18.65234 3.41152,-6.13088 8.0355,-13.3534 10.49439,-16.39196 3.35574,-4.14685 10.64865,-10.78932 11.15398,-10.29303 0.0739,0.0725 -1.69992,1.13461 -1.32602,0.78881 4.97332,-4.59954 0.19036,9.29752 2.10624,24.62665 0.60693,4.85607 -0.0683,5.12119 -1.96529,6.73593 -6.3917,5.44067 -9.07539,8.28147 -13.73233,14.53626 -8.29638,11.14297 -13.38123,19.32993 -18.1281,29.1875 -0.96063,1.99484 -1.92106,3.87204 -2.13432,4.17154 -0.64215,0.90182 -0.99734,0.70929 -2.24631,-1.21754 z"
         style="fill:#000000;fill-opacity:1" />
      <path
         id="path2762"
         d="m 274.06814,551.57646 c -7.74446,-0.73082 -12.41381,-1.64142 -18.47682,-3.60325 -16.26076,-5.26155 -30.29907,-15.81995 -39.96577,-30.05879 -6.82964,-10.0599 -10.91144,-20.78595 -12.69034,-33.34731 -0.37958,-2.6803 -0.43681,-3.92474 -0.44253,-9.62144 -0.007,-6.66954 0.0918,-8.09408 0.8964,-12.96012 4.26706,-25.8072 21.65704,-47.85711 45.89396,-58.19199 14.2112,-6.05981 29.92488,-7.6538 45.29291,-4.5945 28.7767,5.72854 52.02246,27.74412 59.35654,56.21536 4.04836,15.71587 3.04323,32.38993 -2.86103,47.46094 -9.48688,24.21592 -30.98797,42.23687 -56.49551,47.3512 -5.35891,1.07449 -9.78004,1.48591 -15.52734,1.44499 -2.36328,-0.0168 -4.6045,-0.0596 -4.98047,-0.0951 z m 12.59765,-5.35313 c 21.21073,-2.11146 40.46157,-13.77064 52.38524,-31.72687 12.26885,-18.47606 15.10684,-42.21211 7.5601,-63.23021 -5.37737,-14.97633 -15.39711,-27.47337 -29.02659,-36.20324 -3.17884,-2.0361 -9.49242,-5.1802 -13.04765,-6.49762 -26.32543,-9.7551 -55.61299,-3.38998 -75.38694,16.38397 -16.5926,16.5926 -23.89887,40.04644 -19.71205,63.27756 1.90944,10.59476 6.4779,21.00536 13.07055,29.78516 2.34406,3.12172 3.31159,4.24259 6.21668,7.20193 12.25115,12.47994 28.02008,19.7919 45.73363,21.20645 2.64721,0.21139 9.15963,0.10623 12.20703,-0.19713 z"
         style="fill:#000000;fill-opacity:1" />
      <g
         transform="translate(-5.18103,-83.625709)"
         id="g2768"
         style="fill:#000000">
        <path
           style="fill:#000000;fill-opacity:1"
           d="m 240.382,595.17221 v -14.57104 l 5.41992,0.0934 c 5.68118,0.0979 6.45271,0.20073 8.33133,1.11015 2.20615,1.06798 3.65012,3.16286 4.02141,5.83416 0.57144,4.11133 -1.28689,7.13397 -4.95273,8.05578 l -0.9496,0.23879 0.99028,0.47067 c 1.91368,0.90952 2.44568,1.70692 6.26079,9.38406 l 1.96545,3.95507 h -2.00221 -2.00223 l -2.12127,-4.49515 c -1.1667,-2.47233 -2.44012,-4.95154 -2.82982,-5.50934 -1.38269,-1.97916 -2.69987,-2.48281 -6.51609,-2.49158 l -1.70898,-0.004 v 6.25 6.25 h -1.95313 -1.95312 z m 9.87624,-1.06902 c 1.60163,-0.29075 2.69389,-0.9719 3.35099,-2.08974 0.49519,-0.84242 0.5423,-1.09216 0.5423,-2.87566 0,-1.72119 -0.058,-2.05642 -0.48828,-2.82291 -0.63967,-1.13946 -1.88338,-2.06835 -3.12622,-2.33489 -0.54702,-0.11732 -2.17677,-0.2133 -3.62168,-0.2133 h -2.6271 v 5.27344 5.27344 h 2.40553 c 1.32305,0 2.92705,-0.0947 3.56445,-0.21038 z"
           id="path2758" />
        <path
           style="fill:#000000;fill-opacity:1"
           d="m 270.42816,609.7689 c -1.46229,-0.4806 -2.26566,-0.99654 -3.33985,-2.14495 -1.73553,-1.85541 -2.47567,-4.04654 -2.63081,-7.78829 -0.21543,-5.19564 0.96578,-8.70834 3.60535,-10.72161 2.52171,-1.92336 7.50295,-2.19583 10.31415,-0.56416 1.06933,0.62066 2.48683,2.17382 3.11462,3.41272 1.14946,2.26835 1.65213,5.81378 1.28635,9.07262 -0.50297,4.48077 -2.30328,7.30864 -5.43267,8.53341 -1.58582,0.62065 -5.30998,0.72846 -6.91714,0.20026 z m 5.69423,-3.01544 c 1.16142,-0.59522 2.04818,-1.8004 2.588,-3.51733 0.5945,-1.89088 0.64338,-6.79018 0.0861,-8.62959 -0.86477,-2.85419 -2.54764,-4.23369 -5.16475,-4.23369 -2.11599,0 -3.41519,0.72395 -4.45105,2.48023 -1.44988,2.45823 -1.54124,8.94025 -0.16455,11.6733 0.64948,1.28936 1.93695,2.34365 3.29947,2.70191 0.95529,0.25118 2.8517,0.0146 3.8068,-0.47483 z"
           id="path2760" />
        <path
           style="fill:#000000;fill-opacity:1"
           d="m 288.42887,595.19247 v -14.55078 h 1.85547 1.85547 v 5.95703 5.95703 h 5.5664 5.56641 v -5.95703 -5.95703 h 1.85547 1.85547 v 14.55078 14.55078 h -1.85301 -1.85299 l -0.0513,-6.98242 -0.0513,-6.98242 h -5.46875 -5.46875 l -0.0513,6.98242 -0.0513,6.98242 h -1.85299 -1.85301 z"
           id="path2764" />
        <path
           style="fill:#000000;fill-opacity:1"
           d="m 317.33512,609.84247 c -0.69824,-0.14009 -1.99463,-0.49504 -2.88086,-0.78877 l -1.61133,-0.53407 v -1.98018 -1.98019 l 2.09961,1.02081 c 5.18446,2.52062 10.36504,2.02178 11.98524,-1.15407 0.8614,-1.68847 0.64179,-4.29145 -0.46877,-5.55631 -0.87309,-0.99435 -2.09762,-1.52605 -5.3399,-2.31857 -3.2518,-0.79484 -5.30024,-1.64856 -6.45168,-2.68883 -2.97836,-2.69077 -2.82788,-8.14758 0.30712,-11.13788 1.93493,-1.8456 3.74674,-2.48674 7.04807,-2.49407 2.12086,-0.005 4.07264,0.31547 6.20117,1.01728 l 1.22071,0.40249 v 1.85581 c 0,1.02071 -0.0659,1.82653 -0.14649,1.79072 -0.0806,-0.0358 -0.7357,-0.35331 -1.45588,-0.70557 -5.03076,-2.46069 -10.49521,-1.52242 -11.47302,1.96997 -0.34547,1.2339 -0.17137,3.05168 0.37732,3.93948 0.57469,0.92984 2.59215,1.87009 5.4048,2.51894 4.8892,1.12788 6.95356,2.4108 8.21079,5.1027 0.51136,1.09494 0.54732,1.33857 0.54732,3.71094 0,2.46547 -0.0183,2.57646 -0.63139,3.82943 -1.06388,2.17427 -3.03793,3.62778 -5.69066,4.19005 -1.60277,0.33972 -5.5358,0.33424 -7.25217,-0.0101 z"
           id="path2766" />
      </g>
    </g>
  </g>
</svg>
