<?xml version="1.0" encoding="UTF-8" standalone="no"?>
<!-- Created with Inkscape (http://www.inkscape.org/) -->

<svg
   width="4.3685641mm"
   height="1.5997288mm"
   viewBox="0 0 4.3685641 1.5997288"
   version="1.1"
   id="svg1"
   inkscape:version="1.3.2 (091e20e, 2023-11-25)"
   sodipodi:docname="PRG RST.svg"
   xmlns:inkscape="http://www.inkscape.org/namespaces/inkscape"
   xmlns:sodipodi="http://sodipodi.sourceforge.net/DTD/sodipodi-0.dtd"
   xmlns="http://www.w3.org/2000/svg"
   xmlns:svg="http://www.w3.org/2000/svg">
  <sodipodi:namedview
     id="namedview1"
     pagecolor="#ffffff"
     bordercolor="#000000"
     borderopacity="0.25"
     inkscape:showpageshadow="2"
     inkscape:pageopacity="0.0"
     inkscape:pagecheckerboard="0"
     inkscape:deskcolor="#d1d1d1"
     inkscape:document-units="mm"
     inkscape:zoom="29.865661"
     inkscape:cx="163.33139"
     inkscape:cy="115.31638"
     inkscape:window-width="1456"
     inkscape:window-height="751"
     inkscape:window-x="47"
     inkscape:window-y="90"
     inkscape:window-maximized="0"
     inkscape:current-layer="layer1" />
  <defs
     id="defs1" />
  <g
     inkscape:label="Capa 1"
     inkscape:groupmode="layer"
     id="layer1"
     transform="translate(-44.518312,-31.057031)">
    <path
       style="font-weight:bold;font-size:2.11667px;font-family:'Noto Sans Osage';-inkscape-font-specification:'Noto Sans Osage Bold';fill:#1a1a1a;stroke:#000000;stroke-width:0.005;stroke-linecap:round"
       d="m 45.383808,31.558717 q 0,-0.05788 -0.02377,-0.09922 -0.02377,-0.04134 -0.08165,-0.06511 -0.04031,-0.01654 -0.09405,-0.01964 -0.05374,-0.0041 -0.125057,-0.0041 H 44.91562 v 0.414446 h 0.121957 q 0.09508,0 0.159164,-0.0093 0.06408,-0.0093 0.107487,-0.04237 0.04134,-0.03204 0.05994,-0.07028 0.01964,-0.03927 0.01964,-0.104387 z m 0.619085,1.067637 h -0.484726 l -0.419613,-0.564307 h -0.182935 v 0.564307 h -0.394808 v -1.538926 h 0.665593 q 0.136426,0 0.234612,0.0155 0.09819,0.0155 0.183968,0.06718 0.08682,0.05168 0.137459,0.134359 0.05168,0.08165 0.05168,0.205673 0,0.170532 -0.07958,0.278019 -0.07855,0.107487 -0.225309,0.178801 z m 1.405601,-0.483692 q 0,0.227377 -0.19327,0.370004 -0.192237,0.141594 -0.522966,0.141594 -0.191203,0 -0.33383,-0.03307 -0.141594,-0.03411 -0.265618,-0.08578 v -0.368971 h 0.04341 q 0.12299,0.09819 0.274919,0.150896 0.152962,0.05271 0.293522,0.05271 0.03617,0 0.09509,-0.0062 0.05891,-0.0062 0.09612,-0.02067 0.04548,-0.0186 0.07441,-0.04651 0.02997,-0.02791 0.02997,-0.08268 0,-0.05064 -0.04341,-0.08682 -0.04237,-0.03721 -0.125058,-0.05684 -0.08682,-0.02067 -0.183968,-0.03824 -0.09612,-0.0186 -0.180868,-0.04651 -0.194303,-0.06305 -0.280086,-0.170532 -0.08475,-0.108521 -0.08475,-0.268718 0,-0.214974 0.192237,-0.350367 0.19327,-0.136426 0.496094,-0.136426 0.151929,0 0.299724,0.02997 0.148828,0.02894 0.257349,0.07338 v 0.354501 h -0.04237 q -0.09302,-0.07441 -0.22841,-0.124023 -0.134359,-0.05064 -0.274919,-0.05064 -0.04961,0 -0.09922,0.0072 -0.04858,0.0062 -0.09405,0.02481 -0.04031,0.0155 -0.06925,0.04754 -0.02894,0.03101 -0.02894,0.07131 0,0.06098 0.04651,0.09405 0.04651,0.03204 0.1757,0.05891 0.08475,0.01757 0.162265,0.03411 0.07855,0.01654 0.168465,0.04547 0.176734,0.05788 0.26045,0.158131 0.08475,0.09922 0.08475,0.258382 z m 1.475881,-0.757578 h -0.480591 v 1.24127 h -0.396876 v -1.24127 h -0.480591 v -0.297656 h 1.358058 z"
       id="text1-3-1"
       aria-label="RST" />
  </g>
</svg>
