<?xml version="1.0" encoding="UTF-8" standalone="no"?>
<!-- Generator: Adobe Illustrator 13.0.0, SVG Export Plug-In . SVG Version: 6.00 Build 14948)  -->

<svg
   version="1.1"
   id="Foreground"
   x="0px"
   y="0px"
   width="16.819479"
   height="23.881599"
   viewBox="0 0 420.48697 597.03998"
   enable-background="new 0 0 420.487 597.04"
   xml:space="preserve"
   sodipodi:docname="WEEE_symbol_vectors.svg"
   inkscape:version="1.3.2 (091e20e, 2023-11-25)"
   xmlns:inkscape="http://www.inkscape.org/namespaces/inkscape"
   xmlns:sodipodi="http://sodipodi.sourceforge.net/DTD/sodipodi-0.dtd"
   xmlns="http://www.w3.org/2000/svg"
   xmlns:svg="http://www.w3.org/2000/svg"><defs
   id="defs1" /><sodipodi:namedview
   id="namedview1"
   pagecolor="#ffffff"
   bordercolor="#000000"
   borderopacity="0.25"
   inkscape:showpageshadow="2"
   inkscape:pageopacity="0.0"
   inkscape:pagecheckerboard="0"
   inkscape:deskcolor="#d1d1d1"
   inkscape:zoom="6.3245346"
   inkscape:cx="22.452245"
   inkscape:cy="40.556344"
   inkscape:window-width="1480"
   inkscape:window-height="798"
   inkscape:window-x="0"
   inkscape:window-y="25"
   inkscape:window-maximized="0"
   inkscape:current-layer="Foreground" />
<g
   id="g1"><path
     d="M 236.379,48.548 H 201.38 v 5.502 h 34.999 z M 136.377,65.629 c -5.415,2.942 -9.624,6.535 -11.948,10.919 h 11.948 z m 181.711,52.358 -13.185,13.43 -0.637,6.83 h 15.825 v -20.26 z m -119,107.311 -68.126,-71.864 11.168,129.826 z m 13.475,0.177 65.129,68.592 13.516,-145.03 h -1.333 v -2.314 z m -82.916,-87.324 76.208,80.26 45.077,-45.87 H 187.38 v -24 h 73.501 v 13.875 l 28.994,-29.504 v -25.715 h 5.232 l 1.691,-18.151 H 125.423 Z M 313.64,346.135 c 0.314,1.874 0.478,3.799 0.478,5.763 0,19.089 -15.474,34.562 -34.562,34.562 -13.255,0 -24.768,-7.461 -30.566,-18.413 h -84.52 v 18.055 h -22.237 v -18.101 c -2.604,-0.366 -5.102,-2.842 -5.325,-5.439 L 132.16,307.375 14.359,427.368 7.317,420.448 131.055,294.53 117.716,139.461 0,15.286 V 1.611 L 116.403,124.203 113.336,88.549 H 98.88 v -12 h 12.719 c 0.219,-0.674 0.509,-1.462 0.89,-2.342 4.229,-9.775 12.964,-16.763 23.889,-21.734 v -7.931 h 20.505 v 1.227 c 10.683,-2.455 21.978,-3.79 32.499,-4.468 v -4.752 h 58.999 V 66.05 H 189.382 V 53.588 c -10.451,0.781 -21.987,2.208 -32.499,4.709 V 76.549 H 296.327 C 290.855,63.637 269.578,57.591 248.38,54.85 V 42.631 c 21.275,2.637 43.143,8.586 54.121,21.438 2.929,-3.729 7.48,-6.125 12.59,-6.125 8.837,0 16,7.163 16,16 0,8.836 -7.163,16 -16,16 -2.2,0 -4.297,-0.444 -6.205,-1.248 l -1.725,18.5 h 7.986 L 420.487,0 v 13.682 l -91.805,93.513 h 1.911 v 41.842 h -27.331 l -14.594,156.588 107.955,113.695 -7.162,6.797 z m -68.648,5.763 c 0,-17.718 13.331,-32.322 30.51,-34.328 l 0.99,-10.621 -70.699,-74.578 -62.56,63.724 5.157,59.953 h 96.848 c -0.162,-1.361 -0.246,-2.746 -0.246,-4.15 z m 16.588,0 c 0,9.927 8.047,17.975 17.975,17.975 9.927,0 17.975,-8.048 17.975,-17.975 0,-9.928 -8.048,-17.975 -17.975,-17.975 -9.928,0 -17.975,8.047 -17.975,17.975 z m 6.301,0 c 0,-6.447 5.227,-11.674 11.674,-11.674 6.447,0 11.674,5.227 11.674,11.674 0,6.447 -5.227,11.673 -11.674,11.673 -6.447,0 -11.674,-5.226 -11.674,-11.673 z M 33.878,512.379 H 381.551 V 597.04 H 33.878 Z"
     id="path1" /></g>
</svg>
